<svg xmlns="http://www.w3.org/2000/svg" viewBox="0 0 45.37 58.13"><defs><style>.cls-1{fill:#584122;}.cls-2{fill:#513b16;}.cls-3{fill:#422e17;}.cls-4{fill:#d2c19a;}.cls-5{fill:#dcc59e;}.cls-6{fill:#d5c29b;}.cls-7{fill:#ddcfb4;}.cls-8{fill:#ddcfae;}.cls-9{fill:#fdf3da;}</style></defs><g id="Layer_2" data-name="Layer 2"><g id="Layer_1-2" data-name="Layer 1"><path class="cls-1" d="M8.35,47.3a43.93,43.93,0,0,1,.15-6c.75-4.8-.19-8.09-6-8C1.18,33.32-.3,32.79.05,31,1.25,24.7,0,18.35.9,12.07,1.51,8,3.3,5.44,7.33,3.53,12,1.32,16.22-1.09,21.52,1.11A3.34,3.34,0,0,0,24,1.1C30.45-2.12,35.19,2.54,40.4,4.73c3.17,1.34,3.65,4.52,4,7.53.61,6.11-.52,12.31.92,18.38.51,2.14-1,2.65-2.59,2.66-5.65,0-6.73,3.2-5.91,8.06a51.74,51.74,0,0,1,.25,7c-.31.8-.75,1.39-1.74,1-3.07-5.8-1.88-12-1.13-18C35,24.48,35.38,17.49,37,10.67c1-4.19-1.21-5.7-7.85-5.87-4.24-1.57-8.49-2-12.77-.09-6.22-.64-9,2-7.71,8.73,1.85,9.87,3.75,19.88,3.07,30.07C11.56,45.6,12,47.9,10,49.43,8.23,49.61,9,47.9,8.35,47.3Z"/><path class="cls-2" d="M8.35,47.3l1,2.17c1.76,4.63,5.31,5.47,9.86,5.29,5.47-.22,11-.36,16.46-.23a2.35,2.35,0,0,1,1.66,1.78c-9.27,2.94-18.67,1.62-28,.81-2-.17-2.09-1.78-1.83-3.42C7.76,51.57,8,49.43,8.35,47.3Z"/><path class="cls-3" d="M37.29,56.31l-1.06-.94c-1.51-1.94-1.9-3.91-.13-5.93L37,48.31C37.29,51,38,53.61,37.29,56.31Z"/><path class="cls-4" d="M36.1,49.44q.06,3,.13,5.93c-7.9,1.67-15.87.8-23.82.7-5.47-.08-2.29-4.29-3.1-6.6A37.2,37.2,0,0,0,10,34.23C8.67,25.6,8.76,16.75,6.07,8.34,5.84,7.62,5,6.79,6,6.19,8,5,10.48,4.44,12.06,2.9,15,.09,15.21,5.16,17.25,4.29H18c3.66.76,5.24,2.82,4.83,6.71a35.6,35.6,0,0,0,0,6.77c-.1-3.37.15-6.74.09-10.1-.05-3.1,2.84-2.56,4.6-3.39h.7C31,2.5,36.72,3.48,39.22,6c1.41,1.43-.2,2.38-.37,3.53C36.91,22.78,33.45,35.9,36.1,49.44Z"/><path class="cls-5" d="M41.24,7.52c2.76,6.55,1.7,12.33,1.77,18,0,3-3.11,1.46-5.15,3.24C38.48,21.33,38.62,14.8,41.24,7.52Z"/><path class="cls-6" d="M3.91,7.68C6.8,14.21,6.65,20.21,7.27,26.06c.12,1.07,0,2.12-1.49,1.68s-3.64.13-3.52-2.47C2.52,19.69,1.36,14,3.91,7.68Z"/><path class="cls-7" d="M17.25,4.29V2.46H28.18l0,1.82.05-.06c-3.67,2-7.34,2.78-11,0Z"/><path class="cls-8" d="M5.85,32.38c-1.36-.57-3.8.28-4.18-2.07C1.45,29,2.8,28.59,4.11,29.08c1.53.56,4-.22,4.06,2.46C8.22,33.21,6.88,32.41,5.85,32.38Z"/><path class="cls-9" d="M39.28,32.29c-.77-.07-2,.46-1.92-.75.13-2.72,2.62-1.83,4.13-2.38,1.17-.42,2.29.4,2,1.35C42.8,32.34,40.74,31.89,39.28,32.29Z"/><path class="cls-1" d="M17.2,4.22a17,17,0,0,0,11,0,1.26,1.26,0,0,1-1.05,1.44c-4.61,1-2.94,4.55-3.49,7.52-.48,2.59,2.11,5.57-1.26,8.08C20.84,15.38,24.8,7.89,17.2,4.22Z"/></g></g></svg>