<svg xmlns="http://www.w3.org/2000/svg" viewBox="0 0 18.48 45.19"><defs><style>.cls-1{fill:#584121;}.cls-2{fill:#604d2e;}.cls-3{fill:#7e5c45;}.cls-4{fill:#cbb18e;}.cls-5{fill:#e0caa7;}.cls-6{fill:#ece0bd;}.cls-7{fill:#dbc4a3;}.cls-8{fill:#e3ceae;}.cls-9{fill:#fefad3;}.cls-10{fill:#f0e2b9;}.cls-11{fill:#4f340a;}.cls-12{fill:#d8a470;}.cls-13{fill:#69360e;}</style></defs><g id="Layer_2" data-name="Layer 2"><g id="Layer_1-2" data-name="Layer 1"><path class="cls-1" d="M2.19,11.42c2-2.06,1.28-4.78,1.22-7.07C3.23-2,7.77.66,10.67.14c3.63-.66,4.57,1.07,4.43,4.45-.12,3-.2,5.89,2.63,8.46,1.29,1.17.52,4.72.51,7.2,0,4-.17,7.94-.26,11.91-1.07.13-1.5-.61-1.89-1.4-.82-4.1-.4-8.26-.37-12.39,0-3.37-1.17-4.91-4.65-4.75a24.72,24.72,0,0,1-7.43-.34C2.84,12.91,2.1,12.48,2.19,11.42Z"/><path class="cls-2" d="M15.27,34.46a48.71,48.71,0,0,0-.15,5.91c.32,3.58-.91,5-4.71,4.8-7.69-.44-7.78,1.77-7.11-9.93a2.2,2.2,0,0,1,1.86-.76c2.78.18,5.75,1.45,8-1.35C14.48,32.66,15.52,32.57,15.27,34.46Z"/><path class="cls-3" d="M15.27,34.46c-.5-1.05-1.17-1.33-2.1-.46-2.47,2.29-5.53.73-8.28,1.25H3.3c-2.73-2-3.54-4.68-3.24-8.08.33-3.73.09-7.52.05-11.28C.09,14,0,12.2,2.19,11.42l1,.89a2.8,2.8,0,0,1,.48,1.48c-.3,4.46-.06,8.93-.15,13.39-.05,2.49,1,3.67,3.53,3.6,2.81-.08,5.62.1,8.43-.16A2.8,2.8,0,0,1,17,31.1l1,1.06C17.58,33.53,16.31,33.85,15.27,34.46Z"/><path class="cls-4" d="M17,31.1a2.5,2.5,0,0,1-.64.3,3,3,0,0,1-2-1.47c-1.12-3-.65-6.22-.59-9.32.06-3.62-1.43-5.16-5-5-1.93.09-4,.32-5.66-1.16a1.15,1.15,0,0,1,0-1.54,1.57,1.57,0,0,1,.15-.61C17,12.15,17,12.15,17.06,26.12,17.06,27.78,17,29.44,17,31.1Z"/><path class="cls-5" d="M5.2,10.13C8,9,10.78,8.72,14.88,10.21,10.8,11.49,8,11.4,5.2,10.13Z"/><path class="cls-6" d="M13.05,6.3c-2.59,1.29-5.19,1.43-8.8.3C7.82,4.69,10.44,5.53,13.05,6.3Z"/><path class="cls-7" d="M4.89,35.25c2.45-2.45,5.57-.53,8.28-1.25.72.78.56,1.73-.38,1.78C10.16,35.92,7.43,36.73,4.89,35.25Z"/><path class="cls-8" d="M5.48,42.38c2.49-1.31,5-1.28,8.76-.26A11,11,0,0,1,5.48,42.38Z"/><path class="cls-9" d="M5.47,38.5c2.52-.86,5-1.19,7.39.15C10.34,39.47,7.86,39.73,5.47,38.5Z"/><path class="cls-10" d="M15.28,30.26l1.08,1.14c-4,1.81-8.15.37-12.21.83a1.61,1.61,0,0,1-2-1.69c.5-5.86-1.23-11.85.93-17.62l.16,1.46c2.3,2.91,1.15,6.32,1.28,9.51.23,5.62.26,5.78,5.89,5.87A17.73,17.73,0,0,1,15.28,30.26Z"/><path class="cls-11" d="M15.28,30.26c-3.36,1.94-7,.5-10.5.8-1.91.17-1.64-1.64-1.64-2.9,0-4.6.06-9.19.1-13.78,11.83-.74,11.82-.74,11.86,10.93C15.11,27,15.22,28.61,15.28,30.26Z"/><path class="cls-12" d="M14.13,22.73a41.44,41.44,0,0,0,0,4.46c.26,2.42-1,2.87-2.95,2.49a1.79,1.79,0,0,1-.89-.32c-1.78-1.84-5,2.5-5.69-.74-.82-3.78-.26-7.88-.22-11.84a1.5,1.5,0,0,1,2.08-1.45,8.85,8.85,0,0,0,5.55,0c1.3-.45,2.12.48,2.1,1.94C14.13,19.1,14.14,20.92,14.13,22.73Z"/><path class="cls-13" d="M7.64,18.62c1.42,1.8,2.48,3.79,4.28,5.21C8.53,23.73,8,21.19,7.64,18.62Z"/></g></g></svg>