<svg xmlns="http://www.w3.org/2000/svg" viewBox="0 0 63.37 14.66"><defs><style>.cls-1{fill:#553925;}.cls-2{fill:#866549;}.cls-3{fill:#a17c80;}.cls-4{fill:#a1777b;}.cls-5{fill:#ede1c6;}.cls-6{fill:#9f7d7c;}.cls-7{fill:#ddb282;}.cls-8{fill:#ab8782;}.cls-9{fill:#fbf5e4;}.cls-10{fill:#a58583;}</style></defs><g id="Layer_2" data-name="Layer 2"><g id="Layer_1-2" data-name="Layer 1"><path class="cls-1" d="M40.9,1.31c6.2-1.88,12.24,1.61,18.42.57,2.89-.48,4.41.54,4,3.77a25,25,0,0,0,0,5c.13,1.92-.59,2.58-2.53,2.66-8.45.37-16.88,1-25.32,1.33-10.88.45-21.63-2.37-32.54-1.34C.71,13.48-.22,12.56,0,10.41a12.51,12.51,0,0,0,0-1.5C0,1.91,0,2,7.13,1.87c5.09-.12,10.23.77,15.28-.61,1.49-1,1.92-.06,2.21,1.18,0,.66-.25,1.3-.31,2-.65,7.07,0,7.81,6.94,7.77,2.11,0,4.26.36,7-.6-.06,0-1.06-.64-.73-.06.13.2,0,.31-.27.37-2.63.6-5.31.09-7.95.32-3.6.32-5.17-1.19-5.18-4.84s2-4.56,5.08-4.59a30.68,30.68,0,0,1,7.42.44A2.72,2.72,0,0,1,38,3.76c-.16-.59-.75-.55-1.16-.79a1.37,1.37,0,0,1-.79-1.62A4.39,4.39,0,0,1,40.9,1.31Z"/><path class="cls-2" d="M40.9,1.31c-1.58.08-3.25-.46-4.66.71-3.66,2.23-7.55,1-11.38.76l-.68-.61c-.28-.9-1.07-.82-1.77-.91A34,34,0,0,1,40.9,1.31Z"/><path class="cls-3" d="M12.44,3.28a26.77,26.77,0,0,0,4.48,0c4.64-.77,5.64,1.41,5.35,5.58-.17,2.5-1,3-3.24,3q-7-.11-13.92.19c-3.23.13-3.89-1.56-3.85-4.33S1.6,3,5,3.24C7.46,3.39,10,3.27,12.44,3.28Z"/><path class="cls-4" d="M49.41,7.32c-.53-2.78.26-4.15,3.28-4.15,3.25,0,4.59,1.55,4.55,4.54,0,2.47-1.2,4.22-3.9,4.17C50.36,11.83,48.6,10.53,49.41,7.32Z"/><path class="cls-5" d="M38.19,4c-3.15-.06-6.33.09-9.45-.24s-3.77,1-3.9,3.93c-.16,3.47,1.5,4.1,4.14,3.54,3.34-.7,7.49,2.13,10.11-2.45.75,2.8.75,4.78-2.9,4.41-1.15-.11-2.33,0-3.49,0-10.24,0-10.6-.45-8.52-11l.07.43c3.78.22,7.55,0,11.33.12C36.56,2.76,38,2.14,38.19,4Z"/><path class="cls-6" d="M32.24,10.06c-1.71,0-2.87,0-4,0s-1.9-.62-1.86-1.84-.44-2.71,1.18-2.81a36.24,36.24,0,0,1,8.84.24c1.21.22-1.6,2.48.34,3.56C35.35,11.2,33.28,9.36,32.24,10.06Z"/><path class="cls-7" d="M45.08,6.89c0-.82,0-1.65,0-2.47,0-1,0-2.16,1.31-2.22,1.64-.07,1.67,1.24,1.67,2.43,0,1.82.06,3.64,0,5.45-.07,1.18.53,3.05-1.58,2.92s-1.14-2-1.32-3.14A19.61,19.61,0,0,1,45.08,6.89Z"/><path class="cls-8" d="M61.43,8c-.76,1.12,1.63,3.8-1.6,3.56S59.27,9.16,59,7.92c-.15-.63,0-1.32-.14-2-.19-1-1.29-2.34.8-2.54s2,1.15,1.81,2.61A14.65,14.65,0,0,0,61.43,8Z"/><path class="cls-9" d="M38.19,4c-4.47-2.24-9.4.17-13.94-1.4l12-.58c2.2-.18,3.46.55,2.8,3-.26,1-.53.24-.67-.08A4.84,4.84,0,0,1,38.19,4Z"/><path class="cls-10" d="M42.23,3.69c1.33,2.58,1.42,5.18.28,8.63C40.44,9,41,6.36,42.23,3.69Z"/></g></g></svg>