<svg xmlns="http://www.w3.org/2000/svg" viewBox="0 0 60.87 22.6"><defs><style>.cls-1{fill:#594c3b;}.cls-2{fill:#90b7c9;}.cls-3{fill:#f9f5df;}.cls-4{fill:#e2f2e0;}.cls-5{fill:#e4eedc;}</style></defs><g id="Layer_2" data-name="Layer 2"><g id="Layer_1-2" data-name="Layer 1"><path class="cls-1" d="M40.29,22.6C28.19,22.11,16.12,20.66,4,21.19,1.43,21.3.16,20.05.09,17.75-.06,13.28-.16,8.8,1,4.41c.8-3,2.36-3.88,5.47-2.67a58,58,0,0,0,9.61,2.52c2.67.54,5.3.37,7.25-2C25.47-.45,28.12-.49,30.92.93,39.64,5.34,48.35,9.77,57.81,12.4c2.65.74,3.1,2.68,3.06,5,0,2.76-1.92,3.6-4.21,4A87.09,87.09,0,0,1,40.29,22.6Z"/><path class="cls-2" d="M3.57,3c4,1,7.89,2.13,11.88,3,3,.66,5.9.47,8.39-1.86,1.76-1.64,3.84-4.84,5.63.08,2.71-2.6,3.6,2.69,6,1.38,1.16,3.6,5.73.67,7.38,4-2.42,1.22-4.92.81-7.33.75-3.53-.09-6.79-.37-9.09,3.48-1.42,2.37-12.59.38-13.94-2.22C10.48,7.65,7,5.61,3,4,3.2,3.68,3.38,3.31,3.57,3Z"/><path class="cls-3" d="M40.36,20.69c-12.49-.22-23.73-1.88-35.07-1.32-1.65.08-3.59.33-3.46-2.25.15-2.91,2.5-1.67,3.78-1.61C14.74,16,23.86,16.75,33,17.23a151.35,151.35,0,0,0,22.42-.73c1-.1,3-2.22,3.48.59.43,2.55-1.78,2.27-3.31,2.62C50.16,20.94,44.65,20.54,40.36,20.69Z"/><path class="cls-4" d="M56.82,14.22C48,16.07,39.14,15.49,30.36,15.36c-.75,0-1.8.25-2-.85-.21-.94.57-1.5,1.26-1.93a6.58,6.58,0,0,1,4.82-.69,18.15,18.15,0,0,0,6.93,0C48.09,10.52,49.55,10.73,56.82,14.22Z"/><path class="cls-5" d="M6.75,13.64c-2.59-.11-5.68.66-4.81-3.5C2.22,8.79.85,6.58,3.53,6.28c2.05-.24,7.53,4.14,7.26,6C10.36,15.2,7.86,12.87,6.75,13.64Z"/></g></g></svg>