<svg xmlns="http://www.w3.org/2000/svg" viewBox="0 0 26.76 59.57"><defs><style>.cls-1{fill:#56442e;}.cls-2{fill:#634931;}.cls-3{fill:#616153;}.cls-4{fill:#8dadbc;}.cls-5{fill:#8cb9cd;}.cls-6{fill:#7d755f;}.cls-7{fill:#fef1da;}.cls-8{fill:#a9b2b2;}.cls-9{fill:#feefd0;}</style></defs><g id="Layer_2" data-name="Layer 2"><g id="Layer_1-2" data-name="Layer 1"><path class="cls-1" d="M1.9,6.59C1.18,1,3.77-.49,9,.13a82.77,82.77,0,0,0,12.4,0C23.9.07,24.55,1,25,3.53c2.83,17.34,1.27,34.79,1.78,52.18.09,3.18-1.18,4.17-4.1,3.78a16.51,16.51,0,0,0-2,0c-6.61,0-6.61,0-6.3-6.94.4-2.78.07-5.58.2-8.36.06-1.06-.39-2.41,1.27-2.74,2.6,2.16,1.48,5.2,1.8,7.88.25,2,.65,3.64,3.16,3.53,2.29-.1,2.62-1.76,2.62-3.48,0-10.92.39-21.85-.22-32.76A8.84,8.84,0,0,0,20.3,10a1.49,1.49,0,0,0-2.49.24c-1.17,1.25-1.92.63-2.59-.59-.56,1.6,1.6,2.11,1.4,3.54a34.93,34.93,0,0,0-1.12,7.41c0,.33,0,.65,0,1-.16,1.56,0,3.94-1.78,4-2.27,0-1.81-2.48-2.06-4.12,0-3.8.09-7.62,0-11.43-.05-1.49.49-3.75-2.44-3-1.89,1.93-3.44,4.41-6.71,4C1,9.63,1.51,8.11,1.9,6.59Z"/><path class="cls-2" d="M12.9,20.48l.39,4.14.55,0c.1-1.7.21-3.41.31-5.12,1.9.34,2.24,1.91,2.37,3.37.44,5.3.34,10.62.72,15.92a2.73,2.73,0,0,1-1.6,2.86c-1.59,3.5.51,7.43-1.28,10.91V37.22H13.17c-.29,6.41-.75,12.83-.75,19.25,0,1.52.3,2.8-1.4,2.91a67.88,67.88,0,0,1-9.46-.06C.13,59.2,0,57.83.32,56.56s.48-2.44,1.73-3.1a6.68,6.68,0,0,1,3.72-.75c3.88.21,3.6-2.63,3.66-5.1.19-8.31-.28-16.62.26-24.93a5.32,5.32,0,0,1,.51-1.5,2.36,2.36,0,0,1,1.19-1A2,2,0,0,1,12.9,20.48Z"/><path class="cls-3" d="M2.22,54.54l-1.9,2C.15,41.51-.59,26.44,1,11.41c.17-1.62.6-3.22.91-4.82.43,1.32-.24,2.91,1,4,3.61.73,3.48,2.72,1.78,5.25-1.53,1.66-1.07,3.74-1.09,5.67q-.08,13.41,0,26.8A11.06,11.06,0,0,1,2.22,54.54Z"/><path class="cls-4" d="M15.64,41.63c-.44-7.39-.09-14.82-1.49-22.15-.06-2.5,0-5,2.16-6.77.26-.71-.11-1.57.52-2.2.4-1.81-.53-3.9.73-5.5,7.91,4.79,7.62,12.34,7.53,19.9-.1,8.63-.25,17.28.1,25.9.19,4.44-2.58,3.61-5.06,3.82s-4.52,0-4.24-3.56A87.73,87.73,0,0,0,15.64,41.63Z"/><path class="cls-5" d="M4,14.62c2.53-2.18-.25-2.81-1.16-4,1.92-1.45,4.61-2.14,5-5.07,2.89.07,2,2.36,2.12,3.85.41,3.86-.62,7.86,1.23,11.57L11,49.25C10.94,55,10.94,55,4.78,54.12a11,11,0,0,1-1.26-5.74c0-10.29.1-20.58-.13-30.87A5.49,5.49,0,0,1,4,14.62Z"/><path class="cls-4" d="M11.26,21c-2.63-.84-2.42-2.91-2.55-5.13-.2-3.43,1.22-7-.8-10.29C11.85,3.62,13.2,5.1,13,9.19c-.19,3.75-.07,7.52-.09,11.28l-.4.2h-.45c-1.27-3.89.11-8-.85-11.91-.26-.64-.66.45-.12.06.86,4,.54,8.05.14,12.08Z"/><path class="cls-6" d="M16.83,10.51a2.11,2.11,0,0,1-.52,2.2c-4.5-1.32-1.57-4.74-2.53-7.58C17.15,6.16,15.19,9.25,16.83,10.51Z"/><path class="cls-7" d="M16.41,57.26c2.93-.95,5.59-1.51,8.27,0Z"/><path class="cls-8" d="M4,14.62C5.85,24.28,4.72,34,5,43.74c.09,3.46-.13,6.92-.21,10.38l-2.56.42c0-12-.08-24.06,0-36.1C2.22,17.07,1.36,14.89,4,14.62Z"/><path class="cls-5" d="M11.22,20.9V6.31l.83-.08V20.67A1.53,1.53,0,0,1,11.22,20.9Z"/><path class="cls-9" d="M10.45,57.36h-8C5.17,55.57,7.92,56.58,10.45,57.36Z"/></g></g></svg>