<svg xmlns="http://www.w3.org/2000/svg" viewBox="0 0 58.47 39.73"><defs><style>.cls-1{fill:#4f3b1f;}.cls-2{fill:#d3efd6;}.cls-3{fill:#92b8c9;}.cls-4{fill:#8b9ea0;}.cls-5{fill:#e0cbae;}.cls-6{fill:#e5d2b1;}.cls-7{fill:#98bdcf;}.cls-8{fill:#6e5b40;}.cls-9{fill:#848986;}.cls-10{fill:#e9dcc1;}.cls-11{fill:#ebd6b8;}.cls-12{fill:#f8ebd1;}.cls-13{fill:#e3c4a6;}.cls-14{fill:#e4c8aa;}.cls-15{fill:#d0b58b;}</style></defs><g id="Layer_2" data-name="Layer 2"><g id="Layer_1-2" data-name="Layer 1"><path class="cls-1" d="M47.22,38.87c-6.45,2.32-13.89-.95-21.23.19a64.74,64.74,0,0,1-16.22,0C6,38.71,2.1,39,.64,34.7-.88,30.21.37,25.32,3.75,22.83S7.57,17.51,7.55,14c0-8.28,0-8.29,8.19-8.71.94,0,2.46,0,2.71-.54C22.32-2.92,29.29,1.19,34.91.41a4.09,4.09,0,0,1,3.37,1.8c1.57,3.51,4.4,3.14,7.34,3.1C49.34,5.27,51,7.25,51,11c0,4.62-.87,9.06,4.31,12.62,3.11,2.13,4.1,7.34,2.35,11.54S51.93,39.15,47.22,38.87Z"/><path class="cls-2" d="M19.7,21.47c-5.51-.47-6.1.35-4.52,6.56-4.4.6-6.54-.93-6.31-5.58.2-3.82.06-7.66.08-11.49,0-2.84,1.33-4.27,4.27-4.26q16,.08,32,0c3,0,4.24,1.47,4.26,4.26,0,3.83-.16,7.67.11,11.48.32,4.57-2,5.85-6,5.74-.91-1.34.38-2.22.44-3.31.14-2.54-1.13-3.85-3.49-3.83-2.57,0-4.45,1.48-3.43,4.12,1.42,3.66-.31,4-3.14,3.87-4.44-.23-8.94.65-13.34-.63C19.11,26.26,21.14,23.63,19.7,21.47Z"/><path class="cls-3" d="M20.54,32.27c.26-2.17,1.91-1.85,3.36-1.85,3.3,0,6.6.09,9.9,0,2.31-.05,4.08-.14,4.08,3.21s-1.26,3.86-4.11,3.71c-4.28-.22-8.58-.09-12.87-.12C19.24,35.7,20.22,34,20.54,32.27Z"/><path class="cls-4" d="M42.91,34.05c-.37-3,.46-4.48,3-4.67s2.31,1.69,2.22,3.32c-.12,2.11.13,4.55-3.06,4.65S43.24,34.92,42.91,34.05Z"/><path class="cls-5" d="M53.21,24.32c2.74,2.91,4.61,6.32,2.92,10.34-1.21,2.88-4,3-7,2.35,1.23-2.55,5.62-1.34,5.63-5.08C54.73,29.25,53.14,27.06,53.21,24.32Z"/><path class="cls-6" d="M5.84,23.86c-1.12,5-6,10.9,3.71,12.12C5.94,37.79,4,37.41,2.48,34.92.67,32,1.94,27.3,5.84,23.86Z"/><path class="cls-7" d="M15,34.11c-.28,1.11,1.08,3.39-1.91,3.17s-2.67-2.45-2.48-4.36c.12-1.27-1.2-3.65,1.87-3.37C15.37,29.82,15.19,31.88,15,34.11Z"/><path class="cls-8" d="M19.7,21.47c4,1.82.86,4.6.92,6.94-1.27,1.08-.72,2.56-.84,3.88l-.07.07c-2.46-1.26-2.21-3.87-3-6,1.11-1.1,1.16-2.69,1.89-4Z"/><path class="cls-9" d="M22.73,3.44c2.7-3.06,10-3.06,13,0L35.1,4A40.73,40.73,0,0,1,23.38,4Z"/><path class="cls-10" d="M7.36,26.51C9,27.58,9.07,29.22,8.84,30.82c-.16,1.07.79,3-1.44,2.88-2-.14-2.76-1.51-2-3.47C5.91,28.92,5.89,27.32,7.36,26.51Z"/><path class="cls-11" d="M35.76,3.45c.6.11,1.53,0,1.75.39.62,1-.06,1.5-1,1.51q-7.22,0-14.44,0c-.95,0-1.71-.48-1.06-1.5.23-.36,1.16-.28,1.77-.4l-.05-.09a36.67,36.67,0,0,0,13.13,0Z"/><path class="cls-12" d="M51.44,26.38c.7,2.23,2.8,4.3.86,6.75-.43.55-2.34.58-2.5-.48C49.47,30.48,48.24,27.85,51.44,26.38Z"/><path class="cls-13" d="M42.58,24.16c-.32,1.33-.8,2.29-2.22,2.32-1.26,0-1.7-.83-1.8-1.85-.15-1.43.7-2.1,2-2.1A2,2,0,0,1,42.58,24.16Z"/><path class="cls-8" d="M20.54,32.27l.36,5c-1.15-.13-2.55,1.25-3.44-.62-1.2-2.48,2.75-2.18,2.25-4.26l.07-.06Z"/><path class="cls-14" d="M18.62,22.42c2.08,2.61,1.47,3.94-1.89,4C15.11,24,15.78,22.69,18.62,22.42Z"/><path class="cls-15" d="M40.67,28.22c1.32.33,1,1.46,1,2.36s-.18,1.79-1.21,1.7c-1.6-.14-1.38-1.5-1.36-2.61A1.34,1.34,0,0,1,40.67,28.22Z"/><path class="cls-1" d="M35.81,3.36a20,20,0,0,1-13.13,0Z"/></g></g></svg>