<svg xmlns="http://www.w3.org/2000/svg" viewBox="0 0 35.37 59.42"><defs><style>.cls-1{fill:#633e1b;}.cls-2{fill:#603d24;}.cls-3{fill:#97744b;}.cls-4{fill:#dd9f7b;}.cls-5{fill:#e19e79;}.cls-6{fill:#b6906d;}.cls-7{fill:#d5a686;}.cls-8{fill:#b69e7e;}.cls-9{fill:#b39878;}.cls-10{fill:#de9e79;}</style></defs><g id="Layer_2" data-name="Layer 2"><g id="Layer_1-2" data-name="Layer 1"><path class="cls-1" d="M5.22,3c0,3.82-.13,7.64-.14,11.46,0,1,0,2.54.46,2.78,2.49,1.21,5.52.4,8,2,2.27,1.43,4.46,3.24,7.26.56A6.44,6.44,0,0,1,25.89,18c4,.49,4.73-1.34,4.4-4.85s-.3-7-1.08-10.39C29,1.6,28.73.38,30.47.14,31.81,0,32.85.43,33.08,1.8c.44,2.61.8,5.25,1.06,7.89.33,3.41.15,6.78,1,10.25,1.11,4.54-1.94,8.68-3.94,12.44-1.11,2.1-5.22.91-8,.54.35-2.76,2.49-1.63,3.82-1.93-.8-.21-1.89-.39-2.2-1.64a5.18,5.18,0,0,1,.45-1.89c.42-1.16,1.61-2.42.17-3.53-1-.75-2.22-.3-3.29.16-1.68.73-1.28,2-.84,3.32a1.93,1.93,0,0,1-.21,1.86c-2.26.91-3.69-.5-5.16-1.82-.39-.52-.6-1.15-.95-1.69-1.21-1.89-3.19-2.87-5-1.71-2,1.28.09,2.81.71,4.14a4.68,4.68,0,0,1,.75,2.28c-2.31,1.79-4.34.58-6.38-.57,0-1.19,1.16-2.5-.23-3.3.22.57.85,1.34.39,2.31-.56,2.52,1.59,1.61,2.65,2.18,1.36.73,3.7-.82,4.22,1.8-7.75.93-13-3.51-12-11.87C.79,15.33.57,9.59,1.62,4a10.36,10.36,0,0,1,.75-2.87,2.09,2.09,0,0,1,3-.74c1.38.8.82,1.88-.19,2.74-2.8,1.72-1.62,4.84-2.47,7.24-.52,1.48,0,3.24-.2,4.87,0,.67,1.12-.2.49,0-.16,0-.23-.05-.27-.3-.64-4,.76-7.81,1.24-11.7C4.06,2.78,4.74,2.7,5.22,3Z"/><path class="cls-2" d="M1.76,39.39c6.08,7.94,14,8.53,22.58,6.59a12.35,12.35,0,0,0,7.07-4.3c.61-.74,1-2.62,2.45-1.46a2.4,2.4,0,0,1,.49,3.53c-1.14,1.4-2.12,3.38-3.61,4-4.67,1.82-7.22,5.61-9.92,9.34-2.23,3.08-4.2,3.25-6.46-.07-2.59-3.82-5.46-7.24-9.9-9.38C1.72,46.28-1,43.7,1.76,39.39Z"/><path class="cls-3" d="M25.2,29.09c1.53,2,3.65.2,5.72.91-1.57,3.93-5.81.56-7.74,2.92-3.69-1.73-7.38-2-11.08,0-1.53-1.58-3.5-.45-5.21-.86s-3.63-.69-1.71-3.09l0,0A6.15,6.15,0,0,0,11,30.18,6.29,6.29,0,0,1,16.11,27c2.23-.57,3.23,2.26,5.37,1.95A2.41,2.41,0,0,1,25.2,29.09Z"/><path class="cls-4" d="M16.11,27A6.44,6.44,0,0,1,11,30.18a8.16,8.16,0,0,1-1.48-1.25C8.11,27,5.61,24.41,7.62,22.64c2.17-1.91,5.67-.44,8.32.83C17.57,24.25,15.86,25.82,16.11,27Z"/><path class="cls-5" d="M25.2,29.09,21.48,29c-.63-1.87-4.41-2.84-2.48-5.09,1.78-2.08,5.06-2,7.87-1.78,1.83.12,1.38,1.58,1.18,2.59A6.63,6.63,0,0,1,25.2,29.09Z"/><path class="cls-6" d="M5.22,3C3.2,7.57,3.15,12.44,3,17.32c-1.44-5-.73-9.95.66-14.83.16-.59,1.11.12,1.56.6Z"/><path class="cls-7" d="M5.18,28.94c-.92-1.33-1.94-2.6-2.76-4s-.2-2.25,1.23-2.54A1.31,1.31,0,0,1,5.2,24.2c-1.1,1.68,4.36,3.28,0,4.71Z"/><path class="cls-8" d="M22,21.09c2.81-1.91,4.29-2.52,6.46-1.28C26.64,21.56,24.87,20.71,22,21.09Z"/><path class="cls-9" d="M6.6,19.86c2.51-1.22,4.12-.89,5.75,1C10.42,20.89,8.67,21.42,6.6,19.86Z"/><path class="cls-10" d="M9.41,47.78a70.61,70.61,0,0,0,16.44,0c-2.73,3.59-4.8,6.32-6.89,9-1.27,1.65-2.14.78-3.05-.46C14.05,53.8,12.12,51.33,9.41,47.78Z"/></g></g></svg>