<svg xmlns="http://www.w3.org/2000/svg" viewBox="0 0 56.35 52"><defs><style>.cls-1{fill:#5c4525;}.cls-2{fill:#6e5535;}.cls-3{fill:#5a452b;}.cls-4{fill:#7b6844;}.cls-5{fill:#dac59f;}.cls-6{fill:#d3c09b;}.cls-7{fill:#d7c39d;}.cls-8{fill:#dec8a4;}.cls-9{fill:#705b31;}.cls-10{fill:#533918;}.cls-11{fill:#79623a;}.cls-12{fill:#6e572d;}.cls-13{fill:#553c17;}</style></defs><g id="Layer_2" data-name="Layer 2"><g id="Layer_1-2" data-name="Layer 1"><path class="cls-1" d="M29.77,26.51c.17-2.2-1.63-3.52-2.43-5.29s-2-3.67.23-5.27,3.25.56,4.52,1.69a4.53,4.53,0,0,0,2.57,1.66c0-4.3.05-8.61,0-12.92-.07-5.48.68-3.32,4.88-4.85,3.58-1.31,5,.07,7.57.19,3.26.16,4,.93,4.32,3.52.09.69-.64,2,.7,1.9,5.7-.59,4.17,3.05,3.63,6.06-1,5.71-2.13,11.41-3.2,17.12-1.39.16-1.66-.9-2-1.85-.73-5.23,1.9-9.95,2.34-15-.41,1.5-.47,4.09-2.69,3-2.8-1.33-1.84-4.42-1.7-6.77-.9,1.89.47,6-2.83,5.76s-2.13-4.21-2.39-6.69a19.8,19.8,0,0,1,.07-3.94c-.34,3.21.09,5.73-.44,8.19-.27,1.3-.62,2.78-2.4,2.63-1.42-.12-1.7-1.41-2-2.54-.5-1.76,0-3.69-.76-5.17.87,3.25.39,6.78.37,10.29,0,2-.09,4.22-2.31,5.12S32.53,22.18,31,21.19c2.61,5,6.49,9.4,7.1,15.29a3.08,3.08,0,0,0,.56,1.81c3.27,1.32,6.65.47,10,.58a1.81,1.81,0,0,0,1.2-1.07c.12-.37.25-.73.38-1.09.56-.93.48-2.52,2.23-2.26a27.35,27.35,0,0,0,.26,4c.62,2.93-.89,3.37-3.28,3.23a28.94,28.94,0,0,0-6,0c-5.33.76-8.93.07-8.84-6.77.05-3.26-2.08-6.39-5-8.5Z"/><path class="cls-2" d="M3.9,44.42C3.53,36.92,1.27,29.74.21,22.36c-.41-2.9-.59-5.24,3-5.2,2.21,0,1.41-1.32,1.52-2.25.47-4,4.86-2,5.31-2.76,1.9-3.1,3.26-4.35,5.51-.7.69,1.11.67.86,1.48.24,3.44-2.59,4.55-.33,4.54,2.64,0,4.8-.45,9.6-.71,14.39-2.84-2.33-.93-5.87-2.19-8.59-.23-.23-.3-.93-.33-.81-.6,2.25.49,6.19-2.58,6.14-3.45-.05-2.24-4-2.63-6.46a12.25,12.25,0,0,0-.27-1.47A13.41,13.41,0,0,1,13,22.42c-.22,1.47-.41,3.24-2.35,3.28-1.77,0-2.47-1.46-2.82-3a16.4,16.4,0,0,1-.15-3.31c-.15,1.7.45,3.63-.06,5.42-.57,2-1.81,2.83-3.55.9-.39-.43-.31-1.09-.63-1.57.21.64.14,1.33.37,1.95,1.83,5,1.89,10.37,3,15.53.38,1.75.4,3.68-1.46,4.91C3.73,46.64,4.47,45.08,3.9,44.42Z"/><path class="cls-3" d="M19.9,19.4c1.63,3,.1,6.28,1,9.32,1.33,3,2.12.19,2.72-.41,1.77-1.78,3.26-4,6.15-1.8l-.11-.11c.88,2.28-.28,4-1.27,6C25.45,38.13,20,42.82,20.9,50.22c.2,1.62-1.3,1.7-2.44,1.73q-4,.09-7.92,0C2.86,51.8,3,53.36,3.9,44.42c.31.73.63,1.45.95,2.18a4.35,4.35,0,0,1,.83.83,3.71,3.71,0,0,0,1.2,1.29c3.65.23,7.3.84,10.86-.43a3.61,3.61,0,0,0,.51-1.81c.61-5.72,4.53-9.86,7.06-14.86-1.76.76-3.1,3.05-5.16,2-2.31-1.18-1.93-3.73-1.82-5.8C18.48,25,17.22,21.8,19.9,19.4Z"/><path class="cls-4" d="M52.47,34.45l-1.7,3c-2.28-3.28-2.86-6.43.72-9.25.35.71.7,1.43,1.06,2.15Z"/><path class="cls-5" d="M51.49,28.17c-1.57,3-.44,6.17-.72,9.25l0,0c-4.68,2.05-9.32,2.42-13.89-.29-.23-6.24-4.86-10.38-7.38-15.53-.61-1.25-2.5-2.76-1.24-3.83,1.89-1.59,2.54,1.16,3.75,2s1.88,3.4,3.71,2.66.93-2.95,1-4.52c.09-5.15,0-10.3.46-15.48C40,6.2,38.78,10.89,40.43,15.74,43,10.57,40.58,5.32,43.3,0c2.21,5.43.49,10.5,2,16.1,2.84-4.3.95-9.1,4.06-12.58V16.57c3.77-2.09,1.25-6.28,4.84-8.3C54.85,15.39,51.84,21.64,51.49,28.17Z"/><path class="cls-4" d="M36.84,37.15l13.89.29c.12,1,1.72,2-.19,2.85-4.51-1.1-9.14.15-13.66-.7Z"/><path class="cls-6" d="M36.88,39.59c4.57,0,9.2-1.31,13.66.7C46,39.86,41.37,41.16,36.88,39.59Z"/><path class="cls-7" d="M4.85,47V46.6c2-6.09-1.23-11.72-1.59-17.6-.21-3.37-2.17-6.58-1-10.52,2.95,2.05,1.08,5.94,4,8.21,1.61-4.48-.31-9,1.22-14,2.5,4.47.67,9.09,3.21,13.63,2-5.41.28-10.35,3-14.76l1.32,13.51c2.89-3.82,1.49-8.56,3.93-13.08,1.67,2.71.45,5.22,1,7.39-.07,3.65-.17,7.3-.17,10.94,0,.76.16,1.86.66,2.21,1,.74,1.68-.46,2.47-1,1.78-1.21,3-5.23,4.92-3.61s-1.45,4.12-2.43,6.25c-2,4.29-6,7.66-5.79,12.94C16.6,49.59,8.72,49.54,4.85,47Z"/><path class="cls-2" d="M4.85,47a39.13,39.13,0,0,0,14.71.1c0,.83,0,1.66-.07,2.49a99.93,99.93,0,0,1-14.58,0Z"/><path class="cls-8" d="M4.91,49.65a80.69,80.69,0,0,1,14.58,0A30.22,30.22,0,0,1,4.91,49.65Z"/><path class="cls-9" d="M41.07,17.65c.85,4,2,7.86.38,12.19l-1.73-12Z"/><path class="cls-1" d="M49.79,17.92A27.79,27.79,0,0,1,48,30.81,25,25,0,0,1,49.79,17.92Z"/><path class="cls-10" d="M45.29,29.52a25.47,25.47,0,0,1-.17-11.46C46.27,21.82,45.73,25.63,45.29,29.52Z"/><path class="cls-11" d="M15.82,27.9a22.32,22.32,0,0,1-1.77,11.59A20,20,0,0,1,15.82,27.9Z"/><path class="cls-12" d="M7.4,39.73,5.53,28.08,7,27.82A51,51,0,0,1,8.7,39.52Z"/><path class="cls-13" d="M10.7,39.4v-11C12.13,32.06,11.75,35.8,10.7,39.4Z"/></g></g></svg>