<svg xmlns="http://www.w3.org/2000/svg" viewBox="0 0 48.83 54.61"><defs><style>.cls-1{fill:#64462c;}.cls-2{fill:#644525;}.cls-3{fill:#5d4130;}.cls-4{fill:#a27b87;}.cls-5{fill:#e8ba84;}.cls-6{fill:#ad8290;}.cls-7{fill:#a27c87;}.cls-8{fill:#a2807b;}.cls-9{fill:#ac8a7e;}.cls-10{fill:#edbe8c;}</style></defs><g id="Layer_2" data-name="Layer 2"><g id="Layer_1-2" data-name="Layer 1"><path class="cls-1" d="M29.3,26.71c0-4.06-.11-7.83,0-11.58.11-2.44-.22-4.55,4.19-4,2.17.29,4.43-.32,7.14.61,1.94.68,3,.88,3.41,2.84.06.32-.06.91.06,1,8.11,3.1,3.46,9.3,2.46,13.55-1.7,7.21-2.85,14.32-2.36,21.66.22,3.23-1.1,3.9-4,3.82-10.74-.27-9.13,1.14-8.87-8.45.15-5.44-1.23-9.66-5.12-13.29a16.93,16.93,0,0,1-2.82-3.48c-.93-1.49-2.32-3.1-.43-4.87,2.11-2,3.2.17,4.57,1.17C28.05,26,28.62,26.31,29.3,26.71Z"/><path class="cls-2" d="M17.25,41.51c-.48,3.62-3.32,1.86-5,1.91-7.48.23-7.85.09-7.38-7.09C5.36,28.82,2.53,22,1.59,14.83,1.22,12-3.22,6.36,4.6,5.64c.16,0,.2-.88.35-1.34C6.11.67,10.57-.73,14.32.36,16.39,1,19.41-.93,19.66,3a78.62,78.62,0,0,1-.15,8c-.06,1.49-.24,3-.36,4.46a1.2,1.2,0,0,1-1.32.14c-1.59-1.84-1-4.09-1.27-6-.56,1.25-.48,3.49-2.74,3.28-2-.19-1.66-2.11-1.79-3.39-.23,1.55.68,4.09-1.88,4.33C7.79,14,8.2,11.59,8,10.08c-.47,4.38-.6,4.5-4,3.45C6.16,20.16,5.16,29.09,15.93,29a1.8,1.8,0,0,1,.53,1.24,13.38,13.38,0,0,0-.23,10.39A4.66,4.66,0,0,0,17.25,41.51Z"/><path class="cls-3" d="M15.86,30.87l.05-1.63c-1.5-4.86,3.85-6.29,4.93-9.85-3.2-1.78-3.2-1.78-3-3.91l1.3-.05a2.47,2.47,0,0,0,2.23-.67c1.45-1.28,3-3.12,5-.95,1.59,1.77.29,3.72-1,4.8-7.2,6.1-8.95,14-8.13,22.9l-1.31,0A14.58,14.58,0,0,1,15.86,30.87Z"/><path class="cls-4" d="M31.68,15.16c2.41,2.71.42,6.27,3.29,8.09,1.92-2.5,0-5.64,1.66-8.34,2.82,2.22-.09,6.07,2.46,8.52,1.84-2,.45-4.81,2.42-6.59,2.44,2.05-.76,5.15,1.31,7.24,1.76.45.93-2.47,2.79-2.13a3.21,3.21,0,0,1,.4,1.2c-.37,5.15-2,10-3.24,15-.5,2.05-8.33,3.42-9.32,1.45-1.78-3.51-5.1-5.67-7-9-.37-.67-1.34-1.16-.76-2.12A1.55,1.55,0,0,1,27.87,28c3.24,1.36,3.18-.9,3.28-3C31.3,22,30.57,18.87,31.68,15.16Z"/><path class="cls-5" d="M38.15,41.37c1.34,4.06,1,7.52.27,11.44C36.43,49.45,36.34,46,38.15,41.37Z"/><path class="cls-6" d="M34,52.05c-.84-3.34-1.27-6.66.28-9.92C35,45.47,35.42,48.8,34,52.05Z"/><path class="cls-7" d="M17.85,15.48c-.16,1.91,1,2.24,2.45,1.83,1.1-.32,2.23-1.2,3,.24s-.73,2-1.29,2.92c-1.9,3-5.47,4.86-6.08,8.77-9,.47-9.07.49-11.39-8.07-.94-3.44-1.38-7-2.16-11.1,2.59.64,1.76,3.23,3.51,3.69,2.42-2.1-.71-5.56,1.73-7.71,2.05,1.84.45,4.85,2.37,7,2.09-2.87.08-6.28,1.74-9.29,2.74,2.31.27,6,2.31,8.73,2.16-2.29.46-5.81,3.46-8C18.55,8.42,17.59,12,17.85,15.48Z"/><path class="cls-8" d="M8.5,36.29c-1.09,1.85,1.13,5.21-1,5.14C4.92,41.36,6.26,37.92,6.28,36c0-1.64-1.36-4.92,1.2-4.73C9.82,31.49,7.22,34.75,8.5,36.29Z"/><path class="cls-9" d="M15.86,30.87q0,5.29.08,10.6C13.15,39.2,13.1,33.29,15.86,30.87Z"/><path class="cls-10" d="M11.23,41.45C9.71,38,9.78,34.51,10.9,29.62,12.84,34.42,12.18,37.94,11.23,41.45Z"/></g></g></svg>