<svg xmlns="http://www.w3.org/2000/svg" viewBox="0 0 51.22 57.46"><defs><style>.cls-1{fill:#4e4029;}.cls-2{fill:#615139;}.cls-3{fill:#f7f6d6;}.cls-4{fill:#f8f5d6;}.cls-5{fill:#f8f2d9;}.cls-6{fill:#f7f4d9;}.cls-7{fill:#f9eddd;}.cls-8{fill:#e5d8c7;}.cls-9{fill:#ead9c9;}.cls-10{fill:#524830;}.cls-11{fill:#e4ddc5;}</style></defs><g id="Layer_2" data-name="Layer 2"><g id="Layer_1-2" data-name="Layer 1"><path class="cls-1" d="M8,51.52c-.86,2.28-1.41,4.56-4.89,4.1s-2.39-3.25-2.69-5A39.74,39.74,0,0,1,1.58,33.91C3.1,28,4.83,22.06,5.93,16c1-5.47,3.82-9.35,9-10.82C18.66,4.13,20.07-.34,25,0c9,.66,19.05,8.89,20.32,17.87.42.89,0,1.35-.82,1.61-1.26-.33-1.78-1.31-2.22-2.69a62.15,62.15,0,0,1,.26,10.06c-.28,1.53-.2,3.31-2.38,3.55C37.71,26.23,38.05,21.56,38,17c0-1.48.32-3,.24-4.46a4.16,4.16,0,0,0-2.49-4C34,7.82,33,9,31.76,9.81c-3.23,2.17-4.29,5.08-4.17,8.9.31,10,.15,19.9.13,29.86,0,2.3.26,4.66-.81,6.85-.93,1.3-1.78,1.1-2.58-.13-1.42-3.88-.72-7.9-.77-11.86-.11-8.31-.19-16.63,0-24.94a9.61,9.61,0,0,0-4-8.57c-3.26-2.52-6-1.57-6.6,2.63a67.53,67.53,0,0,0-.19,10c0,5.49.08,11-1.06,16.39a6.56,6.56,0,0,1-1.28,3.2c-2,.65-2.13-1-2.6-2.15-1-7.65.81-15.18,1-22.55C7.42,24,5.43,30.78,3.92,37.64c-.33,1.46-.64,2.92-.83,4.41-.27,2.15-.79,4.74,1.13,6.05S6.78,45.84,8.77,46C11,48.19,10.51,50,8,51.52Z"/><path class="cls-2" d="M44.38,19.21l1-1.32c3,11.32,7.57,22.41,5.23,34.54-.56,2.92-5,4.72-5.86,2.46-1.69-4.21-2.51-.63-3.8-.16a44.83,44.83,0,0,1-30.23.21A4.39,4.39,0,0,1,8,51.52c.71-1.72,2-3.42.27-5.27-2.16-2.67-2.48-5.17.64-7.37L10,42.21c1.74,1.26,1.73,3.2,1.68,5-.12,4.29,2.26,5.88,6.09,6.3,2.43.27,5.06-.3,7.2,1.45.42.76.86.82,1.31,0,1.81-1.57,4.05-1.24,6.18-1.45,5.87-.59,6.89-1.64,7-7.39a62.64,62.64,0,0,0-.47-10c-.29-2.1-.77-4.34,1.33-6,1.11-1.24.52-2.88,1-4.28,2.71,1,2.27,3.45,2.32,5.49a78,78,0,0,0,1,12.4c.3,1.58.36,3.26,2.1,4.73,1.41-4.09.94-7.81.2-11.47C46.12,33,45.11,29,44.1,24.94,43.62,23.07,43,21.05,44.38,19.21Z"/><path class="cls-3" d="M25,54.94c-1.29.1-2.6.33-3.89.3-10.39-.25-11-.84-11-11.06,0-.66-.08-1.31-.12-2,1-10.41,1.89-20.84,1.41-31.32C11.24,6.83,15,7.34,17,5.85,19.25,4.18,19.1,7,20,7.82s1.73,2.87,2.56,2.86c3.4-.06,2.37,2.18,2.38,3.88Q25,34.75,25,54.94Z"/><path class="cls-4" d="M40.35,30.21c.29,5.92.38,11.86,1,17.75.4,4.17-1.26,6.16-5.2,6.73-3.27.47-6.52,1-9.81.28,0-12,0-23.95.08-35.92,0-3.66-.14-6.62,3.38-10S35,5.78,38.21,7.81c1.41.88,1.77,1.65,1.62,3.51A98.62,98.62,0,0,0,40.35,30.21Z"/><path class="cls-5" d="M9,38.88a21.53,21.53,0,0,0-.64,7.37c-.4,1.09-.78,2.19-1.18,3.28-.59,1.58-1.91,1.58-3.29,1.57-1.95,0-2-1.44-2.08-2.76-.12-2.15-.54-4.41-.09-6.46C3.88,31.72,6.33,21.62,9.22,11.57,10.75,20.73,8.86,29.79,9,38.88Z"/><path class="cls-6" d="M44.38,19.21c1.4,8,4.47,15.65,5,23.82a22.34,22.34,0,0,1-.12,4.48c-.21,1.43.64,3.52-2.17,3.59-2.18,0-3-1.26-3.42-2.92-1.11-4.38-1.22-8.88-1.47-13.36-.18-3,.19-6-.85-8.89V11.74l.78-.21Q43.24,15.37,44.38,19.21Z"/><path class="cls-7" d="M22.23,1.92h6.15c0,2.08-1.11,3.8-2.5,4C23.83,6.17,23.31,3.9,22.23,1.92Z"/><path class="cls-8" d="M30.88,2.53c0,3.47-1,5.13-2.87,6.27-.12.07-.72-.29-.71-.43C27.43,6.12,29.23,5,30.88,2.53Z"/><path class="cls-9" d="M20,3.6c.75,0,1.24,0,1.26.1.53,1.79,3.07,2.49,2.6,4.78,0,.18-.63.45-.78.36C21.29,7.76,20.62,6,20,3.6Z"/><path class="cls-10" d="M32.8,16.23c2.69-.36,4.41,0,4.42,3.48,0,3.11-1.21,5-4,5s-4.44-1.4-4.37-4.72C28.86,17,29.73,15.63,32.8,16.23Z"/><path class="cls-11" d="M35.31,19.92c0,2.25-.85,3.39-2.65,3.12-1.65-.25-2.38-1.45-2.24-3.2s1-2.15,2.54-2.21C35.07,17.54,35.42,18.72,35.31,19.92Z"/></g></g></svg>