<svg xmlns="http://www.w3.org/2000/svg" viewBox="0 0 48.49 45.23"><defs><style>.cls-1{fill:#56402a;}.cls-2{fill:#684b29;}.cls-3{fill:#6f5e4d;}.cls-4{fill:#d4efd6;}.cls-5{fill:#d4efd9;}.cls-6{fill:#8fbace;}.cls-7{fill:#705a45;}.cls-8{fill:#e9dec5;}.cls-9{fill:#e5e2d7;}.cls-10{fill:#f5f1d4;}.cls-11{fill:#f5f3d5;}</style></defs><g id="Layer_2" data-name="Layer 2"><g id="Layer_1-2" data-name="Layer 1"><path class="cls-1" d="M4.68,7.57C5.78.08,5.78.09,13.28.09c8.48,0,17-.07,25.44,0,1.64,0,3.63-.73,4.33,2,3.19,12.56,6.49,25.05,5.13,38.26-.36,3.51-1.17,5-5,4.69-5.13-.37-10.3-.1-15.45-.13a1.82,1.82,0,0,1-1.94-1.22c-.26-1.05.31-1.27,1.19-1.18,4.42.45,8.85.07,12.6.2-4-.4-8.71.75-13.33-.7-.66-3,1.72-2.51,3.2-2.64,3.26-.28,6.54-.08,9.81-.11,1.8,0,3.65.22,5-1.34,2.18-7.13.44-14.09-.87-21-.51-2.76-1.65-5.38-2.15-8.16a29.1,29.1,0,0,0-.84-3c-.29-2-1.87-2.15-3.34-2.19-8.55-.27-17.09-.29-25.64,0-1.26,0-2.73.09-3.11,1.81a7.64,7.64,0,0,1-.71,2.23A3.2,3.2,0,0,1,5.83,9C4.94,9,4.31,8.66,4.68,7.57Z"/><path class="cls-2" d="M46.79,39.68c-3.65,2.22-7.64.71-11.46,1-2.76.25-5.54.15-8.31.22-.1,0-.25.21-.26.34a1.42,1.42,0,0,0,.12.47.58.58,0,0,1,.17.67c-.1.19-.19.29-.27.29l-1,1L24,40.85c-.46,3.8-2.71,4.35-5.63,4.22a72.83,72.83,0,0,0-11.91.06c-4.92.6-6.28-1.59-6.36-6C0,33-.16,26.9,1,20.84,2.54,20.77,2.76,22,3.14,23c.57,3.62.27,7.27.31,10.91,0,2.9,1.26,4.39,4.19,4.16,4.86-.39,9.9,1.21,14.57-1.31,1.05-.54,2-.17,2.19.85.32,1.61,1.21.43,1.82.55,5-.23,10-.1,15-.08C43.18,38.1,45.19,38.18,46.79,39.68Z"/><path class="cls-3" d="M2.11,23.12,1,20.84A46.35,46.35,0,0,1,4.68,7.57l1,1.14A16.69,16.69,0,0,1,2.11,23.12Z"/><path class="cls-4" d="M46.79,39.68c-6.14.11-12.27.18-18.41.35a3.34,3.34,0,0,1-3.3-1.7c-1.25-.92-.51-1.86.26-2.33,5.47-3.29,6-8.63,6.08-14.2a17.29,17.29,0,0,1,.48-4.91,12.08,12.08,0,0,0,.47-3.43C32.76,6.13,36,4.4,42.72,8A84.94,84.94,0,0,1,46.79,39.68Z"/><path class="cls-5" d="M2.11,23.12q1.8-7.2,3.61-14.41L6.79,7.56c6.72-2.72,9.2-1.13,9.51,6,.2,4.64,1.17,9.21,1.26,13.85.26,4,2.58,6.81,5.37,9.36C23.64,39.26,22.4,40,20.1,40,15,40,9.79,39.92,4.64,40c-2.23,0-2.88-.87-2.81-3C2,32.43,2,27.78,2.11,23.12Z"/><path class="cls-6" d="M6.84,5.7c-.55-3.07.75-4,3.8-4q13.62.25,27.24,0c3-.05,4.37.89,3.93,4-2.64,2-5.78,1.09-8.62,1.2C24.4,7.24,15.53,8.06,6.84,5.7Z"/><path class="cls-7" d="M6.84,5.7h35c.3.75.6,1.5.91,2.25a4.63,4.63,0,0,0-.49-.09c-7.86-.34-7.85-.34-8.6,7.27A24.36,24.36,0,0,1,33,18c-1.53-.83-1.55-2.47-2.07-3.84.12-3.43-1.12-5.63-5-5.45a6.26,6.26,0,0,0-4.64.14c-2.43.34-3.06,1.81-3.12,4.13-.11,4.58.77,9.12.42,13.71a3.4,3.4,0,0,1-2,2.3c-1.44-5.27-1.58-10.72-1.7-16.08-.1-4.34-1.46-6-5.71-5.23a10.74,10.74,0,0,1-2.45-.14C6.81,6.94,6.83,6.32,6.84,5.7Z"/><path class="cls-8" d="M26.78,42.72a2.39,2.39,0,0,1,.1-1h19.4v1.42C39.78,43.56,33.3,44.48,26.78,42.72Z"/><path class="cls-1" d="M21.86,7.54a2.76,2.76,0,0,1,3.94.06c1.27,5.91.28,11.89.62,17.83.11,1.88-.47,3.9.84,5.8,2-2,1.63-4.42,2-6.64.68-3.65,0-7.67,2.69-10.82,1.23,1.2.52,2.87,1,4.25-.1,2.14-.31,4.27-.3,6.4,0,6.08-2.29,10.81-7.64,13.91-.74.31-.74.31-2.15-1.59-4.41-.7-6-3.66-6.28-7.73l1-2.24c2,.86,1.7,3.56,4.4,4.9A167.19,167.19,0,0,0,21.86,7.54Z"/><path class="cls-9" d="M21.39,43H2.29v-.95H21.47Z"/><path class="cls-10" d="M21.86,7.54c2.21.33,1.72,2.05,1.72,3.45,0,6.78,0,13.56,0,20.34,0,1.21.72,3-.95,3.45s-2.69-1.05-3.49-2.32a13.49,13.49,0,0,1-1.5-5.69c-.27-4.44-.05-9-.94-13.27C15.66,8.62,17.25,7,21.86,7.54Z"/><path class="cls-11" d="M32,13.77c-.41,4.46-.74,8.93-1.26,13.39a18.18,18.18,0,0,1-1.33,5.25c-.58,1.31-1.79,2.79-3.43,2.33s-1-2.3-.91-3.48c.34-7.89-1-15.83.73-23.66a2,2,0,0,0,.48.05C31.28,6.8,33.17,8.84,32,13.77Z"/></g></g></svg>