<svg xmlns="http://www.w3.org/2000/svg" viewBox="0 0 47.54 47.39"><defs><style>.cls-1{fill:#5b4130;}.cls-2{fill:#a17a89;}.cls-3{fill:#dddbba;}.cls-4{fill:#e4dcbd;}.cls-5{fill:#dbdec4;}.cls-6{fill:#d9ddc3;}.cls-7{fill:#a77d80;}.cls-8{fill:#e7f4e2;}.cls-9{fill:#f7f3dc;}.cls-10{fill:#cbbea4;}.cls-11{fill:#f5efd1;}</style></defs><g id="Layer_2" data-name="Layer 2"><g id="Layer_1-2" data-name="Layer 1"><path class="cls-1" d="M23.68,47.37c-5,0-10,0-15,0-7.27-.07-11.14-6.64-7.07-12.74a11.08,11.08,0,0,0,2.12-7.26C3.12,16.14,7.29,7.94,18.36,4.12c1.43-.49,2-1.68,2.84-2.63C22.65-.06,24.91-.64,26,.93c2,2.87,5.16,3.34,7.8,4.89A20.41,20.41,0,0,1,43,16.63c2.67,7.23,1.33,15,3.76,22.51,2.25,7-.1,8.23-7.59,8.24H23.68Z"/><path class="cls-2" d="M16.49,6.72A19.22,19.22,0,0,0,13.88,20a66.67,66.67,0,0,1,1.72-7.06C17,8.87,19.24,4.82,24.08,5s7.23,4.16,8.44,8.59c.55,2,1,4.09,1.65,6.87C35.39,15,33.76,11,30.81,6.9c7.32,2.53,11.45,8.4,11.68,16,.29,9.65.29,9.63-9.21,9.58-7.82,0-15.64-.18-23.46.07C6.21,32.64,5.54,31.29,5.4,28,5,19.4,6.92,12.11,14.75,7.39A11.38,11.38,0,0,1,16.49,6.72Z"/><path class="cls-3" d="M35.72,39.76c0-1.64-.33-3.38.09-4.9s2.24-.82,3.46-.94c1.46-.14,2,.72,2,2.11,0,2-.06,3.95,0,5.92.08,2.17,0,3.75-3,3.73-3.33,0-2.66-2.06-2.68-4,0-.66,0-1.31,0-2Z"/><path class="cls-4" d="M12.4,39.84c0,1.15-.07,2.3,0,3.44.16,2.17-1.16,2.31-2.8,2.31s-3,0-2.93-2.19c.06-2,.1-3.95,0-5.91-.16-2.29.23-3.73,3.08-3.68s2.78,1.61,2.65,3.57C12.34,38.19,12.39,39,12.4,39.84Z"/><path class="cls-5" d="M28.29,34.72c4.59-2,6.71-.65,5.82,4-.48,2.51,2.79,7.3-3.56,6.94-2.11-.12-3-1.46-1.67-2.72C32.2,39.84,30.48,37.37,28.29,34.72Z"/><path class="cls-6" d="M13.89,39.14C14,36.79,12.82,33,18,33.94c1.49.27,2.22.86.75,2.18a3.92,3.92,0,0,0-.3,6c.92,1,1.49,1.9.83,2.9s-2.14.52-3.26.6c-1.43.1-2.15-.58-2.11-2.06S13.89,40.88,13.89,39.14Z"/><path class="cls-7" d="M23.89,37.63c1.15,0,2.14,0,3.13,0s2,.55,2,1.73c-.08,1.37-1.32,1.16-2.27,1.18a13.91,13.91,0,0,1-3,0c-1.59-.31-4.51,1.2-4.51-1.21C19.24,36.4,22.37,38.16,23.89,37.63Z"/><path class="cls-8" d="M43.09,46.07V34.38C46.18,37.1,46.33,41.86,43.09,46.07Z"/><path class="cls-9" d="M4.7,34.11c0,4,0,7.48,0,11C1.83,42.83,1.64,37.91,4.7,34.11Z"/><path class="cls-10" d="M23.64,36.32c-1.18.08-2.5.07-2.4-1.17.15-1.89,1.89-1.29,3.09-1.35,1,0,2.34,0,2.25,1.2C26.43,36.93,24.62,36.1,23.64,36.32Z"/><path class="cls-11" d="M21.42,44.55c-.2-1.92.84-2.22,2.09-2.08s2.77-.77,3.07,1.27c.24,1.61-.84,1.93-2.1,1.76S21.78,46.23,21.42,44.55Z"/></g></g></svg>