<svg xmlns="http://www.w3.org/2000/svg" viewBox="0 0 31.75 60.26"><defs><style>.cls-1{fill:#593e1f;}.cls-2{fill:#796146;}.cls-3{fill:#4f3518;}.cls-4{fill:#f8d0b4;}.cls-5{fill:#e2c392;}.cls-6{fill:#deb07f;}.cls-7{fill:#ecdbcf;}.cls-8{fill:#f2ddbd;}.cls-9{fill:#fce5c8;}.cls-10{fill:#ddba98;}.cls-11{fill:#e5d5c1;}.cls-12{fill:#e2d7c8;}.cls-13{fill:#e9ecde;}.cls-14{fill:#d8b38a;}</style></defs><g id="Layer_2" data-name="Layer 2"><g id="Layer_1-2" data-name="Layer 1"><path class="cls-1" d="M1.3,24.64c-.14-3.21,1.38-5.81,3.29-8.13,2.67-3.27,7.47-5,5.19-11.19-1-2.9,4.27-6.05,7.52-5.17,3.68,1,6,5,4.58,8.57-.71,1.75-1.22,2.63.78,3.81,5.65,3.32,8,8.7,8.4,15,.37,6.12.55,12.18-2,18.11-1.08,2.47-1.57,5.71,1.43,8.1,1.88,1.5,1.58,3.57-.06,5.22s-3.56,1.83-5.26.1-2.06-3.69-.16-5.22,2.52-3.09,2.07-5.15c-1-4.5-2.1-9-1.75-13.65a2.41,2.41,0,0,0-.89-1.71C20,29.88,15,30.89,10.09,31.72c-4,.68-3.77,4-3.81,7-3.64-2-2.2-4.7-1-7.37,5-4.75,11.1-2.11,16.75-2.5,1.06-.08,2.17.75,3.28,0,2.51-.56,2.89,1.48,2.86,2.94-.05,2.75.9,5.52.3,7.09.55-1.67-.32-4.57-.18-7.44.08-1.49-.45-3.5-3-2.57-5.91,0-11.84-1.39-17.71.33-1.76.13-2.14-1.52-3.11-2.41C3.93,25.59,5,25.27,6,24.6c-1.38.6-2.36,1.09-1.32,2.51a1.91,1.91,0,0,1-.09,1.37c-.77,1.05-1.6,2-3.11,1.45A7,7,0,0,1,1.3,24.64Z"/><path class="cls-2" d="M4.38,27.61l0-1.09v0c1.53,0,1.9,1.46,2.81,2.24,1.13,1.17-.36,1.83-.53,2.75-2,2.3-1.5,4.74-.42,7.22.32,2.63.46,5.22-1.6,7.33-.47-.2-.92-.53-1.42-.07C-.76,39.2,0,32,1.3,24.64c.56,1.67-.46,3.61.89,5.14,2.48,3.57.68,7.49,1.15,10.89C3.81,36.58,2.71,32,4.38,27.61Z"/><path class="cls-3" d="M3.26,46c.52-.89,1-.69,1.42.07C4.79,49,4.16,51.85,7,54.18c1.79,1.45,1,3.68-.78,5.12a3.3,3.3,0,0,1-4.52-.06C0,57.76-.75,55.44,1,54.1,4.11,51.78,3,48.83,3.26,46Z"/><path class="cls-4" d="M20.49,5.41C21,9.8,17.51,10,16,10s-4.85-.3-4.86-3.42c0-2.84,1.53-4.75,4.54-4.83A4.33,4.33,0,0,1,20.49,5.41Z"/><path class="cls-5" d="M20.82,24.78c-5-4.71-5-4.71-9.83,0-2.58-.87-2.63-6.83-8.17-2.42l3-4.9c5.48,5,5.48,5,9.79.26,1-.19,1.32.79,1.69,1.37,2.12,3.29,4.17,4.42,6.58.23C24.76,17.79,26,17,27,19.24c.18.37.91,1.43-.37,1.23C23.18,19.93,23.13,23.85,20.82,24.78Z"/><path class="cls-6" d="M6.7,31.54c.18-.92.36-1.84.53-2.75,6.12-2.74,12.23-2.15,18.33.06l0-.05c-.27,1.3.29,2.7-2.42,1.88C17.67,29,12,28.61,6.7,31.54Z"/><path class="cls-7" d="M7.64,14.92c2.82,3.85,4.84,2.28,6.55-.5,1.45-2.35,2.55-1.3,3.58.27,1.86,2.84,3.76,4.53,6.28-.52-1.87,6.29-2.61,6.56-6.34,2.65-1.69-1.76-2.5-1.19-3.85.29C10.38,20.94,10.22,20.86,7.64,14.92Z"/><path class="cls-8" d="M25.56,28.85c2.73-1.24,3.73-.9,3.83,1.89.16,4.26.27,8.58-1.5,13.63-1.36-4.32-.42-7.91-1-11.34-.26-1.48.83-3.4-1.39-4.23Z"/><path class="cls-9" d="M4.38,27.61V44c-2.85-5-1.42-9.79-2.19-14.2Z"/><path class="cls-10" d="M25.48,56.36c.13-1.23.69-2.27,2-2.37a2.24,2.24,0,0,1,2.47,2.37,2.21,2.21,0,0,1-2.2,2.19A2.43,2.43,0,0,1,25.48,56.36Z"/><path class="cls-11" d="M4.43,26.52c-1.73.18-2.38-.48-.84-1.65,1-.78,1.19-3.57,3.48-2a9.67,9.67,0,0,1,1.76,2.28c-1.22,1.7-3.35-.25-4.41,1.38Z"/><path class="cls-12" d="M18.24,25.52a8.21,8.21,0,0,1-4.71,0C15.87,21.57,15.87,21.57,18.24,25.52Z"/><path class="cls-13" d="M28.32,25.82H23.26c-.12-1.87,1.09-3.14,2.35-3.12S27.82,24.25,28.32,25.82Z"/><path class="cls-14" d="M3.73,53.84A2.45,2.45,0,0,1,6.26,56a2.19,2.19,0,0,1-1.87,2.52c-1.6.28-2.47-.95-2.63-2.3S2.82,54.31,3.73,53.84Z"/></g></g></svg>