<svg xmlns="http://www.w3.org/2000/svg" viewBox="0 0 59.56 22.57"><defs><style>.cls-1{fill:#4d3c2c;}.cls-2{fill:#8db6ca;}.cls-3{fill:#8db7c9;}.cls-4{fill:#e5d4bf;}.cls-5{fill:#554d55;}</style></defs><g id="Layer_2" data-name="Layer 2"><g id="Layer_1-2" data-name="Layer 1"><path class="cls-1" d="M14.61.13c10.46.74,19.78,1,29.06,0,7.06-.77,11,4.1,15.56,7.85a2,2,0,0,1,.21,1.75c-3.47,2-2.82,6-4.5,8.9-2.41,4.13-7.87,5.2-12.21,2.29S35.4,13.74,32.86,9.16c-.76-1.38-.58-4-3.18-3.85-2.44.14-2.39,2.61-3.11,4.05a33,33,0,0,1-7.88,10.19c-6.3,5.53-13.45,3.23-15.61-4.89,0-.16-.15-.36-.1-.48C4.24,11.23-1.9,10.86.61,7.65,4.72,2.38,9.66.05,14.61.13Z"/><path class="cls-2" d="M55.31,10.82c-.2,3.93-.52,7.83-4.9,9.51s-7.34-.64-10.14-3.45a24.54,24.54,0,0,1-5.66-8.09c-1.17-2.89-.5-5,2.44-5.92a21.83,21.83,0,0,1,13.7,0C54.5,4.16,55.29,7.34,55.31,10.82Z"/><path class="cls-3" d="M16.07,2c2.88.16,7.09-.55,8.88,3,1.94,3.8-1.48,6.71-3.53,9.63a15.25,15.25,0,0,1-1.65,1.86c-3.14,3.17-6.46,6-11.32,3.59C5,18.27,3.46,13.28,4.57,8.06,5.53,3.55,8.36,2,16.07,2Z"/><path class="cls-4" d="M25.71,2.18h8.18C31.27,4.63,28.45,4,25.64,3.6Z"/><path class="cls-5" d="M12,4.37a9.19,9.19,0,0,0-5.23,6.5C6.22,5.58,7,4.72,12,4.37Z"/></g></g></svg>