<svg xmlns="http://www.w3.org/2000/svg" viewBox="0 0 43.31 49.61"><defs><style>.cls-1{fill:#5c4020;}.cls-2{fill:#f1ac75;}.cls-3{fill:#f0ad72;}.cls-4{fill:#dcb280;}.cls-5{fill:#abb4b1;}.cls-6{fill:#a3c3d7;}.cls-7{fill:#d9c39c;}.cls-8{fill:#dac6a5;}.cls-9{fill:#99a7a7;}.cls-10{fill:#9ab6c4;}</style></defs><g id="Layer_2" data-name="Layer 2"><g id="Layer_1-2" data-name="Layer 1"><path class="cls-1" d="M21.68,32.05a47,47,0,0,0-1.19,13.89c.06,2.42-.47,3.73-3.25,3.64-4.65-.15-9.32-.13-14,0C.56,49.7,0,48.53,0,46,.09,32.23-.27,18.44,1.23,4.68,1.58,1.49,2.19-.08,5.87,0,16.5.24,27.13.19,37.76.06c3,0,4,1,4.3,4,1.39,14.06,1.24,28.16,1.25,42.25,0,2.24-.53,3.39-3,3.33-4.82-.12-9.65-.12-14.46,0-2.47,0-3.12-1-3-3.32A53.19,53.19,0,0,0,21.68,32.05Z"/><path class="cls-2" d="M1.48,31c0-2.49.08-5,0-7.47-.1-2.74.16-5.14,2.53-7.15,1.13-1,1.54-2.86,2.09-4.4a12,12,0,0,0,.63-3.42A2.65,2.65,0,0,1,11,6.28c3,2.38,9.5-4.87,10.06,3.78.68,10.66-1,21.12-2.1,31.64-.16,1.6-.75,2.47-2.4,2.45-.34,0-.67,0-1,0C1.44,45,1.44,45,1.48,31Z"/><path class="cls-3" d="M41.93,30.82c0,13.39,0,13.24-12.65,13.41-3.84.05-5.42-.89-5-4.92A19.88,19.88,0,0,0,23.07,31c-1.09-3.23-1.21-6,1.5-9.07,2.9-3.28,1.1-8,1.48-12.06.14-1.42-.11-4.76,1.68-3.46,2.89,2.08,8-4.24,8.88,2.71A19,19,0,0,0,40.5,18C43.39,22,41.4,27,41.93,30.82Z"/><path class="cls-4" d="M24.18,6.38c.1,5,.82,10-1.51,14.82V6.4Z"/><path class="cls-5" d="M35.7,1.55c1.68.73,4.43-.73,4.24,1.59C39.72,6,36.81,4.39,35.11,4.56c-1.43.15-4.15.73-4-1.39C31.43.21,34.51,2.85,35.7,1.55Z"/><path class="cls-6" d="M7.51,4.69c-1.46-.43-4.15.75-4.08-1.42C3.51.73,6.31,1.9,7.84,1.93S12.22.63,12.1,3.28C12,5.6,9.07,4.1,7.51,4.69Z"/><path class="cls-7" d="M41.39,16.25c-2.9-2.91-2.87-5.61-3.16-8.19-.09-.82,0-1.77,1.1-1.81s1.39.83,1.47,1.65C41,10.37,41.16,12.84,41.39,16.25Z"/><path class="cls-8" d="M2,15.33c.13-2.3.25-4.6.4-6.9.06-1,.27-2.16,1.52-2.14C5.46,6.31,5.06,7.6,5,8.51,4.91,11,4.46,13.36,2,15.33Z"/><path class="cls-9" d="M25.76,4.81c-1.42-.27-3.42.35-3.37-1.44.07-2.5,2.4-1.43,3.82-1.59,1.22-.14,3.08-.44,2.92,1.48C29,5.41,26.77,4.28,25.76,4.81Z"/><path class="cls-10" d="M17.39,1.75c1.25.35,3.46-.82,3.49,1.46,0,1.67-1.91,1.52-3.18,1.41s-3.47.72-3.47-1.55C14.24,1.08,16.25,2.11,17.39,1.75Z"/></g></g></svg>