<svg xmlns="http://www.w3.org/2000/svg" viewBox="0 0 39.86 53.69"><defs><style>.cls-1{fill:#66483a;}.cls-2{fill:#a27b89;}.cls-3{fill:#a27b88;}.cls-4{fill:#d4c19b;}.cls-5{fill:#6b4934;}.cls-6{fill:#684431;}</style></defs><g id="Layer_2" data-name="Layer 2"><g id="Layer_1-2" data-name="Layer 1"><path class="cls-1" d="M1.53,40c-.25-3-.33-6-.79-8.95C.07,26.76-1.2,23,2.72,18.89c2.94-3.06,2.16-8.18,1.86-12.52-.11-1.65-.7-3.62,1.62-4.05,2.57-.47,4.58-3.59,7.62-1.7a10.35,10.35,0,0,0,11.61,0c3.11-1.9,5.08,1.19,7.65,1.69,2.24.42,1.87,2.19,1.83,4C34.77,12,34,18,39.32,22.36c1,.78.38,1.85.21,2.8a89.21,89.21,0,0,0-1.35,20.89,4.38,4.38,0,0,1,0,1.49c-.75,2.36-15.17,6.81-16.89,5-1.4-1.49-2-1.55-3.13.06s-2.54,1.2-4,.6S11,52,9.44,51.47C1.55,48.62,1.55,48.62,1.53,40Z"/><path class="cls-2" d="M33.05,11.23c.08,3.56.5,8,4,11.45,1,.95.82,2,.61,3.2-1,6.06-1.94,12.14-1.42,18.31.19,2.33-.53,3.74-3,4.34s-4.71,1.57-7.06,2.4c-3.9,1.37-6.34-1.19-6.44-5.26-.06-2.37.48-4.77-.21-7.37-1-3.82-.29-8,1.12-11.9A116,116,0,0,0,26.23,7.33c.34-1.9-.37-4.86,3-4.65s4.36,2.44,3.83,5.57A24.4,24.4,0,0,0,33.05,11.23Z"/><path class="cls-3" d="M3.27,41.08a81,81,0,0,0-.7-8.67C2,27.86.7,23.35,4.6,19c2.7-3,1.93-7.64,1.64-11.6-.25-3.31,1.47-4.63,4.2-5C13.82,2,12.57,5.08,13,6.56c1.25,3.94,1.45,8.3,3.16,12,3,6.52.47,13.06,1.08,19.54.33,3.46-.34,6.92.48,10.42.54,2.31-.55,4-3.42,2.87a32.25,32.25,0,0,0-4.25-1.45C4.85,48.81,1.5,46.41,3.27,41.08Z"/><path class="cls-4" d="M25,3.77a94.05,94.05,0,0,1-5.33,20.1,89.43,89.43,0,0,1-5.32-20.1Z"/><path class="cls-5" d="M25.26,41.53c1.9-3.52,6.51-4.41,10.11-1.86C31.89,40.51,28.48,40,25.26,41.53Z"/><path class="cls-6" d="M14.22,41c-2.84-.23-5.49-1.37-8.35-1-.7.11-1.37.17-1.46-.7,0-.4.35-1.2.49-1.19C8.2,38.42,11.84,37.78,14.22,41Z"/></g></g></svg>