<svg xmlns="http://www.w3.org/2000/svg" viewBox="0 0 52.94 41.03"><defs><style>.cls-1{fill:#593a1c;}.cls-2{fill:#7a5e3e;}.cls-3{fill:#fbccae;}.cls-4{fill:#f8cdae;}.cls-5{fill:#e9b582;}.cls-6{fill:#f0edcc;}.cls-7{fill:#6f3d13;}</style></defs><g id="Layer_2" data-name="Layer 2"><g id="Layer_1-2" data-name="Layer 1"><path class="cls-1" d="M6.71,13.34c4.38-10,13.91-15,24.16-12.83a21.32,21.32,0,0,1,16.59,21.4c-.1,4.66.12,8.82,4.23,11.92,2.17,1.64,1.27,3.05-.85,4a34.28,34.28,0,0,1-10.59,2.52c-10.6,1.29-21.2.29-31.81,0A5.39,5.39,0,0,1,7,40.16c-8.87-2.7-9-3.35-2.16-10.74,2.4-1.83-.8-4.88,1.46-6.75,1.14-1,2.18-2,3.36-3,4.37-3.5,8.67-4.36,13.46-.56,5.8,4.61,12.76,2.62,19.27,2.66,2.73,0,1.83-2.71,1.48-4.35C42.2,9.57,37,5.1,29.37,3.46,22.15,1.9,16.42,4.92,11.78,10.33c-1.28,1.48-1.92,3.55-3.95,4.36C7,14.63,6.33,14.4,6.71,13.34Z"/><path class="cls-2" d="M6.71,13.34l.93,1c2,3.25.69,6.18-.93,9.06-.45,2,2.17,5.06-1.87,6C5,24,3.82,18.43,6.71,13.34Z"/><path class="cls-3" d="M6.71,23.44l.93-9.06C14-.85,33.33-2.68,42.4,10.09a16.44,16.44,0,0,1,1.5,2.57c4.2,8.84,2.82,10.79-6.59,11.23A27.23,27.23,0,0,1,18.83,18.4c-4.25-3.14-6.73,2.9-10.36,3.94C7.88,22.51,7.94,24,6.71,23.44Z"/><path class="cls-4" d="M1,35.87c1.46-1.6,2.47-2.68,3.44-3.79,1.37-1.57,2.5-2.65,4.13-.06,1.53,2.43,4.64,3.08,7,4.25,3.56,1.77,6.24-2.16,8.86-3.94a8.53,8.53,0,0,1,5.19-1.93c4.66,0,9.32,0,14,0,1,0,2.28-.22,2.88.3,1.61,1.38,4,3.05,4.08,4.73.14,2.38-3,2-4.72,2.29a105.32,105.32,0,0,1-41.63-.46A19.36,19.36,0,0,1,1,35.87Z"/><path class="cls-5" d="M24.16,24.76c-3,1.89,1.57,5.36-1.13,6.73-2.14,1.09-3.9,2.7-6,3.64-1.1.48-8-4.94-7.49-5.41,2.52-2.24-1.76-5.69.94-7,2.24-1.07,5.24-4.1,6.2-3.31C19,21.36,23.1,20.74,24.16,24.76Z"/><path class="cls-6" d="M35,28.71c-2.64,0-5.29,0-7.93,0-1.07,0-2.11-.44-2.12-1.61s1-1.6,2.09-1.6H43.88c1.08,0,1.9.17,1.92,1.58s-.84,1.61-1.89,1.62c-3,0-5.95,0-8.93,0Z"/><path class="cls-7" d="M19.89,27.07c-.29,1.84-1.28,3.16-3.19,3.2s-3-1.35-3-3.23a2.71,2.71,0,0,1,2.8-2.88C18.45,24,19.53,25.16,19.89,27.07Z"/></g></g></svg>