<svg xmlns="http://www.w3.org/2000/svg" viewBox="0 0 62.58 21.73"><defs><style>.cls-1{fill:#634126;}.cls-2{fill:#d9a583;}.cls-3{fill:#dda482;}.cls-4{fill:#67391e;}.cls-5{fill:#a17a88;}.cls-6{fill:#683b22;}.cls-7{fill:#673c22;}.cls-8{fill:#a17c87;}</style></defs><g id="Layer_2" data-name="Layer 2"><g id="Layer_1-2" data-name="Layer 1"><path class="cls-1" d="M31.15,10.53c-1.3.5-1.67,1.86-2.18,3.05-4.08,9.56-14.06,10.91-20.89,3-2.59-3-3-7.64-7.64-9.21C-1.2,6.82,2,1.39,4.94.71A24.89,24.89,0,0,1,22.84,3c5.87,3.25,11,3.21,16.79,0C44.44.4,49.89-.3,55.56.28c3.57.37,5,2.55,6.6,5,.72,1.12.48,2.27-.45,2.45-3.6.69-4.05,4-5.6,6.34-3.13,4.72-7,8-13,7.54-5.64-.4-8.45-3.93-10-8.93A2.77,2.77,0,0,0,31.15,10.53Z"/><path class="cls-2" d="M25.79,15.7c-3,4.91-9.68,5.8-14.4,1.88C8,14.72,6.3,10.67,4.43,6.79c-1.47-3-.5-4.62,2.88-5a24.56,24.56,0,0,1,15.4,2.9c5.74,3.37,11.06,3.92,16.71.08,1.16-.78,2.82-.84,4.24-1.23l.33.59c-1.52,3.09-5.45,3.82-6.86,7a3,3,0,0,1-1.41,1.39c-5-5.47-5.53-5.36-8.43,1.47a7.25,7.25,0,0,1-1.57,1.73c-1.56-7.3-4-9.92-10.06-10.56-2.08-.22-4.49-.7-5.88,1.57-1.25,2,0,3.86,1,5.58,2.57,4.75,6,5.86,11.15,3.76a5.2,5.2,0,0,1,2.64-1A2.2,2.2,0,0,1,25.79,15.7Z"/><path class="cls-3" d="M43.66,3.55a8.39,8.39,0,0,1,1.7-.89c4.51-1.09,9.22-2.38,13.22.87,1.46,1.19-4.67,12-7.9,14.38-4,2.91-10.15,2.68-13.3-.56-.4-.41-.44-1.17-.64-1.77,3.11-.49,5.55,2.65,8.76,1.63a7.11,7.11,0,0,0,5-2.9c1.41-2,3.22-4,2.35-6.76C52,4.54,49.28,5.2,47,5c-1.16-.1-2.34-.18-3.17-1.18Z"/><path class="cls-4" d="M45.77,18.47c-3.63,1-6.35-.9-9-2.89l-1-3c.09-.61.19-1.23.28-1.84a1.07,1.07,0,0,1,1.26,0c1.83,3.4,5.09,5,8.37,6.49a1,1,0,0,1,.29.81C45.89,18.32,45.83,18.47,45.77,18.47Z"/><path class="cls-5" d="M25,15.34l-2.33,1.38C16.23,20,9,15.74,8.83,8.65c-.06-2.46.77-4.26,3.55-4.43A15,15,0,0,1,24.79,9.3C26.64,11.27,25.69,13.3,25,15.34Z"/><path class="cls-6" d="M25,15.34c.06-6.06-5.4-11-11.66-10.61-3.45.2-4.08,2.3-3.58,5.1,1,5.72,6.06,8.37,12.91,6.89C19.57,20.28,16.08,19,13,17c-3.41-2.29-5.69-5.6-5-10a4.8,4.8,0,0,1,2-2.72C12.5,2.4,19.59,3.91,23.5,6.68c3.48,2.46,3.77,5.49,2.22,9.07l.07-.05A.79.79,0,0,0,25,15.34Z"/><path class="cls-7" d="M45.77,18.47v-.88c.4-2.2,2.53-3,3.76-4.47s2.33-3.5,1.26-5.47c-1.26-2.31-3.43-1.2-5.35-.88-3.19.53-5,3.9-8.36,4L36,10.71c1.12-4,5-4.85,7.87-6.87,4,.07,9.07-2.51,10.74,3.71C55.66,11.48,51.08,16.81,45.77,18.47Z"/><path class="cls-8" d="M37.08,10.78a16.3,16.3,0,0,1,10-5.86c1.75-.28,3.74-.69,5,1.07s.76,3.75,0,5.65c-1.18,3-3.88,4.37-6.38,5.95C41.36,17.25,37.49,16.22,37.08,10.78Z"/></g></g></svg>