<svg xmlns="http://www.w3.org/2000/svg" viewBox="0 0 25.61 62.17"><defs><style>.cls-1{fill:#5a411e;}.cls-2{fill:#543b1b;}.cls-3{fill:#796345;}.cls-4{fill:#c7ad87;}.cls-5{fill:#d3c09b;}.cls-6{fill:#d2c199;}.cls-7{fill:#ddc09e;}.cls-8{fill:#baa17c;}.cls-9{fill:#ddc19c;}.cls-10{fill:#876c47;}</style></defs><g id="Layer_2" data-name="Layer 2"><g id="Layer_1-2" data-name="Layer 1"><path class="cls-1" d="M.43,12.18C.78,9.29-1,6,2.1,3.64A4.43,4.43,0,0,1,6.93,3.1C6.17,2.18,3,3.4,4.58.34c5.3.82,10.62,1.2,15.88-.12,2.47-.62,3.83,0,4.17,2.61a21.46,21.46,0,0,1,.51,2.43c.07,17.63,1.48,35.27-.92,52.85-3.64.74-1.82-2.13-2.31-3.47-.27-6.32,1.48-12.54.91-18.87-.18-2,.27-4.17-1.51-5.57-5.24-4.09-3.38-9.52-2.91-14.69a5,5,0,0,1,.89-1.77c.89-1.64-.43-2.44-1.35-3.32-.57-.54-1.29-1.37-2.13-.77-1.07.76-.86,2.11-.75,3.22C15.8,20.29,17.5,27.62,17,35.16c-.22,3.31.11,6.64-.15,10-.39,1.3-.33,2.94-2.32,3q-.62-13-1.24-25.92c-2.13,7.35-1.34,14.9-1.94,22.34-.15,1.89.72,4-.95,5.64A1,1,0,0,1,9,50a6.27,6.27,0,0,1-1-4.76C9.46,35.24,8.17,25,10.31,15c.52-2.43.85-4.91-.3-7.45C6.8,8.74,6,13.49,1.77,13A4.15,4.15,0,0,1,.43,12.18Z"/><path class="cls-2" d="M.43,12.18l1.31.13A10.29,10.29,0,0,1,5.22,29.4C3.42,31.16,3.13,33,3.07,35.21a111,111,0,0,0,.87,18.41c.08,1.21-.51,2.73,1.49,3,1.56.23,1.93-.81,2.15-2,.43-1.59.35-3.41,2-4.44h.82c.23,3.69-.84,7.5,2.13,12C8.71,60.21,6,59,2.87,58.94.29,58.89.93,56.1.81,54.53A364.87,364.87,0,0,1,.43,12.18Z"/><path class="cls-3" d="M23.26,55c.49,1-1.46,2.73,1,3.12-3.27,1.68-7.17,1.41-10.5,3.67,2.45-4.62.09-9.22.81-13.67.35-1,.71-2.09,1.06-3.13a2.17,2.17,0,0,1,2,2.37C17.37,51.53,19.57,53.78,23.26,55Z"/><path class="cls-4" d="M4.58.34C5.74,4.19,10.17.54,12,3.7,8.54,5,5.29,2.83,2.1,3.64.79.93,2.26.32,4.58.34Z"/><path class="cls-5" d="M2.47,55.08c-1.32-7.75-.79-15.58-.9-23.39,0-1.1-.37-3,.94-3C8.68,28.45,6.06,23.9,6.33,21c.3-3.11,1.11-7-4.2-7a7.49,7.49,0,0,1-.39-1.73c3-.38,3-4.63,6.1-4.9-1.35-2.64.55-2,1.93-1.94,2.57,0,2.3,1.89,2.26,3.53-.27,10.78-2.31,21.43-2.15,32.23,0,3-.19,6-.3,9C9,51.86,10,53.87,8.51,55.36,6.42,56.81,4.4,56.85,2.47,55.08Z"/><path class="cls-6" d="M23.26,55c-6.67.63-6.64.63-7-5.77A41.09,41.09,0,0,0,15.59,45c.46-11.51-1.17-22.89-2-34.33-.11-1.42-1.09-3.54,1-4.37,2.44-1,3,1.17,3.86,2.76,1.15,2.21,3.84,2.44,5.74,4.41-2.1,1.36-6,.7-5.12,5,.54,2.73.11,5.64.19,8.47,0,.41.45,1.17.69,1.17,6,0,3.83,4.48,4,7.5C24.47,42.05,23.72,48.52,23.26,55Z"/><path class="cls-7" d="M24.27,23c-.36,1.43.86,3.79-1.66,4-3,.2-2-2.42-2-4,0-1.4-.94-3.73,1.78-3.7S24,21.54,24.27,23Z"/><path class="cls-8" d="M13.69,3.38a13.85,13.85,0,0,1,9-1C19.8,3.57,16.89,4.76,13.69,3.38Z"/><path class="cls-9" d="M5,23.17C4.74,24.7,5.91,27.1,3.16,27c-3-.15-1.45-2.76-1.64-4.28s-.72-3.8,2-3.45S4.66,21.84,5,23.17Z"/><path class="cls-10" d="M2.47,55.08l6,.28c0,1.25,1.12,3-1.58,2.9C4.64,58.19,2.19,58.64,2.47,55.08Z"/></g></g></svg>