<svg xmlns="http://www.w3.org/2000/svg" viewBox="0 0 51.44 50.57"><defs><style>.cls-1{fill:#52402b;}.cls-2{fill:#60513d;}.cls-3{fill:#574633;}.cls-4{fill:#846b57;}.cls-5{fill:#fdf4db;}.cls-6{fill:#e6e1ca;}.cls-7{fill:#efe5d1;}.cls-8{fill:#f3e5d3;}.cls-9{fill:#e2d7c7;}.cls-10{fill:#f2e8d4;}.cls-11{fill:#dfceba;}.cls-12{fill:#e7dac5;}</style></defs><g id="Layer_2" data-name="Layer 2"><g id="Layer_1-2" data-name="Layer 1"><path class="cls-1" d="M44.33,11.39C53.1,19.14,54,34.58,45.6,44.52a18.05,18.05,0,0,1-9.8,5.7c-4.16.91-7.62-.21-11.19-.37-2.73-.12-5.95-2.67-7.86-5-6.91-8.51-7.72-21-1.79-30C19.59,7.71,30.65,5.43,39.3,9.43c.25.91-.3,1.34-1,1.67-1.32.4-2.63,0-3.94-.11C25.63,10.2,21,13.27,17.86,21.93c-2.54,7-.13,13.87,6.42,18.21,4.82,3.2,11,2.63,15.65-1.43,5.57-4.9,7.22-11.86,4.36-18C43.19,18.3,41,16.46,41,13.56,41.69,12.22,42.46,10.94,44.33,11.39Z"/><path class="cls-2" d="M5.76,4.71c-1.38,1.71-2.33.56-4,.72,3.46,2.68,2,6.72,4,9.64.8,1.14-.3,2.16-1.23,2.87a2,2,0,0,1-2.72-.07C.92,17.1,0,16.11.69,14.91,2.28,12,3.5,9.3.36,6.52-.43,5.82.21,4.6,1,3.93,2.81,2.5,4,4.06,5.76,4.71Z"/><path class="cls-3" d="M12.25,1.4c-1.15,2.09-2.61-.73-3.67,1C12.53,4.48,10.9,9,12.7,12.2c.7,1.24-1.12,2.75-2.8,2.61s-3-1.58-2.33-3.09c1.38-3.1,2.91-5.87-.33-8.8-.7-.63,0-2,.91-2.5C9.87-.53,11.1.28,12.25,1.4Z"/><path class="cls-4" d="M38.25,10.45l1-1c1.7.61,4.11-.63,5,2-1.19.77-1.92,2.37-3.71,2.09S37.88,12.36,38.25,10.45Z"/><path class="cls-5" d="M38.25,10.45l2.37,3c8.77,9.5,8.73,18.82,0,26.45-6.87,6-16,4.33-21.23-2.22-5.81-7.27-4.88-15.51.89-22.88C25.41,8.24,31.36,8.21,38.25,10.45Z"/><path class="cls-6" d="M31.21,50.28c-1.4-.89-3.11-1.35-2.64-3.26a2.66,2.66,0,0,1,2.82-2.25,2.62,2.62,0,0,1,2.45,3.07C33.65,49.24,32.3,49.77,31.21,50.28Z"/><path class="cls-7" d="M24.38,43.56c1.51.14,2.68.89,2.75,2.36a2.29,2.29,0,0,1-2.52,2.45,2.26,2.26,0,0,1-2.4-2C22,44.73,23,43.91,24.38,43.56Z"/><path class="cls-8" d="M38,48.42c-1.61-.08-2.66-.87-2.66-2.4a2.33,2.33,0,0,1,2.6-2.39,2.22,2.22,0,0,1,2.32,2.13A2.39,2.39,0,0,1,38,48.42Z"/><path class="cls-9" d="M45.14,42.64a2.25,2.25,0,0,1-2.37,2,1.87,1.87,0,0,1-1.9-1.82,2.1,2.1,0,0,1,2.06-2.28C44.23,40.47,45,41.34,45.14,42.64Z"/><path class="cls-10" d="M21.43,42.25c.08,1.43-.58,2.12-1.65,2.23a1.93,1.93,0,0,1-2.36-1.85,1.86,1.86,0,0,1,1.67-2.06C20.47,40.35,21.09,41.31,21.43,42.25Z"/><path class="cls-11" d="M48.12,38.5c-.36.94-.89,1.85-2,1.64a1.59,1.59,0,0,1-1.3-1.82c.14-1.06.79-1.94,2-1.67A1.82,1.82,0,0,1,48.12,38.5Z"/><path class="cls-12" d="M17.63,38.4c-.07.77-.35,1.64-1.31,1.68a1.7,1.7,0,0,1-1.83-1.84,1.53,1.53,0,0,1,1.56-1.58C16.92,36.67,17.45,37.41,17.63,38.4Z"/></g></g></svg>