<svg xmlns="http://www.w3.org/2000/svg" viewBox="0 0 26.53 60.06"><defs><style>.cls-1{fill:#5b482d;}.cls-2{fill:#5e4834;}.cls-3{fill:#4b3b1f;}.cls-4{fill:#f8f5d7;}.cls-5{fill:#f9f5d5;}</style></defs><g id="Layer_2" data-name="Layer 2"><g id="Layer_1-2" data-name="Layer 1"><path class="cls-1" d="M.67,9A7.54,7.54,0,0,1,.42,7.56C.66.13.67.13,8.12.12c4.49,0,9,.13,13.48-.1,3-.16,4,.89,4.36,3.85,1,8.82.41,17.63.15,26.45-.24,8.49-.57,17-.34,25.48.14,5-2.91,4.2-5.85,4.19-2.78,0-5.59.75-5.44-4,.34-10.93.11-21.88.11-32.82H12.66V44.05c-.14.66-.51.85-1.12.55A4.93,4.93,0,0,1,9.77,42c-1.2-8.13-.4-16.19.9-24.23a29,29,0,0,0,.45-8.41c-.38-3-2-3.54-4.42-1.69-1.95,1.48-2.77,4.19-5.36,5C-.32,11.72.38,10.34.67,9Z"/><path class="cls-2" d="M.67,9c.17,1.17,0,2.44.9,3.41,1.59,1,1.82,2.74,1.87,4.38.35,12.25-.29,24.52,1,36.74a8,8,0,0,1-.64,3.9,4.42,4.42,0,0,1-2,2,1.58,1.58,0,0,1-.87-1.62C.61,42.67.27,27.53,0,12.38A16,16,0,0,1,.67,9Z"/><path class="cls-3" d="M1.8,59.43l1.12-1.06C8.75,57.05,9.83,53,9.25,47.77c-.21-1.86-.16-4,1.72-5.32.33.76.66,1.51,1,2.26a59.22,59.22,0,0,1,0,13.7C8.82,61.22,5.24,59.63,1.8,59.43Z"/><path class="cls-4" d="M12,58.41q0-6.85,0-13.7a3.44,3.44,0,0,0,.71-.66C12.5,48.84,13.69,53.7,12,58.41Z"/><path class="cls-4" d="M11,42.45c-.11,2.81-.25,5.61-.33,8.42-.2,7.56-.19,7.56-7.72,7.5C1.78,43.08,2,27.75,1.57,12.44,3.31,9,4.38,5,9.38,4.48c3.08-.34,3.31,1,3.16,3.32C12,17.2,11.39,26.6,10.89,36,10.77,38.15,10.94,40.3,11,42.45Z"/><path class="cls-5" d="M23.89,34.51c0,6.82-.15,13.64.07,20.45.09,3-1.16,3.48-3.78,3.47s-4.17-.27-4.26-3.67c-.31-12.62,0-25.25-1.59-37.86-.44-3.46,2-7.36,2-11.41,0-1.26,3.94-1,4-.74C21,8.26,25.44,9.55,25,14.06c-.69,6.75-.18,13.62-.18,20.45Z"/></g></g></svg>