<svg xmlns="http://www.w3.org/2000/svg" viewBox="0 0 60.74 20.78"><defs><style>.cls-1{fill:#604624;}.cls-2{fill:#f3ae70;}.cls-3{fill:#d6eed8;}.cls-4{fill:#c0a783;}</style></defs><g id="Layer_2" data-name="Layer 2"><g id="Layer_1-2" data-name="Layer 1"><path class="cls-1" d="M1.32,0C10,7,19.79,6.21,28.82,8.13c1.94.42,2-1.89,2.62-3.12.88-1.87,1.57-3.16,4-1.78C41.66,6.76,48.4,9.1,55.09,11.57a14.23,14.23,0,0,1,3.79,2.34,4,4,0,0,1,1.79,3.88c-.37,2-2.11,1.8-3.55,2-15.25,1.82-30.53.65-45.8.6-1.16,0-2.33-.06-3.49-.09C-.81,20-1.09,19.65,1.26,11,2.18,7.59,3.93,4.27,1.32,0Z"/><path class="cls-2" d="M15.28,16.41c-2.76-.25-4.58-.45-6.4-.56-7.63-.46-7.48-.41-5.12-7.94.77-2.45,1.83-2.6,4-2.13,5.84,1.31,11.73,2.37,17.56,3.68,1.21.27,3.79-.64,3.26,1.71-.47,2.11-.59,5.27-4.18,5.24C21,16.38,17.69,16.41,15.28,16.41Z"/><path class="cls-3" d="M57.93,15.32c-9.37,1.78-18.26,1-27.1,1.16-1.87,0-2.11-.61-1.62-2.4,2.62-9.59,3.78-10.14,12.51-6,2.67,1.29,5.55,2.14,8.32,3.22C52.6,12.34,55.35,13,57.93,15.32Z"/><path class="cls-4" d="M2.3,18c18.72-1,37.48.69,56.2-.48C39.82,21.1,21.05,18.88,2.3,18Z"/></g></g></svg>