<svg xmlns="http://www.w3.org/2000/svg" viewBox="0 0 58.11 34.03"><defs><style>.cls-1{fill:#56472d;}.cls-2{fill:#d3c09b;}.cls-3{fill:#e4ddbe;}.cls-4{fill:#8eb1c1;}</style></defs><g id="Layer_2" data-name="Layer 2"><g id="Layer_1-2" data-name="Layer 1"><path class="cls-1" d="M30,34c-9.47,0-17.4-.5-25-3.16C2.78,30.1,0,29.22,0,26.59c0-2.9,2.81-4.22,5.21-4.51,5-.62,6.75-3.44,7.17-8.11a25.17,25.17,0,0,1,2.24-7.59c2.7-6.24,6-7.51,12-4.45,2.35,1.19,4.07.58,5.95-.64C36.52-1.24,39.54.19,42,3.54c3,4,3.94,8.78,4.56,13.53.34,2.64,1.34,3.52,3.83,4.15,3.09.77,7.65,1.25,7.71,5.1.06,4.22-4.68,4.67-7.87,5.51A76.39,76.39,0,0,1,30,34Z"/><path class="cls-2" d="M29.2,18.38l-12-.58c-2.87-.15-4.34-1.42-3.33-4.43a62.71,62.71,0,0,1,2.76-7.45C18.58,2,21.58.53,25.59,3.07a5.85,5.85,0,0,0,7,.05c4-2.56,6.89-1.11,9.09,2.65,5.37,9.18,4,11.85-6.44,12.32-2,.09-4,0-6,0Z"/><path class="cls-3" d="M29.22,32.58c-8.19-.52-16.37-.41-24.13-3.39-1.4-.54-3.24-1-3.31-2.62s1.79-2.18,3.15-2.71c2.54-1,5.15-2.87,7,1.3.41.93,2.59,1.43,4,1.52,8.62.54,17.26.92,25.86-.18,2.25-.29,4.74-.09,6-3.31.75-1.86,3.41-.06,5.11.49,1.52.5,3.59,1,3.58,2.92,0,1.65-1.92,2.11-3.3,2.61C45.41,32,37.25,32.13,29.22,32.58Z"/><path class="cls-4" d="M28.54,25.9c-4.37-.34-8.51-.68-12.65-1-2.08-.16-3.41-.82-3.27-3.33.15-2.74,1.7-2.7,3.72-2.46a102.58,102.58,0,0,0,25.85,0c1.73-.23,3.27-.44,3.49,2.13.2,2.35-.74,3.45-2.94,3.63C37.94,25.24,33.14,25.57,28.54,25.9Z"/></g></g></svg>