<svg xmlns="http://www.w3.org/2000/svg" viewBox="0 0 53.24 18.6"><defs><style>.cls-1{fill:#5c4421;}.cls-2{fill:#e8c680;}.cls-3{fill:#e9c580;}.cls-4{fill:#dec49b;}.cls-5{fill:#ddc29b;}.cls-6{fill:#f4e9cd;}</style></defs><g id="Layer_2" data-name="Layer 2"><g id="Layer_1-2" data-name="Layer 1"><path class="cls-1" d="M53,9.32c.82,3.54-.63,4.93-4.18,4.53-1.41-.15-3.47-.76-4.16.71-3.47,7.36-8.12,2.77-11.93,1-4.24-2-8.06-2.15-12,.06a30.06,30.06,0,0,1-7,2.62c-1.13.31-2.73.63-3.18-.55-1.51-4-4.57-4.09-8-3.9S.11,11.23.21,9.52s-1.4-4.88,2.35-4.79C6,4.8,8.51,4.39,10.88,1.09c1.72-2.4,5.41-.28,7.69,1.08,5.38,3.2,10.32,3.16,15.85.18C37.75.55,42.07-2.27,44.63,4c.49,1.19,2.47.73,3.75.6C52,4.23,53.9,5.37,53,9.32Z"/><path class="cls-2" d="M36.41,11.34,30.29,9.56l5.78-2.45c-1.47-1.69-3.25.38-5-.93C34.5,3.72,37.87.9,42,3.09c2.56,1.35,2.18,10.5.05,12.65-1.81,1.84-6.5.31-10.87-3.6C32.75,10.79,34.54,13.67,36.41,11.34Z"/><path class="cls-3" d="M22.18,6.15c-1.75,1.26-3.49-.61-4.91.72,1.17,1.79,3.48.94,4.85,2.21-.82,2.37-4,.5-4.82,2.8,1.51,1.38,3-.4,4.63-.17-2.71,3.44-8.53,5.84-10.43,4.41-2.31-1.75-2.91-11.53-.24-13C15.43.73,18.72,3.87,22.18,6.15Z"/><path class="cls-4" d="M48.48,12.28c-2.49.46-3.22-.47-3.27-2.92-.06-2.67,1.09-2.92,3.24-2.93s3,.51,3,2.77S51.07,12.92,48.48,12.28Z"/><path class="cls-5" d="M4.72,6.51c2-.18,3.62,0,3.32,2.78-.19,1.77,0,3.34-2.54,3.08-1.77-.18-3.77.42-3.65-2.57C1.93,7.76,2,6,4.72,6.51Z"/><path class="cls-6" d="M24.13,9.51C24,7.74,24,6.05,26.35,5.93c2.54-.14,2.82,1.46,2.85,3.52s-.4,3.28-2.58,3.29S23.85,11.4,24.13,9.51Z"/></g></g></svg>