<svg xmlns="http://www.w3.org/2000/svg" viewBox="0 0 55.92 56.94"><defs><style>.cls-1{fill:#73583c;}.cls-2{fill:#5b4124;}.cls-3{fill:#4d3220;}.cls-4{fill:#fbcdaf;}.cls-5{fill:#f5d0b6;}.cls-6{fill:#f7d2b7;}.cls-7{fill:#eacd92;}.cls-8{fill:#654123;}.cls-9{fill:#a17b88;}.cls-10{fill:#ba976f;}.cls-11{fill:#cdab81;}.cls-12{fill:#c19b77;}</style></defs><g id="Layer_2" data-name="Layer 2"><g id="Layer_1-2" data-name="Layer 1"><path class="cls-1" d="M47.79,4.87,49.67,7a12.24,12.24,0,0,1-.84,1.75c-1.32,2.6-.63,5.37-.68,8.06,0,2.26,1.58,2,3.06,1.78a1.66,1.66,0,0,1,1.4,1.36c-.62.78-1.12,2.08-1.88,2.25-5.39,1.2-4,5.38-4,8.88-.06,7-.2,14,0,20.91.12,3.55-.67,5.06-4.61,5-9.28-.27-18.58-.19-27.87,0C10.9,57,9.6,56,9.68,52.41c.21-9.79,0-19.58,0-29.37-.24-1.1-.89-2.08-1-3.22a13.61,13.61,0,0,1,.17-5.28c.92-1.55,0-4.18,2.76-4.65,2.3,1.84,1.89,4.48,1.92,6.91.09,10.14,0,20.28.07,30.42.05,5.52.48,5.91,6,6,6,.07,12-.12,18,0,4.14.12,5.53-1.67,5.5-5.64C42.91,37,43,26.34,43,15.7c0-3.16-.12-6.34,1.25-9.32A2.63,2.63,0,0,1,47.79,4.87Z"/><path class="cls-2" d="M10.93,9.71c-.56,1.7.3,3.68-1,5.24-1.79-.86-.94-3-2-4.21-5.38,2.62-4.58,6.89,1.72,10.2,1.1.71,1,1.41,0,2.1-5.22,1-6.53-3.82-9-6.48-2.16-2.38,1.39-3.84,2.6-5.44,2.8-3.64,5.31-7.66,9.93-9.48,3.41-1.34,6.5-2.72,10.28-.37a9.36,9.36,0,0,0,8.71.24c6.41-3.34,11-.45,15.59,3.36-.62,1.35-1.35.25-2,.1-1.57.31-3-.37-4.3-1C38.59,2.74,37,4,35.24,6.25c-4,5.22-9.77,5.2-13.92.28-3.67-4.34-6.64-4-9.16,1.06A5.73,5.73,0,0,1,10.93,9.71Z"/><path class="cls-3" d="M52.61,19.94,51.73,19c.79-3.27.38-6.15-2.44-8.43A2,2,0,0,1,48.72,8c.32-.33.63-.66,1-1a31.38,31.38,0,0,0,3.59,4.1C57.3,14.44,56.45,17.26,52.61,19.94Z"/><path class="cls-4" d="M10.93,9.71c-.26-5.08,3.3-8.58,8.2-8.3,1.72.1,1.6,1.37,2,2.34,1.4,3.16,3.7,5.18,7.24,5.06a6.67,6.67,0,0,0,6.64-5c.7-2.5,2-2.45,4-1.87A17.57,17.57,0,0,1,45.75,5c-2.12,14.72-.74,29.52-.93,44.28,0,4.34-.82,6.06-5.58,5.77a223.54,223.54,0,0,0-22.42,0c-4,.17-5.41-.67-5.28-5,.34-11.45.11-22.93.05-34.39C11.57,13.61,12,11.56,10.93,9.71Z"/><path class="cls-5" d="M9.66,20.94c-4.42,1.87-4.91-2.77-7-4.49s.68-2.72,1.45-3.87c1.34-2,3-3.72,5.3-6.48L9.92,15Z"/><path class="cls-6" d="M48.72,8c1,1.27,1.79,2.81,3,3.78,3.26,2.54,2.88,4.84,0,7.25-1.45.59-2.05,3.1-4,2.23s-.91-2.93-1-4.46c-.1-2.62.09-5.26.13-7.89C46.92,7.36,47.62,7.29,48.72,8Z"/><path class="cls-7" d="M34.22,2.4c-4.32,6-7.36,6.08-11.47,1C26.51,3.15,30,4.4,34.22,2.4Z"/><path class="cls-8" d="M27.93,11.74a27.75,27.75,0,0,0,8.13,10.47c2.15,1.69,2.8,4.49,2.4,7.27a7.12,7.12,0,0,0,.37,4.31c2.44,5.34,2.36,5.36-3.3,5.35-5.16,0-10.31-.11-15.46.06-3.59.12-5.77-.37-3.14-4.44a6.7,6.7,0,0,0,.93-5.18,8,8,0,0,1,3.05-8A18.13,18.13,0,0,0,27.93,11.74Z"/><path class="cls-9" d="M23.67,23c4.27-4.72,5.84-4.49,8.8,1.31.68,1.33,1.42,2.63,2,4,.82,2,2.84,3.77.35,6.19a9.32,9.32,0,0,1-8.53,2.78,7.73,7.73,0,0,1-5.92-4.78c-.73-1.54,1-2.64,1.52-4,.64-1.84,2.24-3.34,1.84-5.53Z"/><path class="cls-10" d="M22.6,37.36c-2.15.45-3.63,1-4.55-.52-.24-.4.45-2,.87-2.05C20.75,34.49,21,36.36,22.6,37.36Z"/><path class="cls-11" d="M23.71,22.94c-2.42,1-2.1,3.86-3.68,5.52-.24-4.46.84-6.06,3.64-5.49Z"/><path class="cls-12" d="M38.41,36.29c-.11,1.79-1.29,1.34-2.15,1.42-.67.06-1.47-.18-1.24-.94a2.82,2.82,0,0,1,2.25-2.18C37.62,34.55,38.1,35.8,38.41,36.29Z"/></g></g></svg>