<svg xmlns="http://www.w3.org/2000/svg" viewBox="0 0 19.07 60.88"><defs><style>.cls-1{fill:#533c26;}.cls-2{fill:#faccae;}</style></defs><g id="Layer_2" data-name="Layer 2"><g id="Layer_1-2" data-name="Layer 1"><path class="cls-1" d="M11,56.36c-1.77.79,0,2.9-1.46,3.87-1.82-.76-.14-2.71-1.28-3.76-1.53-.18-1.79,1-2.06,2.12S5.44,61,4,60.77c-1-.15-2.38-.72-1.14-2.17.28-.33,1.39.09,1.72-.24,4.9-4.89,4.36-11.12,4.12-17.27,0-1.25-.75-1.51-1.83-1.86-5-1.62-7.14-4.89-4.93-10C4.29,23.77,3,19.22.86,14.53-.67,11.14-.35,8.7,3.38,7.5S6.9,2.12,9.64,0c2.08,3.42,3.5,7.22,7.8,8.63,2.28.76,1.73,2.87,1,4.69-2.23,5.36-4,10.45-1.36,16.58,2.05,4.88,0,7.41-5.22,9.39-.44.17-1,.22-1.31.53-1.27,1.4-.27,14,1.47,14.81,2,.89,1,4.36,4.05,4,.82-.09.48,1,.05,1.46-1,1.09-2.17,1-2.93-.15S12.92,56.9,11,56.36Z"/><path class="cls-2" d="M9.18,37.66C3.39,37.6.76,34.79,3.36,29.49,6.15,23.8,4.42,19.16,2.5,14.31c-1.14-2.87-1.17-4.59,2-5.66a5,5,0,0,0,2.74-2c1.6-3,2.86-3,4.23.07.06.14.17.35.3.38C20,9.31,16.32,14.55,14.72,19a11.79,11.79,0,0,0,.56,9.51C18,34.5,15.58,37.72,9.18,37.66Z"/></g></g></svg>