<svg xmlns="http://www.w3.org/2000/svg" viewBox="0 0 35.96 58.68"><defs><style>.cls-1{fill:#5f442e;}.cls-2{fill:#654;}.cls-3{fill:#a67c8a;}.cls-4{fill:#98bac5;}.cls-5{fill:#a48089;}.cls-6{fill:#97b8cb;}.cls-7{fill:#9bb9c1;}.cls-8{fill:#9ab7cc;}.cls-9{fill:#9ab9c3;}.cls-10{fill:#95bbc9;}.cls-11{fill:#92bac3;}.cls-12{fill:#93bac9;}.cls-13{fill:#a87e8f;}.cls-14{fill:#a38087;}.cls-15{fill:#a57d86;}.cls-16{fill:#9f8083;}.cls-17{fill:#a48186;}.cls-18{fill:#ab7f89;}.cls-19{fill:#eddec5;}.cls-20{fill:#a4b8bd;}.cls-21{fill:#9eb5bb;}.cls-22{fill:#aa8570;}.cls-23{fill:#a68970;}</style></defs><g id="Layer_2" data-name="Layer 2"><g id="Layer_1-2" data-name="Layer 1"><path class="cls-1" d="M1.7,19.51C1.28,17.74,1,15.92.42,14.19c-1.18-3.62.16-5.5,3.66-6.76,2.7-1,5.92-1.15,7-5.19C11.86-.55,23.75-.83,24.65,2,26,6.18,29.36,6.45,32.41,7.6c2.73,1,4.18,2.64,3.28,5.68C32.23,25,33.66,37,33.44,49c-.15,8.16-1,9.21-8.9,9.53a93.93,93.93,0,0,1-17.42-.43C4.57,57.69,3.27,56.55,3.34,54A1.19,1.19,0,0,1,4,52.25c2.72.19,5.28,1.26,8,1.49,1.18.11,2.65.79,3-1.23.09-1,.85-1.95.64-3-2.74-3.37-7.3-3-10.6-5.21-1-1-2.72-1.72-.77-3.34C8,39.66,10.79,42.71,14.65,43c-3.6-2.26-7.54-2.79-10.79-4.81-.89-1.06-1.17-2.09.13-3,4-.76,7.21,1.94,11.17,2.8-1.87-2.46-5.65-1.44-6.9-4.34a1.66,1.66,0,0,1,1-1.67c1.76-.72,3.48.4,5.77.1-1.94-1.64-4.62-1.39-5.77-3.45a1.72,1.72,0,0,1,1-1.72c1.22-.66,2.58-.3,4.19-.55-2.26-1.84-5.58-1.18-7.15-3.72a1.69,1.69,0,0,1,1-1.72c2.07-1,4.12.07,7.38.18-4.59-1.59-8-3.07-11.83-2.49C3.19,19.05,2.69,19.84,1.7,19.51Z"/><path class="cls-2" d="M9.7,32.46l-1.14,1c-1.14,1-2.77,1-3.88,2-1.17.7-1.08,1.42,0,2.16a2.86,2.86,0,0,1,.25,3.71c-1.84,1.37.62,1.19.68,1.88.86,3.61,4.43,3.27,6.83,4.59,1.55.85,3.39,1,5,1.62.35,1.63-1.16,2.09-1.9,3-2.07,1.21-3.91,0-5.64-.76a4.55,4.55,0,0,0-5.45.86L3.34,54c-1.79-6.65-.43-13.42-.75-20.13-.23-4.78.25-9.59-.89-14.31.29-.66.58-1.32.88-2,2.61.41,5,1.12,6.16,3.89l-1.18,1c-.68.76-1.35,1.42.13,2.18,1.23.63,3,.85,3,2.81l-1.12.75C5.91,29.73,10.22,31,9.7,32.46Z"/><path class="cls-3" d="M4.46,11.23c3.24.7,6.76,1.53,10.31,2.18,1.72.31,2.94.92,2.48,2.83s-2,1.18-3.23.9Q8.75,15.86,3.54,14.45c-1.21-.33-2.1-1.17-1.78-2.54S3.25,11.11,4.46,11.23Z"/><path class="cls-4" d="M18.17,54.47a17,17,0,0,1,2.51-1.88c3.45-1.52,6.94-3,10.5-4.45C31.93,54.71,28,56.73,18.17,54.47Z"/><path class="cls-5" d="M33.08,10.88a1,1,0,0,1,1.13.78,1.94,1.94,0,0,1-1.11,2.47c-4.26,1.2-8.57,2.24-12.88,3.25a1.16,1.16,0,0,1-1.35-1.13,2.18,2.18,0,0,1,1.71-2.61C24.59,12.71,28.61,11.86,33.08,10.88Z"/><path class="cls-6" d="M33.12,16.06c.21,2.87-1.09,4-3.28,4.5-2.74.64-5.46,1.41-8.21,2-.94.21-2.23,1.62-2.78-.4a2.19,2.19,0,0,1,1.69-3.05Z"/><path class="cls-7" d="M4.46,52.57c-.59-4,1-4.46,4.29-2.9,2.2,1.06,4.53,1.87,6.8,2.8.81.77,2.75,2.48.91,2.56C12.44,55.2,7.82,56.36,4.46,52.57Z"/><path class="cls-8" d="M8.74,21.42c-2-1.32-5.11-1-6.16-3.89,2.31-3,4.67,0,6.79.29,2.82.42,8.23,0,7.55,3.79-.64,3.59-4.63-.8-7.2-.13A3.3,3.3,0,0,1,8.74,21.42Z"/><path class="cls-9" d="M20.39,34.32a1.26,1.26,0,0,1-1.6-1.19c-.18-1-.11-2.16,1-2.53,3.4-1.16,6.85-2.16,10.29-3.22.7-.21,1.34-.13,1.48.72s.33,2.11-.81,2.54C27.35,31.92,23.93,33.07,20.39,34.32Z"/><path class="cls-10" d="M20.17,45.48c-.73-.09-1.33-.3-1.38-1.14-.05-1,0-2.16,1.05-2.58,3.38-1.38,6.81-2.64,10.23-3.91.71-.27,1.42-.09,1.46.74s0,2.1-.43,2.29C27.5,42.53,23.81,44,20.17,45.48Z"/><path class="cls-11" d="M9.7,32.46a10.48,10.48,0,0,0-1.24-.75c-1.53-.68-4.37-.54-3.78-2.85.72-2.83,3.22-.4,4.89-.66,1.88.6,3.75,1.24,5.64,1.81,1.67.51,2.68,1.55,2.07,3.3-.76,2.2-2.19.42-3.27.27A36.91,36.91,0,0,1,9.7,32.46Z"/><path class="cls-12" d="M4.89,41.34a5.39,5.39,0,0,1-.25-3.71c3.74,1.29,7.47,2.61,11.22,3.84,1.46.48,1.65,1.51,1.41,2.73-.39,2-1.6,1-2.61.63Z"/><path class="cls-13" d="M20,51.11A1,1,0,0,1,18.78,50c-.08-1,0-2.08,1.06-2.54,3.34-1.41,6.71-2.75,10.07-4.11.68-.27,1.3-.26,1.51.6s.24,1.9-.52,2.26C27.33,47.93,23.69,49.47,20,51.11Z"/><path class="cls-14" d="M4.68,35.47c-.53-4.22,2-2.45,3.88-2,2.36.77,4.74,1.5,7.08,2.32A2.38,2.38,0,0,1,17.29,39c-.6,1.8-2.08.64-2.92.35C11.09,38.18,7.9,36.78,4.68,35.47Z"/><path class="cls-15" d="M10.69,27.45c-1.48-.62-2.93-1.36-4.46-1.83s-1.94-1.31-1.57-2.54c.51-1.73,2-.24,2.9-.62,2.36.69,4.71,1.41,7.08,2,1.51.4,3.15.83,2.57,2.8-.68,2.37-2.34.64-3.59.52C12.64,27.72,11.67,27.57,10.69,27.45Z"/><path class="cls-16" d="M21.1,39.54c-1.31.17-2-.1-2.25-1.07a1.74,1.74,0,0,1,.78-2.15C23,35,26.4,33.9,29.81,32.75a1.12,1.12,0,0,1,1.56.73c.24.82.24,1.85-.57,2.2C27.48,37.1,24.1,38.36,21.1,39.54Z"/><path class="cls-17" d="M21.09,28.35c-1.34.2-2,0-2.22-1.09-.16-.89.05-1.93.82-2.17,3.49-1.07,7-2,10.55-2.91.81-.22,1.21.18,1.25,1,0,1,0,2-1.29,2.35C27,26.48,23.87,27.48,21.09,28.35Z"/><path class="cls-18" d="M17.45,49.43c-2.47.73-11.3-1.75-12.52-3.62a1.82,1.82,0,0,1,.64-2.59c2.86,1.08,5.74,2.11,8.58,3.26C15.57,47.05,17.43,47.25,17.45,49.43Z"/><path class="cls-19" d="M12.29,3.07c4-1.94,7.45-1.77,11.45-.08C19.79,5.72,16.31,5.66,12.29,3.07Z"/><path class="cls-20" d="M19,10.86c4-.47,7.13-6.41,12.28-1.29L19.14,12.11Z"/><path class="cls-21" d="M16.8,12.09,5,9.62c5.05-5.5,8,1.3,12,1.13Z"/><path class="cls-22" d="M17.94,7.77c-3.2,1.31-4.61.35-5.87-1.74C14.25,5.44,15.62,6.54,17.94,7.77Z"/><path class="cls-23" d="M18.64,7.81A5.56,5.56,0,0,1,23.52,6C22.42,8.44,21.1,9,18.64,7.81Z"/></g></g></svg>