<svg xmlns="http://www.w3.org/2000/svg" viewBox="0 0 56.5 56.87"><defs><style>.cls-1{fill:#5b4a38;}.cls-2{fill:#d4efd7;}.cls-3{fill:#8db5cb;}.cls-4{fill:#d6f1da;}.cls-5{fill:#8db7c9;}.cls-6{fill:#dcecd5;}.cls-7{fill:#dcf0da;}.cls-8{fill:#47330d;}.cls-9{fill:#e1cbaa;}</style></defs><g id="Layer_2" data-name="Layer 2"><g id="Layer_1-2" data-name="Layer 1"><path class="cls-1" d="M28.16,56.8c-4.66,0-9.33-.16-14,.05C11,57,9.82,56,9.9,52.62,10.12,43.81,10,35,10,26.17c0-1.55.37-2.52-2.31-3-3.31-.55-5.14-4.41-7.43-7-.51-.58-.11-1.28.35-1.77C4.52,10.21,7.13,4.65,12.66,2.06c3.56-1.67,7-3.31,11.19-.62a9.22,9.22,0,0,0,8.73.08C38.87-2,43.45,1.2,47.74,4.81c3,2.54,5.21,6,7.83,9,1,1.19,1.42,2.27,0,3.33-2.65,2-3.59,6-7.78,6.28-1.91.14-1,2.09-1,3.17-.09,8.65-.21,17.31,0,26,.09,3.31-.9,4.44-4.19,4.29C37.81,56.64,33,56.8,28.16,56.8Z"/><path class="cls-2" d="M28,13.25C30.15,10,32.2,7.54,33.45,4.72,35.35.48,38.28,1.6,41.3,2.64S46.38,4.74,45.47,9c-1.69,7.86-1.33,7.93-9.64,7.93-6.81,0-13.62-.11-20.43,0-2.59.06-4.15-.35-3.77-3.41a7.56,7.56,0,0,0-.28-3.45c-1.94-5.17,1.33-6.66,5.26-7.9,2.91-.92,5-.6,6.37,2.57C24.23,7.57,26.12,10.08,28,13.25Z"/><path class="cls-3" d="M12.07,29.84c-1.15-11.15-1.15-11.16,9.73-11.17,6.14,0,12.29.2,18.41-.09,3.68-.17,5.23.86,4.71,4.68a53.46,53.46,0,0,0-.13,6.46,4.57,4.57,0,0,1-3.94,1.69q-12.37.16-24.77,0A4.83,4.83,0,0,1,12.07,29.84Z"/><path class="cls-4" d="M44.79,31.21c.45,11,.45,11-10.36,11-6.13,0-12.26-.2-18.37.08-3.45.16-4.85-.79-4.4-4.34.3-2.29.2-4.62.28-6.93C22.89,30.29,33.85,30,44.79,31.21Z"/><path class="cls-5" d="M28.35,55h-10c-6.16,0-8.65-3.69-6.58-9.52.55-1.55,1.63-1.42,2.75-1.42,9.14,0,18.27,0,27.41-.06,2.08,0,2.81.63,3,2.83C45.49,55,45.59,55,37.31,55,34.33,55,31.34,55,28.35,55Z"/><path class="cls-6" d="M10,7.58c0,3.77,0,7.53,0,11.3,0,1,0,2-1.07,2.58s-1.78-.27-2.53-.89c-5-4.09-5-4.52-.83-9.55L8.72,7.25Z"/><path class="cls-7" d="M48,7.44c1.89,2.24,3.69,4.55,5.69,6.69,1.32,1.39.72,2.27-.41,3.2-1.74,1.42-2.68,4.38-5.16,4.16-2.15-.18-1.29-2.69-1.36-4.2-.13-3.12,0-6.25,0-9.37Z"/><path class="cls-8" d="M44.79,31.21l-32.86-.16c-.78-.5-.48-.87.14-1.21l32.72-.12Z"/><path class="cls-9" d="M23.85,3.2a17.46,17.46,0,0,0,8.53,0l-4.23,7Z"/></g></g></svg>