<svg xmlns="http://www.w3.org/2000/svg" viewBox="0 0 17.26 59.74"><defs><style>.cls-1{fill:#4f3f2e;}.cls-2{fill:#e9e3c6;}.cls-3{fill:#98bcc8;}.cls-4{fill:#e8dfc4;}.cls-5{fill:#97b8c7;}.cls-6{fill:#e3dfbb;}.cls-7{fill:#9fbbcc;}.cls-8{fill:#eadfc1;}.cls-9{fill:#b5bcb3;}.cls-10{fill:#b8b5a0;}</style></defs><g id="Layer_2" data-name="Layer 2"><g id="Layer_1-2" data-name="Layer 1"><path class="cls-1" d="M2.09,0C3.74.1,4.18,1.35,4.85,2.19c2.65,3.37,5.12,3,7.76,0,.86-1,1.33-3.51,3.63-1.21s.18,3.24-1.15,4.13c-3.37,2.24-5.16,4.57-2.16,8.49.82,1.07.9,2.83,1,4.3.62,10.63,1.16,21.27,1.71,31.91.11,2.2-4.69,9.28-6.53,9.88-.89.29-1.25-.29-1.64-.72-3.1-3.34-6.37-6.16-5.7-11.83C2.9,37.54,2.92,27.84,3.42,18.2c.05-1-.3-2.28.2-2.93C7.27,10.44,6.06,6.89,1.06,4.1.38,3.72-.4,3,.24,2.09A20.61,20.61,0,0,1,2.09,0Z"/><path class="cls-2" d="M13.77,44.91c0,3.48-5.32,9.43-7.86,9.28-.79,0-1.65-1-2.22-1.68-.72-.9.07-1.41.82-1.87C7.44,48.84,10.36,47,13.77,44.91Z"/><path class="cls-3" d="M13.29,38.3c.19,7.92-6.23,7.53-9.35,10.39C3.27,42.08,9.7,42.48,13.29,38.3Z"/><path class="cls-4" d="M13.08,32.16C13.7,40,7.08,39.45,4,43.41,3.1,35.83,9.57,36.1,13.08,32.16Z"/><path class="cls-5" d="M4.78,35.66c-.87-6.11,4.37-6.23,8-8.91C13.61,33.56,7.42,32.94,4.78,35.66Z"/><path class="cls-6" d="M12,20.05c2,7.41-5,6.31-6.84,9.48C3.32,23.35,9.31,23.61,12,20.05Z"/><path class="cls-7" d="M5.46,23C4,17.38,8.63,17.18,11.05,15.23c.12-.1.94.29,1,.58.34,1.11.55,2.42-.5,3.19C9.77,20.36,7.79,21.5,5.46,23Z"/><path class="cls-8" d="M5.51,16.27c.27-2.36.94-4.4,3-5.34.71-.31,1.79.58,1.8,1.35C10.38,15.35,7.14,14.94,5.51,16.27Z"/><path class="cls-9" d="M14.16,52.1c-1.53,1.61-3.11,3.17-4.57,4.84-.82.92-1.39.52-2-.13s-.68-1.42.28-2c1.9-1.12,3.78-2.28,5.67-3.43Z"/><path class="cls-10" d="M6.29,6.4C8,6,9.48,5.35,10.59,6.65c.18.21-.54,1.7-1.13,2C7.16,9.74,7.41,7.38,6.29,6.4Z"/></g></g></svg>