<svg xmlns="http://www.w3.org/2000/svg" viewBox="0 0 27.68 42.89"><defs><style>.cls-1{fill:#52402a;}.cls-2{fill:#786955;}.cls-3{fill:#e4d7c6;}.cls-4{fill:#f6eed9;}.cls-5{fill:#f9f1da;}.cls-6{fill:#c6b69a;}.cls-7{fill:#7d6c56;}.cls-8{fill:#e1d2bd;}.cls-9{fill:#4e4542;}.cls-10{fill:#a0bac1;}.cls-11{fill:#615245;}.cls-12{fill:#4a636a;}.cls-13{fill:#dcd3c3;}</style></defs><g id="Layer_2" data-name="Layer 2"><g id="Layer_1-2" data-name="Layer 1"><path class="cls-1" d="M18.35,4.35c.94,1.72,2.35,3.21,2.38,5.37,0,1.33,0,2.88,2.18,1.86.89-.41,2.06.69,1.94,1.05-1.16,3.51.81,5.9,2.52,8.56A2.1,2.1,0,0,1,26,24.36c-.54.15-1.43.76-1.39,1.08.64,6.21-5.58,9.13-6.84,14.54-1.12,4.82-5.55,2.11-8.47,2.49-2.69.35-3-2-2.94-4.14a1.28,1.28,0,0,1,1.22-.45c2.38.89,4.72,3.92,7.18.16-.23-1.1-2.15-1.54-1.21-3.08A4.58,4.58,0,0,1,15,34.78c-2.1.48-4.8.5-7.41,1-.36.86-.29,1.94-1.2,2.54C-.85,30.05-1.69,22,2.63,12.45c1.66-3.68,3-7.55,4.83-11.2.86-.43,1.27.1,1.63.75,1.17,4.63,4.57,2.55,7.32,2.41A2.24,2.24,0,0,1,18.35,4.35Z"/><path class="cls-2" d="M18.35,4.35,17.27,5.5c-2.68-1.68-6.14-1.18-8.72-3.13L7.46,1.25C13.73-1,16.48-.27,18.35,4.35Z"/><path class="cls-3" d="M23.54,22A11.57,11.57,0,0,1,12,33.19C6,33,.51,27.37.59,21.46A11.78,11.78,0,0,1,12.18,10.17C18.78,10.15,23.61,15.17,23.54,22Z"/><path class="cls-4" d="M8.55,2.37c3.23.12,7.17-1.71,8.72,3.13-2.06,1.49-4.4.33-6.59.66C6.69,6.76,7.19,4.8,8.55,2.37Z"/><path class="cls-5" d="M17.25,37.65c-1.06,1.58-1,4.12-4.2,3.61-2.38-.37-4.92.27-5.66-3C7.62,36,9.47,35.76,11,36.07,13.06,36.51,15.43,36.09,17.25,37.65Z"/><path class="cls-6" d="M20.07,10.76C14.94,8.92,10.93,8.26,6.9,10c-.69.29-1.34.3-1.51-.52a1.78,1.78,0,0,1,.43-1.37C7.59,6.25,17.53,7.49,20.07,10.76Z"/><path class="cls-7" d="M17.25,37.65c-3.31-.17-6.7-1.55-9.86.65l-1,0,0,0c-.26-1.09-.52-2.18-.77-3.27a11.75,11.75,0,0,1,7.91.33C14.38,36.83,17,35.3,17.25,37.65Z"/><path class="cls-8" d="M13.55,35.42l-7.91-.33C5.26,33.6,5.47,33,7.31,33.41c6.47,1.34,6.48,1.27,11.49-.49C17.89,35.37,17.89,35.37,13.55,35.42Z"/><path class="cls-9" d="M12,31.46A9.64,9.64,0,0,1,2.37,21.6c0-5.6,4.71-10.35,10.05-10.1A10.4,10.4,0,0,1,22.2,22,10,10,0,0,1,12,31.46Z"/><path class="cls-10" d="M12.37,13.21c5,.06,8.25,3.64,8.13,8.79A8.27,8.27,0,0,1,12,30a8.72,8.72,0,0,1-8.32-8.37A8.5,8.5,0,0,1,12.37,13.21Z"/><path class="cls-11" d="M12.37,23.12c-2-.34-4.92.93-5.09-2.86-.19-4.27,3-3,5.14-3.09s4.92-.78,4.91,2.91S14.5,22.88,12.37,23.12Z"/><path class="cls-12" d="M16.13,25.25c-2.7,1.25-5.43,1.29-9,.37C10.53,23.67,13.34,24.43,16.13,25.25Z"/><path class="cls-13" d="M12.12,21.35C11,21,8.89,22,8.89,20.12c0-2.1,2.22-1.44,3.56-1.51s3.14-.47,2.94,1.54S13.27,21,12.12,21.35Z"/></g></g></svg>