<svg xmlns="http://www.w3.org/2000/svg" viewBox="0 0 48.67 60.04"><defs><style>.cls-1{fill:#533825;}.cls-2{fill:#684d31;}.cls-3{fill:#67513e;}.cls-4{fill:#a47c85;}.cls-5{fill:#a57d84;}.cls-6{fill:#e1eed9;}.cls-7{fill:#eae0cb;}.cls-8{fill:#9e7e80;}.cls-9{fill:#e7ebd8;}.cls-10{fill:#e8e7cc;}.cls-11{fill:#e9e0d1;}.cls-12{fill:#cfaa83;}.cls-13{fill:#cea273;}.cls-14{fill:#e6d7b8;}.cls-15{fill:#dda97a;}.cls-16{fill:#a37e78;}</style></defs><g id="Layer_2" data-name="Layer 2"><g id="Layer_1-2" data-name="Layer 1"><path class="cls-1" d="M37.87,17.69a20.12,20.12,0,0,1,9.48,4.12c.73.55,1.67,1.31,1.18,2.47-.39,1-1.4.61-2.17.68-8.19.8-8.19.8-8.18,9.13,0,6.11,0,12.22,0,18.78-1.4-1.59-2.43-3.59-3.26-.28-2-.39-.16-3-1.94-3.43-1.26-.55-3,.42-3.91-1.29-1-4-3,.53-4.33-.46a1.94,1.94,0,0,1-1.13-.7c-.23-2.11,1.3-3.29,2.52-4.58A7.92,7.92,0,0,0,28.3,35c-5.38,3.57-9.37,8.14-13.55,12.5-2,2.14-1.26,5-1.74,7.55a3.59,3.59,0,0,1-1.13,1.82L11.74,60c-2.25-.91-1.4-2.59-1.4-3.86,0-8.76-.1-17.53.17-26.28.11-3.81-1-5.54-5-4.83a15.39,15.39,0,0,1-3.46,0c-.77,0-1.73.19-2-.9s.44-1.56,1-2.08A13.2,13.2,0,0,1,7.6,18.71a1.39,1.39,0,0,1,1.3-.1c.64,2.52-3.16,1.89-2.94,4.6,1.6-2.44,3.19-4.4,6.17-3.89a7.58,7.58,0,0,1,1.35.64,169.85,169.85,0,0,0,22,0,3.9,3.9,0,0,1,3.61,0c.29.13.63.39.89.32,2.39-.7-.21,3.17,2.23,2.41.31-.1.63-.09.89-.2-1.13-.78-1.92-2.06-3.39-2.36C38.77,19.57,37.25,19.42,37.87,17.69Z"/><path class="cls-2" d="M11.91,20.88l-.12-1.17c-.73-.63-1.8-.09-2.53-.73L7.6,18.71C14.08,16.81,18.91,12.36,24,8.28c2-1.61,4.88-2.82,2.07-5.54S22,3.49,19.85,6.22c-.31-3.77,1.13-5.16,3.32-6s3.93.35,5,2.14c1.95,3.17.17,5.27-2.52,7,4.42,2.49,7.3,6.87,12.18,8.34l2,1.95c.06.69-.63.76-.94,1.14-.75-.07-1.57-.89-2.21.21a9.41,9.41,0,0,1-4.33-.73,19.42,19.42,0,0,0-16.65.08A6.54,6.54,0,0,1,11.91,20.88Z"/><path class="cls-3" d="M29.72,47.63c1,.82,3-.74,3.26,1.53-.35,3.49-3,6.51-1.88,9.8-1.24,3-1.64-4.38-2.87.29-.06.23-.47.37-.71.55-.9-2.54-1.46-1.57-2.7,0s-.06-3-1.87-1.11c-2.58,2.76-1.25-1.1-2.19-1.21-1.69-.18-1.07,3.29-1.58,2-1.49-3.89-1.44-1.93-2.31.11-.34.81-.82-.1-1.14-.66-.2-.35.73-2-.88-1s-1.89,1-3-.93c0-.75.07-1.49.1-2.23,4-2.29,6-7.4,11.21-7.89l1.68.07c.34,3.44-2.69,4.53-4.34,6.47C24.3,52.77,25.49,47.7,29.72,47.63Z"/><path class="cls-4" d="M23.19,46.78c-2.19,2-4.41,3.89-6.56,5.9-1.33,1.25-2.54,2.64-4.65,2-1-4.57.84-7.85,4.35-10.8,4.32-3.61,8.23-7.71,12.48-11.76C32.24,39.34,27.28,42.89,23.19,46.78Z"/><path class="cls-5" d="M13.42,27.33c4-2.91,8-6.07,12.83-4.27L12,37.58c0-3.31-.85-6.86,1.31-10.16Z"/><path class="cls-6" d="M12.25,45.85c-.85-3.3-.15-5.44,2.12-7.47C19.28,34,23.9,29.3,29.22,24.19c.38,2.66,1,4.55-.68,6.14C23.2,35.47,17.81,40.56,12.25,45.85Z"/><path class="cls-7" d="M11.91,20.88q12.45-7.93,24.82.11A99.59,99.59,0,0,1,11.91,20.88Z"/><path class="cls-8" d="M36.37,41.64c-6.1-2.74-5.76-7.47-5.24-12.7C37.28,31.52,37.3,36.2,36.37,41.64Z"/><path class="cls-9" d="M29.72,47.63c-9,8.68-6.92,7.59-13.83,6.86l9-7.64L29.34,43C29.5,44.93,29.61,46.28,29.72,47.63Z"/><path class="cls-10" d="M36.36,31c-1.3-1.2-2.39-2.16-3.42-3.17s-2.24-2-1.87-3.82a1.25,1.25,0,0,1,1.41-1.1c1.83.19,2.93,1.59,3.79,2.95S36.91,28.93,36.36,31Z"/><path class="cls-11" d="M31.21,40.19c1.75.08,2.36,1.65,3.45,2.54,1.28,1,2.42,2.25,2,4.16a1.19,1.19,0,0,1-1.42,1c-1.94-.36-3-1.85-3.86-3.43A6,6,0,0,1,31.21,40.19Z"/><path class="cls-12" d="M9.26,19c.9.06,1.91-.28,2.53.73-1.43.64-1,1-2.86,3.35-1.41,1.8-4.18.15-7.2,1.29C4,20.68,7.34,20.91,9.26,19Z"/><path class="cls-13" d="M38.94,20.78l.94-1.14c2.19,1,4.58,1.58,6.89,3.89H39.06C39.56,22.66,42.35,21.64,38.94,20.78Z"/><path class="cls-14" d="M13.42,27.33l-.1.09c-2.18-.48-1.7-2.31-1.33-3.48.61-1.9,2.37-.86,3.79-1C16,25.08,13,25.31,13.42,27.33Z"/><path class="cls-15" d="M18.68,15.72c3.75-5.53,7.19-5.49,12,.4A23.4,23.4,0,0,0,18.68,15.72Z"/><path class="cls-16" d="M29.61,52.47C29.66,54,29,55,27.36,54.85a3.89,3.89,0,0,1-1.61-.5c.26-1.58,1.52-2.39,2.79-3C29.19,51,29.63,51.72,29.61,52.47Z"/></g></g></svg>