<svg xmlns="http://www.w3.org/2000/svg" viewBox="0 0 59.52 43.61"><defs><style>.cls-1{fill:#513d20;}.cls-2{fill:#d4c19b;}.cls-3{fill:#dfdfba;}.cls-4{fill:#e0c6a6;}</style></defs><g id="Layer_2" data-name="Layer 2"><g id="Layer_1-2" data-name="Layer 1"><path class="cls-1" d="M33.3,43.53c-1.54-.17-4.5.26-7.31-1.05-6.48-3-12.63,1.73-19.21.85C.36,42.48.6,43.11.08,36.62A34.15,34.15,0,0,1,1.83,23.93C3.89,17,2.35,9.74,4,2.78,4.18,1.76,3.39.08,5.1,0S6.81,1.57,7.33,2.81C8.07,4.57,4.7,6.11,7,7.45c3.78,2.25,8.09,3,12.18,1.17,6.05-2.73,5.95-2.94,7.9,3.21,1.68,5.28,4,10.11,8.13,14.07,5.28,5.1,11.72,4.81,18.26,4.51,2.53-.11,5.29-.32,6,3,.48,2.46-.14,4.49-3,5.53C49.38,41.58,42.35,44.1,33.3,43.53Z"/><path class="cls-2" d="M57.73,33.27c-8.56,4.44-17.48,7.1-26.93,5.08A99.49,99.49,0,0,0,6,36.54c-4,.15-5.36-1.58-4.52-5C3.16,24.77,5.17,18.08,4.38,11,4.22,9.45,5.07,8.9,6.5,9,8.37,9.1,9.06,10.13,9,11.93c0,5,0,10,0,15,0,2.22-.78,5.33,2.31,5.8,3.67.56,7.63,1.18,11.17-.65,1.54-.8,1-2.71.76-4.15Q22,20.29,20.62,12.7c-.33-1.74-.72-3.36,1.56-4s2.74,1,3.11,2.73a19.24,19.24,0,0,0,1,3.34C31.69,27.47,37.9,33.09,52.06,32,54,31.86,56,31.22,57.73,33.27Z"/><path class="cls-3" d="M10.46,20.68c0-1.49,0-3,0-4.47,0-5.83.4-6.06,6.09-5.57,2,.17,2.43,1,2.71,2.71C20.06,18.24,21,23.12,22,28c.54,2.64-.31,3.49-3,3.61-8.47.38-8.47.48-8.52-7.92,0-1,0-2,0-3Z"/><path class="cls-4" d="M58.27,36.17C49.44,40.71,40.38,44,31,41.42c-8.16-2.24-15.75.11-23.59.13l-3.49,0c-1.24,0-2.35-.11-2.45-1.75-.13-1.89,1-2.15,2.51-2.13,7.15.07,14.42-.81,21.37,1.13,10.67,3,20.7,1.45,30.55-3a5.68,5.68,0,0,1,1.42-.35C57.43,35.48,57.58,35.68,58.27,36.17Z"/></g></g></svg>