<svg xmlns="http://www.w3.org/2000/svg" viewBox="0 0 26.8 60.28"><defs><style>.cls-1{fill:#6c4522;}.cls-2{fill:#dc9a77;}.cls-3{fill:#de9b77;}.cls-4{fill:#9f7b68;}.cls-5{fill:#ac8776;}.cls-6{fill:#a9847f;}.cls-7{fill:#a37e68;}.cls-8{fill:#d8b897;}</style></defs><g id="Layer_2" data-name="Layer 2"><g id="Layer_1-2" data-name="Layer 1"><path class="cls-1" d="M13.32,33.68c-.47,6.46-.74,12.94-1.48,19.37-.38,3.24-.34,7.23-5.48,7.23-4.45,0-6.9-1.79-6.26-6.12C1.88,42.05.73,29.93.79,17.83c0-5.46,1.86-10.39,2.56-15.62C3.55.67,4.65.46,5.88.46c2.17,0,4.34-.12,6.5,0,3.59.23,9-1.68,10.37.83a27.2,27.2,0,0,1,3.52,13.22c-.23,11.15,0,22.32-.12,33.47,0,3.08,1.32,6,.23,9.27-.84,2.54-2.13,3.09-4.31,3s-4.69.78-5.7-2.51c-1.83-6-1.15-12.18-2.1-18.22-.3-2-.3-4-.45-6Z"/><path class="cls-2" d="M11,8.54c4,14.87-.88,28.8-.8,42.84,0,4.69-2.74,3.82-5.46,4-3.89.32-2.46-2-2.43-4.11.15-10.48.38-21,0-31.44-.19-5.46,4.43-8.58,5.3-13.41.17-.94,1.76-.81,2.7-.55C12.46,6.49,10.81,8.16,11,8.54Z"/><path class="cls-3" d="M24.55,36.44c.29,3.75-.9,10.25.47,16.67.44,2.07-.93,2.38-2.29,2.15-2-.33-5.24,1.65-5.57-2C16,41,15.14,28.74,14.3,16.49c-.21-3.16,2.9-5.82,1.53-9.36C15.35,5.86,17,5.86,17.91,5.69c1.55-.3,1.61,1,2.28,1.94C26.05,15.65,24.16,24.86,24.55,36.44Z"/><path class="cls-4" d="M18.76,58.2c1.77-1.41,3.58-1.45,5.72-.59C22.55,59.89,20.6,58.5,18.76,58.2Z"/><path class="cls-5" d="M11.7,2.87C9,4.33,7.33,4.27,5.23,3.33,7.12,1.53,8.88,2.08,11.7,2.87Z"/><path class="cls-6" d="M15.75,3A7.4,7.4,0,0,1,22.44,3C20,4.37,18.28,4.27,15.75,3Z"/><path class="cls-7" d="M9,57.62c-2.14,1.67-3.75,1.54-6.22.37A7,7,0,0,1,9,57.62Z"/><path class="cls-8" d="M5.13,6.15a10.33,10.33,0,0,1-2.06,6.56C2.84,9.58,3.33,7.66,5.13,6.15Z"/></g></g></svg>