<svg xmlns="http://www.w3.org/2000/svg" viewBox="0 0 59.1 15.12"><defs><style>.cls-1{fill:#624324;}.cls-2{fill:#f2ac83;}.cls-3{fill:#ead0b6;}.cls-4{fill:#efd7bd;}.cls-5{fill:#f1ebe0;}.cls-6{fill:#e8caaa;}</style></defs><g id="Layer_2" data-name="Layer 2"><g id="Layer_1-2" data-name="Layer 1"><path class="cls-1" d="M29.69,15.1H4.75c-2.19,0-4.76.25-4.75-2.88s2.73-3,4.8-2.68C15,10.91,23.56,6.6,32.14,2.1c6.11-3.19,12.3-2.9,15.26,2,2.45,4,4.6,6.32,9.43,5.61,1.45-.21,2.35,1.25,2.26,2.73-.12,2.08-1.58,2.71-3.46,2.71l-21.94,0Z"/><path class="cls-2" d="M56.85,12.91H2V11.85H56.86Z"/><path class="cls-3" d="M36.16,2.53c5.7-1.55,9.14.06,11.47,5.55C44.65,4.57,38.54,7.73,36.16,2.53Z"/><path class="cls-4" d="M22.06,8.76c2.33-1.1,4.7-2.14,7-3.33a1.92,1.92,0,0,1,2.86.82c.43.67,1.22,1.51,1.08,2.07-.37,1.42-1.85,1.09-2.91,1.13-2.62.1-5.24,0-7.86,0Z"/><path class="cls-5" d="M35.81,9.24c3.25-2.49,6-2.52,10.13,0Z"/><path class="cls-6" d="M32.29,3.73c2.66-1.26,3.25.92,4.27,2.19C36.65,6,36.09,7,35.83,7,33.66,7,33.18,5.24,32.29,3.73Z"/></g></g></svg>