<svg xmlns="http://www.w3.org/2000/svg" viewBox="0 0 48.86 55.68"><defs><style>.cls-1{fill:#5e422a;}.cls-2{fill:#613f2b;}.cls-3{fill:#a17b87;}.cls-4{fill:#a37d86;}.cls-5{fill:#f7d49b;}.cls-6{fill:#d8c19f;}.cls-7{fill:#d7ac83;}.cls-8{fill:#d2ae7e;}</style></defs><g id="Layer_2" data-name="Layer 2"><g id="Layer_1-2" data-name="Layer 1"><path class="cls-1" d="M9.26,47.45c-.83,3.6.87,9-6.13,8.13-2-.25-3-.61-3-2.84-.29-14.5-.32-29,4.14-43C6.49,2.7,13-1,20.29.23a26.42,26.42,0,0,0,7.94.06C36.5-.88,42.5,2.87,45,11c4.1,13.59,4.09,27.54,3.8,41.53,0,2-.63,3.25-2.85,3S41,56.65,40.3,53.09c-.35-1.73,0-3.67-2.07-5.77.39,4.75-2,5.34-5.55,5.16a141.12,141.12,0,0,0-17,0c-4.24.31-5.3-1.49-4.92-5.13a2.66,2.66,0,0,1,1.14-1C18,45.22,24.16,46,30.28,45.81c5.34-.2,5.72-.76,6.21-6.08,1-10.75-1-21.52.41-32.27.38-2.91-1.86-4.2-4.47-2.94a9,9,0,0,0-1.6,1.18c-6,4.92-6.35,5.44-12.54.09-3.45-3-6-1.12-8.82.85-.31.39-.62.76-.92,1.15-5.06,12-5.45,24.53-5,37.23.12,3.64,2.11,3,4.32,1.94A1.54,1.54,0,0,1,9.26,47.45Z"/><path class="cls-2" d="M9.26,47.45,8,47.3c-1.61-8.56-.77-17.19-.48-25.76.17-5,.56-9.92.26-14.9a5.88,5.88,0,0,1,.53-.58c4.59,0,4.67,3.54,4.77,6.59a64.55,64.55,0,0,1-.62,9.92c-.88,7-1.14,13.86.25,20.78a4.68,4.68,0,0,1-.53,3.83l-1.39.2Z"/><path class="cls-3" d="M12.19,47.18C9.87,41,9.84,34.49,10.22,28c.29-5,1.09-9.89,1.41-14.86.18-2.83,0-5.75-3.31-7.1,5.06-4.83,6.23-4.95,11-1.08,5.58,4.49,5.58,4.49,11.31-.83a5.89,5.89,0,0,1,8.5.33c.44.55.76,1,.36,1.73-3.65,6.42-1.37,13.34-1.25,20,.09,5.31-.39,10.57-.31,15.86,0,3.63-1.31,5.4-5.34,5.23C25.82,47,19,47.18,12.19,47.18Z"/><path class="cls-3" d="M7.79,6.64c2.24,2.23,2.51,5,2.09,7.9C8.54,23.65,8.73,32.8,9,42A12.09,12.09,0,0,1,8,47.3c-.29,2.58-1.9,3.22-4.22,2.92-2.57-.33-1.9-2.35-1.93-3.85-.18-11.44-.07-22.88,3.27-34C5.73,10.38,6,8.11,7.79,6.64Z"/><path class="cls-4" d="M41.65,6.61C46.93,20.28,47.39,34,47,47.77c0,1.58-.58,2.53-2.33,2.45-1.45-.06-3.06.35-3.58-1.73a24.92,24.92,0,0,1-1.21-6.82c.21-8.8.46-17.59-.73-26.36C38.75,12.46,38.32,9.3,41.65,6.61Z"/><path class="cls-5" d="M35.69,50.12H12.8v-.86H35.7Z"/><path class="cls-6" d="M18.39,1.63a28.09,28.09,0,0,0,11.83.1C26.39,6.19,22.58,6.17,18.39,1.63Z"/><path class="cls-7" d="M1.19,53.21c2.44-1.52,3.94-1.45,6-.4C5.32,54.34,3.8,54.21,1.19,53.21Z"/><path class="cls-8" d="M48.05,52.8c-2.93,1.39-4.43,1.63-6.33.11C43.7,51.56,45.21,52,48.05,52.8Z"/></g></g></svg>