<svg xmlns="http://www.w3.org/2000/svg" viewBox="0 0 55.22 54.95"><defs><style>.cls-1{fill:#5b4421;}.cls-2{fill:#755e3b;}.cls-3{fill:#755d3a;}.cls-4{fill:#d5c19c;}.cls-5{fill:#d6c39c;}.cls-6{fill:#d7c39d;}.cls-7{fill:#d7c19b;}.cls-8{fill:#e6e1c0;}.cls-9{fill:#e0c8a7;}.cls-10{fill:#d5be99;}.cls-11{fill:#e1c5a2;}.cls-12{fill:#e2cca5;}.cls-13{fill:#dbc39e;}.cls-14{fill:#d8c29d;}.cls-15{fill:#4d3a16;}</style></defs><g id="Layer_2" data-name="Layer 2"><g id="Layer_1-2" data-name="Layer 1"><path class="cls-1" d="M43.34,45.45c.46,3-.55,4.47-3.86,4.86A92.78,92.78,0,0,1,15.7,50.2c-1.72-.23-3.93,0-3.61-2.88-.17-2.44-1.71-5.09,1.05-7.1.85.58,1.17,1.58,1.8,2.32a4.94,4.94,0,0,0,5.78,1.65c2-.8,1.23-3,.94-4.44-1.84-9.61-.78-19.82-6-28.59-.34.51-.28,1.35-.63,2.05a2,2,0,0,1-1.59,1.21c-2.43-1.09-2.82.9-3.35,2.37A118,118,0,0,0,5.42,31.43c-.41,1.86-.43,4-2.69,4.94-1.24-.54-1.09-1.47-.68-2.46A86.21,86.21,0,0,1,8.62,12.53C10,9.44,12,7.21,15.26,6.33a13,13,0,0,0,5.38-3.4C24.91-1,30.37-.95,34.8,3c.74.66,1.36,1.77,2.2,2,9.47,2.29,11.17,10.5,13.6,18a89,89,0,0,1,4.62,27.44c0,2.92-.3,4.69-4,4.52-3.18-.15-5.71-.18-5.15-4.4a17.68,17.68,0,0,0-.09-3c-.25-1.53-.9-3.11.46-4.48,1.82.16,1.29,1.48,1.29,2.58,0,.29-.31.85,0,.83,3.28-.23,3.28-.25,4.17,1.53a94.68,94.68,0,0,0-7.86-33.89c-1.41,5.89,1.35,10.89,1.27,16.15a2.53,2.53,0,0,1-1.7,2.18c-3.51-2.26-2.62-6.55-4.51-9.81-2,.41-2.94,2.49-4.64,3.37-1.19.62-2.5,1.38-3.48-.16-.83-1.28.21-2.19,1.11-2.91,3.43-2.72,6.51-5.68,7.39-10.24a2.49,2.49,0,0,0-.18-2c-1.36,7-6.17,11.57-11.14,16-3,2.67-3.55,14.16-1,17,2.3,2.57,11.42.82,14.24-2.73,1.12-1.15,2-1.24,2.16.63A8.56,8.56,0,0,1,43.34,45.45Z"/><path class="cls-2" d="M13.51,41.49c-.95-.82-1.33-.42-1.35.64,0,1.73-.05,3.46-.07,5.19l-1.63-7.78C10,44.2,9.3,47.65,9.35,51.08c.06,4.19-2.56,3.71-5.27,3.85C1.14,55.09-.13,54.15,0,51c.25-5.77.24-11.54,2-17.11L3,36.1c2.55,3.78-.4,7.73.61,10.88,4.39-1.75,3.19-6.48,4-10.39,1.36-6.68,3.65-13.16,4.29-20a2.88,2.88,0,0,1,1.44-2.48l1-1.18c3.24,1.56,2.25,4.47,2,6.93a76.79,76.79,0,0,1-3.5,14.53c.11.85.1.77.21.26.57-2.54,1-6.43,4.16-5.54,3,.84.8,4.28.15,6.44S16.38,40.55,13.51,41.49Z"/><path class="cls-3" d="M47,43.18c-1.26,1.21-.53,2.9-1,4.3-.39-2.09-.78-4.18-1.24-6.67l-1.42,4.64c-.05-1.25-.09-2.5-.17-3.75-.05-.68-.45-.67-.82-.26a2.42,2.42,0,0,0-.31.88c-4.35-2.7-4.07-7.49-5.17-11.64A1.46,1.46,0,0,1,37.64,29a1.87,1.87,0,0,1,2.22.56C41.39,31,41.7,33,42.14,34.84c-.16.75.73.24.06.24-.09,0,0-.17,0-.5a2.46,2.46,0,0,1,1.24-2.49l.9-2.14C47.84,33,48.94,38.4,47,43.18Z"/><path class="cls-4" d="M43.41,32.09v6.15l-1,.13L38.86,29l-1.45.47L42,42.32c0,1.08.59,2.48-1.15,2.81a64.2,64.2,0,0,1-13.91,1c-1.25,0-1.67-.86-1.75-2A10.65,10.65,0,0,0,25,41.64c-2.9-9.11-1-16.31,8-20.88,3.09-1.58,3.46-3.65.47-6,4.22-1,4.22-1,4-7.55,1.57.44,4.42,1,4,2-1.14,2.94.19,6.6-2.79,9a44.29,44.29,0,0,0-7.07,7.15c3.5-.95,5.21-4.18,8.41-6.23C41.18,23.62,42.29,27.85,43.41,32.09Z"/><path class="cls-5" d="M13.51,41.49a52.46,52.46,0,0,0,4.31-13.38c-3.62,3.41-3,7.57-5.18,10.42-2.22-4.36.15-8.18.9-12.11.86-4.47,2.73-8.87.82-13.5-.92-3.21-.6-5.6,4.25-5.49-3.84,4.12.63,7.14,1.29,10.62,1.52,8.1,2,16.32,3.58,24.37.72,3.62-.89,4.34-3.48,3.37C17.62,44.89,12.32,47.85,13.51,41.49Z"/><path class="cls-6" d="M47,43.18A48.22,48.22,0,0,0,44.31,30c-1.25-6.38-4-12.7-.88-20.22a91.09,91.09,0,0,1,10,43.72c-3.26-2.35-2.12-6-4.07-8.16-2,0-.54,2.32-1.89,2.85C47.31,46.47,47.17,44.82,47,43.18Z"/><path class="cls-7" d="M13.36,14.1c.39,8.11-3,15.53-4.36,23.32a57.81,57.81,0,0,0-1,9.67c-2.06-3.34-2.58-1.69-3.27.57-.51,1.68-.23,3.68-2.53,5.72-.57-6.25.16-11.76.85-17.28,1.79-8.82,4.05-17.47,8.51-25.62C13.2,11.21,12.89,12.87,13.36,14.1Z"/><path class="cls-8" d="M27.87,14.87c-2-2.78-2.46-5.58-3.23-8.23-.42-1.44-1.52-3.55.35-4.37a7.26,7.26,0,0,1,5.29,0c1.8.81.86,2.92.43,4.39C29.94,9.35,28.92,11.92,27.87,14.87Z"/><path class="cls-9" d="M24.73,25.57c2.2-4.79,3.76-8.18,5.36-11.64,4,2.38,4.33,4.51.41,6.93A63.45,63.45,0,0,0,24.73,25.57Z"/><path class="cls-10" d="M26.09,47.78l15.29-.86C38.24,49.36,32.06,50.05,26.09,47.78Z"/><path class="cls-11" d="M33.07,3.91c2.68,1.61,1.78,4.15,2.67,6,.32.66.73,1.84-.26,2.1a7.8,7.8,0,0,1-3.78,0c-1-.25-.54-1.38-.35-2.12C31.83,8,32.4,6.2,33.07,3.91Z"/><path class="cls-12" d="M22.09,3.9c.65,2.16,1.19,3.87,1.69,5.6.26.9,1,2.07-.3,2.55a5.84,5.84,0,0,1-3.41.16c-1.3-.38-.81-1.69-.44-2.52C20.42,7.91,19.74,5.59,22.09,3.9Z"/><path class="cls-13" d="M21.21,17.76l3.53-4c2.15,1.95,2.85,4.45.57,6.25C23.57,21.35,22.63,18.61,21.21,17.76Z"/><path class="cls-14" d="M23.87,48.41a13.64,13.64,0,0,1-11-1.24C17.32,47,20.62,47,23.87,48.41Z"/><path class="cls-15" d="M36.44,39.56a3.22,3.22,0,0,1-3.32,3.17c-1.77.11-3.67-.65-3.85-2.91-.15-2,1.5-2,2.76-1.81C33.58,38.2,35.81,37,36.44,39.56Z"/></g></g></svg>