<svg xmlns="http://www.w3.org/2000/svg" viewBox="0 0 60.67 24.38"><defs><style>.cls-1{fill:#5b482e;}.cls-2{fill:#d7eed8;}.cls-3{fill:#e1f1e0;}.cls-4{fill:#98bacb;}.cls-5{fill:#59523c;}.cls-6{fill:#b59c79;}.cls-7{fill:#9dbbc7;}.cls-8{fill:#e3cba8;}.cls-9{fill:#c4b39b;}</style></defs><g id="Layer_2" data-name="Layer 2"><g id="Layer_1-2" data-name="Layer 1"><path class="cls-1" d="M38.39,24.26a15.47,15.47,0,0,1-4,0c-10-2.8-20.27-1.69-30.44-1.63C1.24,22.6-.31,21.83.26,19,1.06,14.9-1,10.83.67,6.71,1.79,3.93,2.55,2.39,5.82,4.5c4.59,3,9.09,2.15,13.38-1.13,6.41-4.92,11.3-4.64,16.17,2.1,2.54,3.5,5.63,4.31,9.12,5s6.94.68,10.41,1.1c3.14.37,5.42,2.11,5.74,5.29.35,3.36-2.36,4.32-5,5.1A60.44,60.44,0,0,1,38.39,24.26Z"/><path class="cls-2" d="M27.64,5.42c.73.86,1.48,1.69,2.18,2.58a2.49,2.49,0,0,1,.59,2.74c-.57,1.17-1.68.84-2.62.75-5-.47-9.62-.35-12.85,4.43C14.12,17.13,4,16.68,3,15.46c-2.1-2.42-1.3-5.29-.76-8C2.52,6,3.18,4.9,5,6,11,9.61,16.39,8.1,21.28,3.69c1.15-1,2.39-.9,3.67-1C26.25,3.22,27.64,3.63,27.64,5.42Z"/><path class="cls-3" d="M46.18,15.55c2.87-2.94,6.19-3.51,10-2,1.17.47,2.24,1.21,2.23,2.36,0,1-1.28,1.33-2.25,1.55L46,19.72a4,4,0,0,1-1.53.92c-3.86.54-7.75.18-11.63.28-1.87-.22-4.63.35-4.75-2.2s2.5-3.28,4.7-3.51A60.24,60.24,0,0,1,46.18,15.55Z"/><path class="cls-4" d="M26.87,17.91c-3.41,1.61-6.36-.83-10.15-.73C18.85,13,22.2,12.64,25.61,13c2.8.26,5.57.88,8.4.55a1.89,1.89,0,0,1,.43,1.31C32.26,16.68,29.12,16.21,26.87,17.91Z"/><path class="cls-5" d="M26.87,17.91c1.48-3.16,4.89-2,7.24-3.24,3.62-2.86,7.26-2.28,10.9,0l1.17.92c-2.94,1.6-6.13.76-9.21.94-2.91.17-5.95-.23-8.54,2.1,1.37,1.23,3,.86,4.43,1.13a50.46,50.46,0,0,0,12.22-.07,1.84,1.84,0,0,1,1,.07l1.12.86c0,.16-.06.45-.13.46-7.21,1.24-14.43,2.45-21.32-1.39Z"/><path class="cls-6" d="M25.71,19.65a37.6,37.6,0,0,0,21.45.93c3.53.19,6.73-1.45,10.26-1.51C54,21.52,50,22.23,45.94,22.41c-8.13.35-16.24.44-24.23-1.71-1.81-.49-3.82-1.29-5.83-.43-.67-.33-1.16-.77-.93-1.61C18.65,17.81,22.08,19.84,25.71,19.65Z"/><path class="cls-7" d="M45,14.63l-10.9,0c0-.39-.06-.78-.1-1.17.9-2.68,1.83-4.74,5.38-2.61,1.75,1,4.31.66,6.23,1.52C48.38,13.65,45.75,14,45,14.63Z"/><path class="cls-8" d="M15,18.66l.93,1.61c-3.74,1-7.57.31-11.35.5-1.15.06-2.51.11-2.43-1.63.1-2.2,1.76-1.48,2.95-1.38C8.36,18,11.65,18.35,15,18.66Z"/><path class="cls-9" d="M30.23,5.35c4.55.05,5.1,1.46,2.17,7.48-.22-3.15-.82-5.46-2.44-7.31Z"/><path class="cls-9" d="M27.64,5.42c-.9-.9-1.79-1.81-2.69-2.72,2.87-1.31,4.9-1,5.28,2.66L30,5.52Z"/><path class="cls-6" d="M45.08,19.65a20.38,20.38,0,0,1-12.22.07Z"/></g></g></svg>