<svg xmlns="http://www.w3.org/2000/svg" viewBox="0 0 61.31 23.29"><defs><style>.cls-1{fill:#57422b;}.cls-2{fill:#fbfcf7;}.cls-3{fill:#fafcf7;}.cls-4{fill:#fdf9e7;}.cls-5{fill:#f2ebd8;}.cls-6{fill:#f5f0e2;}.cls-7{fill:#f5f1e4;}.cls-8{fill:#e3e9d2;}.cls-9{fill:#e8e0c9;}.cls-10{fill:#f5ebd6;}.cls-11{fill:#f9eed9;}.cls-12{fill:#fef8e0;}</style></defs><g id="Layer_2" data-name="Layer 2"><g id="Layer_1-2" data-name="Layer 1"><path class="cls-1" d="M47.3,23.27c-8.4,0-12.81-3.58-14.23-10.84-.32-1.66-.48-3.81-2.41-3.82s-2.1,2.11-2.4,3.81C27.09,19.16,22.73,23,16.11,23.27c-7.52.3-11.14-2.18-13-9.19A4.87,4.87,0,0,0,1.13,11.4C-.28,10.26-.4,8.71.92,7.54,6.27,2.79,11.68-1.07,19.76.27c8.34,1.38,17,.92,25.34-.14C52.42-.79,55.83,4.9,60.82,7.94c.38.23.63,1.6.4,1.79-3.45,2.84-2.39,8.17-6.09,10.84A14.72,14.72,0,0,1,47.3,23.27Z"/><path class="cls-2" d="M46,13.12c-3,0-6,0-9,0-1.28,0-2.46-.15-2.39-1.72s1.38-1.15,2.27-1.16q9-.08,17.9,0c.92,0,2.13-.15,2.14,1.32s-.94,1.57-2,1.57Z"/><path class="cls-3" d="M16,13.11c-3,0-6,0-9,0-1.12,0-2.55.24-2.53-1.54,0-1.45,1.21-1.33,2.16-1.33q9,0,18,0c1,0,2.17-.12,2,1.43-.14,1.18-.94,1.53-2.12,1.49C21.62,13.07,18.79,13.12,16,13.11Z"/><path class="cls-4" d="M25.86,14.58c-.42,2.57-1.72,3.14-3.63,3.11-4.81-.08-9.63-.15-14.44,0C6.18,17.71,5,17.42,5,15.74c0-2,1.73-1.09,2.63-1.11C13.62,14.54,19.59,14.58,25.86,14.58Z"/><path class="cls-5" d="M35.41,14.57c6.42,0,12.56,0,18.71,0,.87,0,2.15-.48,2.14,1.14a1.92,1.92,0,0,1-1.79,2.07q-8.47,0-17-.24C36.25,17.52,35.57,16.47,35.41,14.57Z"/><path class="cls-6" d="M35.21,8.14c2.76-3.95,18.6-3.86,21.21,0Z"/><path class="cls-7" d="M26.36,8.35c-6.71,0-12.82,0-18.93,0-.75,0-1.77.32-2.12-.63s.34-2,1-2c6.33-.14,12.71-1.33,19,.61C25.58,6.41,25.71,7.11,26.36,8.35Z"/><path class="cls-8" d="M36.68,2.49c-5.05,6.85-7.56,6.78-11.67,0Z"/><path class="cls-9" d="M52.41,4H39.53C43.73,1,48,1.06,52.41,4Z"/><path class="cls-10" d="M22.54,19.62c-5.24,2.57-9.52,2.24-13.84,0Z"/><path class="cls-11" d="M38.33,19.51H52.75C48.42,21.9,44.08,22.09,38.33,19.51Z"/><path class="cls-12" d="M8.33,3.5a14.15,14.15,0,0,1,13.38,0Z"/></g></g></svg>