<svg xmlns="http://www.w3.org/2000/svg" viewBox="0 0 45.19 58.95"><defs><style>.cls-1{fill:#643d1e;}.cls-2{fill:#7e5338;}.cls-3{fill:#dd9c79;}.cls-4{fill:#df9c79;}.cls-5{fill:#e59e7f;}.cls-6{fill:#e09f7d;}.cls-7{fill:#a17b86;}.cls-8{fill:#a27c84;}.cls-9{fill:#784c22;}.cls-10{fill:#d69c73;}.cls-11{fill:#d59c73;}.cls-12{fill:#e2ad8c;}.cls-13{fill:#a88777;}</style></defs><g id="Layer_2" data-name="Layer 2"><g id="Layer_1-2" data-name="Layer 1"><path class="cls-1" d="M28.27,1.1a4.08,4.08,0,0,1,4,2.49c3.35,8.26,10,14.92,10.77,24.52.76,9.09,2,18.14,2.13,27.29,0,2.52-1.26,2.93-3.24,3.41-2.29.56-3-.67-3.51-2.38-.25-.79-.49-1.58-.74-2.38-3.74,2.77-26.73,2.6-30-.31-.37,1.09-.77,2.12-1.08,3.17C6,59.05,4.58,59,2.7,58.65.62,58.29,0,57.39,0,55.37,0,43,1,30.8,4.53,18.91,5.66,15.12,7,11.37,11,9.27c2.32-1.22-.22-4.62,2.2-6.06,1.22-.59,1.85.45,2.68.94.34.25.65.51,1,.79s.66.55,1,.83a9,9,0,0,0,9,0,8,8,0,0,0,1.15-1.26c0-1.46-2.19-1.35-2-2.88C26.49.53,27.33.59,28.27,1.1Z"/><path class="cls-2" d="M15.4,5c-1.25.07-1.31-1.38-2.23-1.74C17.7-1.11,23-.26,28.27,1.1l-2.12,1C24.79,4,22.73,3.49,20.87,3.59S17,3.6,15.4,5Z"/><path class="cls-3" d="M21.09,13.23c1.59,6.58.45,13.26.83,19.88.14,2.45-1.26,2.73-3.16,2.51-3.2-.38-4.51,1-5.09,4.25s-2.32,6.4-4.08,9.57c-.65-7.62-1.2-15.25.07-22.84.69-4.13,1.58-8.06.1-12.26-1.09-3.08,1.87-4.45,6.53-3.11.51-1.85-2.4-1.76-1.85-4,1.84,1.08,3.67,1.94,4.69,3.94,0,5.37,0,10.73,0,15.28.08-2.64-.11-6.1.07-9.55C19.24,15.51,18.38,13.36,21.09,13.23Z"/><path class="cls-4" d="M34.78,50.24c-.38-3.65-2.36-6.23-2.93-9.16-.78-3.95-2.06-6.46-6.65-5.64-1.15.2-1.87-.64-1.86-1.82.07-6.53-.6-13.11.53-19.58h1.38V32.52l1.71,0c0-5.64.35-11.31-.12-16.91-.32-3.78,1.64-4.6,4.43-5.15s4.8,1.68,3.93,4.57a15.57,15.57,0,0,0-.28,8.82C37.12,32,36,40.39,36,48.67,36,49,35.52,49.35,34.78,50.24Z"/><path class="cls-5" d="M37,14.36c4.27,9.46,4.94,18.35,5.95,27.14.33,2.8.19,5.65.47,8.45.17,1.74-.39,2.35-2.11,2.47-1.45.11-2.66.23-3.05-1.56a7.05,7.05,0,0,1-.49-1.92c.89-10.14-.08-20.17-1.52-30.19C36.06,17.74,36.55,16.65,37,14.36Z"/><path class="cls-6" d="M7.62,15.18a6.26,6.26,0,0,1,1.31,6.15c-2.24,8.84-1.77,17.8-1.75,26.76,0,2.19.48,5-3.49,4.32-1.63-.3-2.32-.87-2.16-2.57C2.59,38.31,3.12,26.68,7.62,15.18Z"/><path class="cls-7" d="M22.09,43.82c-1.16,1.87,2.26,5.76-2.93,6.2-7.06.59-7.6,0-4.91-6.72.78-1.94.65-4.43,2.55-5.71a3.93,3.93,0,0,1,4.26,0C23.11,39.15,21.53,41.61,22.09,43.82Z"/><path class="cls-8" d="M23.19,43.62c0-1.15,0-2.31,0-3.47,0-1.33-.1-2.85,1.84-2.84,1.54,0,3.46-.75,4.31,1.38.67,1.68,1.18,3.43,1.82,5.13,2.32,6.1,2,6.58-4.59,6.18C23.25,49.79,23.25,49.79,23.19,43.62Z"/><path class="cls-9" d="M21.09,13.23c-2.3,3.48-.64,7.34-1,11-.27,2.75-.05,5.54-1,8.32-.54-7.12-2.05-14.2,0-21.36l2.15.92,0,0Z"/><path class="cls-10" d="M29.77,51.16c1.75,1,5.24-1.3,5.27,1.49S31.57,54.06,29.73,54c-2.08,0-6,1.27-6-1C23.79,49.74,27.7,52.18,29.77,51.16Z"/><path class="cls-11" d="M16,54.32c-2-.75-5.64,1-5.62-1.4,0-3,3.6-1.35,5.55-1.45s5.53-1.18,5.51,1.1C21.41,55.72,17.74,53.27,16,54.32Z"/><path class="cls-12" d="M15.4,5c-.31-2.79,1.91-2.51,3.48-2.66,2.41-.24,4.84-.17,7.27-.23,1.11.92,4.76-.84,3.15,3-4.41.43-8.83,1.35-13.21-.17A1.61,1.61,0,0,0,15.4,5Z"/><path class="cls-2" d="M16.09,4.86A24.79,24.79,0,0,1,29.3,5L28.16,6.1C24.3,8,20.35,7.24,16.41,6.44,16.3,5.92,16.2,5.39,16.09,4.86Z"/><path class="cls-13" d="M16.41,6.44,28.16,6.1C25.3,8.92,20.62,9.06,16.41,6.44Z"/><path class="cls-3" d="M21.28,12.11c-1.83-4.4,1.69-2.09,3-2.49-.62,1.34-.17,4.05-3.07,2.47Z"/></g></g></svg>