<svg xmlns="http://www.w3.org/2000/svg" viewBox="0 0 52.9 59.15"><defs><style>.cls-1{fill:#51432d;}.cls-2{fill:#675a42;}.cls-3{fill:#917e64;}.cls-4{fill:#f9f6d6;}.cls-5{fill:#e3ecd6;}.cls-6{fill:#e1ead8;}.cls-7{fill:#f8f0d7;}.cls-8{fill:#e2ddca;}.cls-9{fill:#ede6cf;}.cls-10{fill:#c6b5a3;}</style></defs><g id="Layer_2" data-name="Layer 2"><g id="Layer_1-2" data-name="Layer 1"><path class="cls-1" d="M2.83,25.29c-3-.4-3.49-1.86-2-4.44a63.19,63.19,0,0,0,4-8,13.59,13.59,0,0,1,10-8.75c2-.48,3.43-1.9,5.07-3A48.33,48.33,0,0,0,33,1.15c1.08.73,2.07,1.9,3.25,2.13,10.25,2,12.17,11.16,16.2,18.54,1.33,2.43-.53,3-2,3.46-7,1.95-8.78,6.57-8,13.4.61,5.24.12,10.61.1,15.93,0,1.64.25,3.56-2.18,3.72-9.89.67-19.78,1.75-29.58-.77a140.34,140.34,0,0,1,0-21.11c2.95-.38,2.42,2,2.57,3.53.37,3.81.15,7.65.15,11.47,0,2.95,1.36,4.22,4.25,4.22,5.66,0,11.32-.05,17,0,3.46,0,4.7-1.66,4.7-4.92,0-8.32,0-16.64,0-25A35.14,35.14,0,0,1,41,13.51c.5-1.39,1-3-.29-4.23-1.93-1.94-3.29-1.09-4,1.15-.86,2.77-2.34,4.71-5.41,5.14-2.08.29-2.08,2.37-2.91,3.73-.5.84-.88,1.93-2.08,1.88-1,0-1.39-.95-1.53-1.73-.47-2.69-2.07-3.91-4.71-4.31-2-.3-3-1.93-3.75-3.68-.56-1.24-.51-3.32-2.67-3-2,.32-2.48,2-2.54,3.77a8.25,8.25,0,0,1-.21,1.48,2.59,2.59,0,0,1-1.29,1.68c-1.2.33-2.09-1.55-2.26-1.22-.87,1.71-2.07,3.37-2,5.42C5.4,21,6.75,21.79,7.24,23a2,2,0,0,1-.1,1.31c-.75,1.29-2.72-.66-3.25,1.23A1.11,1.11,0,0,1,2.83,25.29Z"/><path class="cls-2" d="M11.76,36.25c-1.86,7,0,14.24-1,21.31C9.12,51.42,10,45.15,10.18,39c.23-6.33-.27-11.6-7.35-13.7l1.45-.16c.71-.92,1.94.47,2.62-.59,0-.41,0-.82,0-1.23,2.55-2.21.64-5.64,2.23-8.12l1-1.26A2.31,2.31,0,0,1,12,15.33C14.24,22.32,15.13,29.32,11.76,36.25Z"/><path class="cls-3" d="M33,1.15c-4.39,2.93-8.78,3.21-13.16,0A19.44,19.44,0,0,1,33,1.15Z"/><path class="cls-4" d="M11.76,36.25c-.16-7.47,1.59-15.08-1.63-22.32C10.08,11.56,7.07,9,11.53,7c3.89-1.71,5.79-2.07,6,3,.14,3,1,5.69,5.19,3.95,2.44-1,2.75,1,2.92,2.67.15,1.55-.42,3.19.86,4.65-.66-2.08,2.63-3.24.92-5.75-.64-1,.9-2.38,2.1-1.78,4.81,2.36,4.91-1.16,6.07-4.17C36.06,8.36,34,3.86,38.51,6c2.55,1.24,7.3,1.18,4.44,6.5-2.7,5.05-2,10.67-2,16.14,0,8-.16,16,0,24,.07,3.11-.63,4.55-4.05,4.46-7.15-.2-14.3-.18-21.45,0-2.93,0-3.67-1.11-3.6-3.85C12,47.56,11.81,41.9,11.76,36.25Z"/><path class="cls-5" d="M45.2,11.63c5.8,9.56,5.8,9.56-2.06,12.59C42.29,19.61,42.56,17.83,45.2,11.63Z"/><path class="cls-6" d="M9.15,15.19c.31,2.11.63,4.21.91,6.32.41,3.12-1.22,2.72-3.14,1.8-4.57-2.49-4.57-2.49.44-11.5C8.57,12.62,8.6,14,9.15,15.19Z"/><path class="cls-7" d="M30,4.38a29.45,29.45,0,0,1-3.66,9.05C24.6,10.56,22.76,7.55,23.45,5,23.91,3.23,27.51,4.43,30,4.38Z"/><path class="cls-8" d="M20.43,3.3c.88,2.32,1.77,4.65,2.63,7,.31.84.36,1.73-.74,1.93-.73.14-1.45.82-2.3.12C18.33,10.93,18.56,5.09,20.43,3.3Z"/><path class="cls-9" d="M32.65,2.31c2.43,3.7,1.27,6.48.57,9.22-.34,1.34-1.35,1.06-2.36.79-1.2-.33-1.55-.93-1.07-2.15C30.7,7.85,31.51,5.47,32.65,2.31Z"/><path class="cls-10" d="M6.9,24.54l1.59,1.28c-1.7.88-2.79-1.09-4.21-.69-.48-1-2.21-.78-2.16-2.61Z"/></g></g></svg>