<svg xmlns="http://www.w3.org/2000/svg" viewBox="0 0 42.93 55.21"><defs><style>.cls-1{fill:#52412e;}.cls-2{fill:#fccaae;}.cls-3{fill:#95b8c6;}.cls-4{fill:#95b6c4;}.cls-5{fill:#ccb497;}</style></defs><g id="Layer_2" data-name="Layer 2"><g id="Layer_1-2" data-name="Layer 1"><path class="cls-1" d="M0,34.94C1,26.11,1.59,17.32,2.83,8.57c1-6.71,6.91-10.38,13-7.67a13,13,0,0,0,10,.18c8.42-2.82,13.26.32,14.47,9.19,1.66,12.23,2.08,24.54,2.64,36.85.13,2.92-.46,4.78-3.67,3.94s-2.8,3.09-5.43,3.36C25.49,55.3,17.16,55.76,9,54.1c-2.63-.53-4.55-3.55-8-3.26C-.38,51,.08,49,.06,47.91,0,43.59,0,39.26,0,34.94Z"/><path class="cls-2" d="M28,4.08c2.87-.39,4.21,1.42,5.19,3.67A20.81,20.81,0,0,1,35,16.47c-.11,10.66-.27,21.32-.09,32,.06,3.5-1.09,4.41-4.47,4.73a103.19,103.19,0,0,1-18.93-.08c-2.46-.22-3.46-1-3.44-3.62.08-11.66,0-23.32-.09-35A15.69,15.69,0,0,1,9.63,7.75c1.3-2.74,2.68-4.57,6.44-2.34C20,7.74,24.51,8.29,28.07,4Z"/><path class="cls-3" d="M29.78,1.47c5.89.92,8.75,3.23,9.09,8.18C39.7,21.72,41.09,33.76,41,45.87c0,1.64,1,3.93-2.18,3.92-2.83,0-2.51-2-2.5-3.86.06-10.6-.1-21.19.72-31.8C37.42,9.41,34.22,5.45,29.78,1.47Z"/><path class="cls-4" d="M12.88,1.45C7.76,6.74,5.49,11.61,6.11,18.26c.87,9.22.46,18.56.62,27.84,0,1.95,0,3.74-2.73,3.69s-2.11-2-2.09-3.58C2.13,33.94,2.81,21.7,4.2,9.5,4.73,4.86,7.1,2.39,12.88,1.45Z"/><path class="cls-5" d="M28.07,4c-4.59,1-9.22,2.57-14.17-2,4.9,1.26,8.88,1.66,12.88.5,1.4-.4.93.91,1.24,1.5Z"/></g></g></svg>