<svg xmlns="http://www.w3.org/2000/svg" viewBox="0 0 60.85 23.46"><defs><style>.cls-1{fill:#5e422d;}.cls-2{fill:#a27c87;}.cls-3{fill:#a27d87;}.cls-4{fill:#ceb68f;}.cls-5{fill:#b79c73;}</style></defs><g id="Layer_2" data-name="Layer 2"><g id="Layer_1-2" data-name="Layer 1"><path class="cls-1" d="M39.58,23.31c-3.63-.37-7.34-.41-10.88-1.18C20.65,20.37,13,24,4.94,23.38c-4-.33-5.1-1.33-4.92-5.17C.21,14.14-.52,10,1.24,6.08,2.1,4.17,2.66,3,5.16,4.36,11.45,7.7,17.4,7,22.34,1.64c1.84-2,3.5-2,5.66-.87,3.63,2,7.36,3.63,10.22,6.86,2.54,2.87,6.15,3.59,9.93,3.69a43.49,43.49,0,0,1,8.38.87,5.3,5.3,0,0,1,4.31,4.89c.2,2.79-2.4,2.84-4.15,3.43A46.31,46.31,0,0,1,39.58,23.31Z"/><path class="cls-2" d="M30.35,11.93c-4.45-.27-8.19.57-11.3,3.61-1.53,1.51-15.13,2.3-16.31.81-2.09-2.63-1-5.68-.22-8.52C3.4,4.73,5.58,6.69,7,7.09,11.7,8.47,16.11,8.3,20.29,5.45c4.84-3.31,8.22-3.27,12.46.51.69.61.78,1.35,2,1.29,1.54-.08,1.82,1.26,1.51,2.49S35.61,12,34,11.94C32.71,11.88,31.37,11.93,30.35,11.93Z"/><path class="cls-3" d="M20.46,16.83c4.48-7.15,13.55.67,17.77-6.18,6,3.36,13.19,1.26,20.54,4.31C45.42,21.12,33.06,18.8,20.46,16.83Z"/><path class="cls-4" d="M26.84,20.06c-7.25-1.21-14.11,2.7-21.36,1.67-1.48-.21-3.77.7-3.57-2,.16-2.33,2.27-1.48,3.54-1.44,7.11.25,14.22.64,21.32,1,.25.16.34.33.28.52S26.92,20.06,26.84,20.06Z"/><path class="cls-5" d="M26.84,20.06a7.35,7.35,0,0,1-.07-.82c10.75,1.09,21.49,2.13,31.93-1.78C48.48,22.73,37.78,22.69,26.84,20.06Z"/></g></g></svg>