<svg xmlns="http://www.w3.org/2000/svg" viewBox="0 0 46.85 56.22"><defs><style>.cls-1{fill:#544023;}.cls-2{fill:#6c5539;}.cls-3{fill:#dfdfbe;}.cls-4{fill:#e6e2c0;}.cls-5{fill:#ddc5a6;}.cls-6{fill:#dccdb1;}.cls-7{fill:#e3d3b4;}.cls-8{fill:#e2cdab;}.cls-9{fill:#e3e2bd;}.cls-10{fill:#e4d2b1;}</style></defs><g id="Layer_2" data-name="Layer 2"><g id="Layer_1-2" data-name="Layer 1"><path class="cls-1" d="M36.85,53.63c-8.26,3.81-16.74,2.74-25.23,1.11-2.47-.47-2.77-2.48-2.95-5.1C7.26,52,8,55.5,3.61,54.43c-4-1-3.71-3.2-3.52-6.15C.91,35.53,2,22.81,5.37,10.43A13.76,13.76,0,0,1,20.06.4c4.27.49,8.85-1.93,12.81,1.37A4.43,4.43,0,0,1,32.73,5a5.18,5.18,0,0,1-2,2.8c-5.47,2.77-5.42,7.63-5.31,12.76.17,8.61,0,17.24,0,25.86,0,6.37.07,6.37,6.45,5.65A13.47,13.47,0,0,1,35.41,52C36.24,52.22,37.06,52.49,36.85,53.63Z"/><path class="cls-2" d="M36.85,53.63l-1-.94c-1.71-1.52-1.55-3.61-1.57-5.57q-.1-13.23,0-26.46A13.45,13.45,0,0,1,35,15.24c2.15-4.77,1.38-8.6-3.1-11.51l1-2c5.59.92,7.79,4.8,9,9.86,3.06,12.8,4,25.83,5,38.89.27,3.68-2.46,3.39-4.48,4-3.72,1.05-3-2.3-3.85-4.19C37.23,51.1,38.43,53.06,36.85,53.63Z"/><path class="cls-3" d="M22.59,31.88c0,6.32-.21,12.65.07,19,.15,3.35-1.13,3.88-4.06,3.62-7.86-.72-7.93-.63-8-8.45-.07-6.48-.06-13,.09-19.47.12-5.68.11-11.33-2.21-16.65-1.31-3,.34-4.16,2.6-5.4,2.07-1.15,3.58-1.44,4.76,1.11a3.79,3.79,0,0,0,2.07,2.06c5.8,1.27,4.69,5.75,4.7,9.73C22.6,22.22,22.59,27.05,22.59,31.88Z"/><path class="cls-3" d="M31.88,3.73c6.83,1.14,7.75,2.35,5.48,8.54C35.84,16.44,36,20.67,35.94,25q0,13.88-.11,27.74a2.39,2.39,0,0,1-.43.25C24.55,56.33,24,56,24,45c0-10.28,0-20.55,0-30.83,0-2.63,0-4.71,3.27-5.58A7.12,7.12,0,0,0,31.88,3.73Z"/><path class="cls-4" d="M7.26,11.64a94.16,94.16,0,0,1,.25,34.9C7.28,47.8,6.88,49.23,5,48.76c-1.43-.35-3.08-.3-3-2.49A131.29,131.29,0,0,1,7.26,11.64Z"/><path class="cls-5" d="M18.92,3.76C21-.61,24.57,3.25,27.85,1.41c-2.66,5.45-5.93,3.31-9,2.27Z"/><path class="cls-6" d="M23.05,7.85c3.41-2,5.65-3.5,7.3-5.61C29.53,5.24,28.05,7.54,23.05,7.85Z"/><path class="cls-7" d="M18.85,3.68c-.25,2.6,2.88,1.86,3.8,4.43A8.67,8.67,0,0,1,15.7,2.4c1.89-.91,1.84,1.82,3.22,1.36Z"/><path class="cls-8" d="M3.46,50c.83.39,2.37.1,2.37,1.69,0,1.09-1,1.08-1.8,1-1-.08-2.09-.28-2.25-1.42C1.66,50.4,2.34,49.83,3.46,50Z"/><path class="cls-9" d="M39.36,12.27c3.6,11,4.48,22.14,5.42,33.32.15,1.87-.58,2.66-2.38,3s-2.81-.3-3.14-2.07A92.9,92.9,0,0,1,39.36,12.27Z"/><path class="cls-10" d="M44.81,50.74c.06,1.53-1,1.62-1.92,1.79s-1.76.29-1.91-.77c-.22-1.42,1.15-1.2,2-1.5S44.47,49.87,44.81,50.74Z"/></g></g></svg>