<svg xmlns="http://www.w3.org/2000/svg" viewBox="0 0 50.41 53.69"><defs><style>.cls-1{fill:#603f1f;}.cls-2{fill:#5d3c1b;}.cls-3{fill:#7c5435;}.cls-4{fill:#ecb47e;}.cls-5{fill:#dda27b;}.cls-6{fill:#daa17c;}.cls-7{fill:#ae8781;}.cls-8{fill:#e9b892;}.cls-9{fill:#ebb37c;}.cls-10{fill:#d6a07f;}.cls-11{fill:#dca386;}.cls-12{fill:#bb8996;}.cls-13{fill:#edbc94;}</style></defs><g id="Layer_2" data-name="Layer 2"><g id="Layer_1-2" data-name="Layer 1"><path class="cls-1" d="M27.66,9.63a27.59,27.59,0,0,0,1.25,11.08c.69,2.07.53,4.61-1.61,5.86-6.37,3.7-10.19,9.91-15.21,14.94a12.46,12.46,0,0,1-2.71,2.15,5.69,5.69,0,0,1-7.31-1C0,40.6-.77,38.07.92,35.43a59.2,59.2,0,0,1,5.79-8.1c5.57-6.18,8.12-13.23,7-21.5-.61-4.38.7-6.07,5.5-5.8C27.24.47,27.26.14,27.66,9.63Z"/><path class="cls-2" d="M36,9.51C49.07,8.4,49.07,8.4,49,21.33a3,3,0,0,0,0,1c3.75,9-.59,14.58-7.5,19.67-3.26,2.41-5.58,6.09-8.4,9.13-2.61,2.81-5.87,3.49-8.91,1.19-3.3-2.5-3.32-5.91-.94-9.24,2.59-3.64,5.16-7.32,7.93-10.82a19.27,19.27,0,0,0,3.87-8c1.35-.18,1.57.82,1.84,1.77-.19,5.58-4.9,8.87-6.87,13.54-.55,1.31-2.1,2.3-1.47,4,.75,2.08,4.12,3.13,5.69,1.5,3.18-3.32,7.87-5.72,6.7-11.81-.4-2.09,1.1-4.53,2.52-6.35A12.83,12.83,0,0,0,46,17.64c-.11-.64-.2-1.28-.28-1.92-.08-.4-.13-.81-.17-1.21A2.24,2.24,0,0,0,44.74,13c-2.64-.85-5.5.24-8.08-1C35.77,11.35,35.1,10.64,36,9.51Z"/><path class="cls-3" d="M36,9.51c.07.74.22,1.44,1,1.75,3.21,1.39,6.76-.45,10,1l-.05,2c-2.75,1-5.81-.1-8.55.73a17.53,17.53,0,0,1,8.6.25l0,1.81c-.1.13-.19.36-.3.38-5.1.81-8.8,3.17-9.75,8.66,0,.18-.56.21-.9.2l-1-2.05C35.42,19.37,33.81,14.32,36,9.51Z"/><path class="cls-4" d="M25.89,12.94c.75,4.12-5.53,6.45-4.73,10.42C22.7,31,15.79,33.17,13.07,38c-1.54,2.73-2.8,1.85-4.25-.1-.75-1-.8-2.52-2.94-2.55-1.48,0-2.09-.82-.56-3.2,3.47-5.41,8.81-9.9,9.77-16.8a8.59,8.59,0,0,1,.42-1.43c.59-1.84-1.77-4.51.41-5.44s5.22-.74,7.86-.66C27.18,7.89,25.71,10.49,25.89,12.94Z"/><path class="cls-5" d="M9.41,41.41a2.89,2.89,0,0,1-3.33,1.51c-2.88-.42-4.26-2.29-4.19-5.14,0-1.05.55-2,1.87-1.57A10.32,10.32,0,0,1,9.41,41.41Z"/><path class="cls-6" d="M26.26,17.89c1.39,3.42,2.19,6.09-.85,8.16-.61.41-1.75,1.12-2.09.1C22.27,23,23.4,20.44,26.26,17.89Z"/><path class="cls-7" d="M15.71,5.18h9.2l0,.66h-9Z"/><path class="cls-8" d="M15.8,2.77a21.47,21.47,0,0,1,10.53-.22C22.22,3.79,19,3,15.8,2.77Z"/><path class="cls-9" d="M36,26.34c.28-.74.92-1.55.81-2.22-1.19-7,2.94-7.57,8.19-6.9A10.81,10.81,0,0,0,47,17.1c.43,3.47.79,6.67-1.75,9.92-1.92,2.46-4.34,5.55-2,9.37.55.89-.63,1.74-1.28,2.46L32.75,49.16c-.35-.18-.73-.26-.84-.48-1.44-2.73-6.44-3.39-5.8-6.22.45-2,3-4.4,4.49-6.7C32.56,32.72,35.46,30.19,36,26.34Z"/><path class="cls-10" d="M24.26,45.08c2-.09,6.64,4.12,6.42,5.46s-1.49,1.65-2.61,1.6c-2.85-.14-4.46-1.84-4.87-4.56A2.59,2.59,0,0,1,24.26,45.08Z"/><path class="cls-11" d="M47.82,27.06c1.31,3.4,2.29,6.14-1,8.25-.63.39-1.5,1.12-2-.09C43.54,32,45.07,29.64,47.82,27.06Z"/><path class="cls-12" d="M47,15.29H38.1l0-1h8.84A1.43,1.43,0,0,1,47,15.29Z"/><path class="cls-13" d="M47,12.29c-3.29-.59-6.82,1-10-1C40.33,11.47,43.87,9.75,47,12.29Z"/></g></g></svg>