<svg xmlns="http://www.w3.org/2000/svg" viewBox="0 0 26.41 60.37"><defs><style>.cls-1{fill:#533c1b;}.cls-2{fill:#6c5c3a;}.cls-3{fill:#4f331d;}.cls-4{fill:#e6e3c1;}.cls-5{fill:#e3e1bc;}.cls-6{fill:#e5e6c1;}.cls-7{fill:#e4dfbd;}</style></defs><g id="Layer_2" data-name="Layer 2"><g id="Layer_1-2" data-name="Layer 1"><path class="cls-1" d="M10.79,59.56c-9.44,1.27-9.47,1.27-9.74-8.1C1,47.86,1,44.26,1,40.65c.33-.8.78-1.4,1.78-1A3.24,3.24,0,0,1,4,41.73c.63,4,.13,8,.31,12,0-14.47-.2-28.93-.08-43.18-1.86,4.4.45,9.6-2.1,14.12a1,1,0,0,1-1.41,0C-.87,17.39.62,10.11.81,2.83.87.57,2.1.08,4,.08c6.14,0,12.28.1,18.42-.08,2.49-.07,3.14,1.09,3.33,3.23,1.44,16.46.06,32.87-.68,49.3,0,.65-.23,1.3-.28,1.95-.38,4.92-3.24,6.79-8.1,5.49-2.43-.65-1.8-2.51-1.8-4-.06-10.8,0-21.6-.65-32.41C12.2,25,13.23,27,12.63,28.6c-3.14-1-1.8-3.86-2.36-5.92-.28-5,2.18-10.07-.06-15.46-2.11,1.39-1.7,3.32-1.72,5-.11,13.32.09,26.64-.15,40,0,1.76-.5,3.77,1.79,4.69C11,57.58,11.72,58.37,10.79,59.56Z"/><path class="cls-2" d="M11.7,22.5c.66,2-.48,4.23.93,6.1-.39,10.33.13,20.72-1.84,31-.26-.62-.53-1.23-.8-1.85-1.76-1.25-1.77-3.14-1.63-5C9,44.3,9,35.83,9.17,27.37,9.2,25.46,9.18,23.24,11.7,22.5Z"/><path class="cls-3" d="M.75,24.67c.3,0,.61,0,.91,0,3,4.84,2.65,9.75.32,14.7L1,40.65Z"/><path class="cls-4" d="M11.7,22.5C10.13,34.19,10.63,46,10,57.71,7.72,59.32,7.2,58.1,7.2,56c0-16.13,0-32.26,0-48.39,0-2.16.91-2.95,2.88-3.12,2.49-.21,2.48,1.36,2.6,3.17C13,12.66,12.07,17.56,11.7,22.5Z"/><path class="cls-5" d="M19.48,31.91c0,7.81,0,15.62,0,23.42,0,1.2.49,3.1-1.48,3.07s-1.25-2-1.37-3.12c-1.31-12.7-.47-25.52-2.36-38.24-.5-3.43,2.46-7.3,1.92-11.38-.12-.88,1-1.1,1.9-.9,1.63.34,1.43,1.61,1.43,2.74q0,11.21,0,22.42v2Z"/><path class="cls-6" d="M2,39.38Q1.82,32,1.66,24.68C2.11,18,.34,10.92,5.09,4.83,6.16,5.74,5.7,7,5.7,8q0,22.94,0,45.86c0,.83,0,1.66,0,2.49,0,1-.06,2.14-1.46,2.09S3,57.2,2.89,56.24C2.52,50.62,3.2,45,2,39.38Z"/><path class="cls-7" d="M20.89,4.93C26.54,12.81,24.57,21.52,24.5,30c-.07,8.65-.5,17.3-.76,26,0,1.18,0,2.55-1.63,2.5-1.41,0-1.21-1.35-1.21-2.28Q20.87,30.56,20.89,4.93Z"/></g></g></svg>