<svg xmlns="http://www.w3.org/2000/svg" viewBox="0 0 51.04 46.15"><defs><style>.cls-1{fill:#685636;}.cls-2{fill:#d5c29c;}.cls-3{fill:#e0e0bd;}.cls-4{fill:#f3ebd9;}.cls-5{fill:#e3cdb9;}.cls-6{fill:#c1ab8b;}</style></defs><g id="Layer_2" data-name="Layer 2"><g id="Layer_1-2" data-name="Layer 1"><path class="cls-1" d="M25.46,46.09c-7,0-14-.11-21,.06C1.36,46.22,0,45.38,0,42c.16-9.65.13-19.31,0-29,0-3,1-4.33,4.05-4,1.65.16,3.33,0,5,0,3.71.1,6.93.66,8.16-4.81C18.34-.88,23.65.06,27.78.08a6.62,6.62,0,0,1,6.89,6C35.12,8.93,36.41,9,38.57,9c12.56.26,12.54.29,12.44,13.07,0,6.66-.07,13.32,0,20,.05,3-1,4.14-4.1,4.07C39.78,46,32.62,46.08,25.46,46.09Z"/><path class="cls-2" d="M49.07,26.32c0,5.28,0,10.4,0,15.53,0,2.16-1.27,2.34-2.92,2.34-13.8,0-27.61-.06-41.41,0-2.25,0-3-.92-2.78-3,0-.5,0-1,0-1.5.28-4.44-.62-8.93.52-13.33,6,1,11.94.16,17.9.52,1.74.1,1.5,1.45,1.57,2.57.14,2.11,1.38,2.83,3.33,2.81s3.81-.41,3.75-2.9c-.08-2.92,1.89-2.52,3.7-2.57C38.05,26.7,43.35,27.29,49.07,26.32Z"/><path class="cls-3" d="M38.3,25.05c-1.83,0-3.66,0-5.49,0s-3.24.32-4.1-2.25-5.41-2.61-6.31-.07-2.25,2.35-4.08,2.34c-4.16,0-8.32,0-12.48,0-2.68,0-3.75-1.19-3.93-3.93-.67-10.42-.75-10.39,9.84-10.37,11.15,0,22.3.09,33.44-.07,3-.05,4.07.69,4,3.85C48.87,26.28,50.61,25,38.3,25.05Z"/><path class="cls-4" d="M25.3,9.41c-1.72-1.14-4.53,1-4.73-1.78-.23-3,2.33-3.47,4.91-3.41s5.33.22,4.93,3.32C30,10.87,26.66,7.77,25.3,9.41Z"/><path class="cls-5" d="M18.38,6.39C18.56,3.14,20.3,2,23.2,2c7.6-.22,7.6-.29,9.61,4.36-1.87-2.12-3.76-3.73-6.93-3.54S19.89,3.13,18.38,6.39Z"/><path class="cls-6" d="M25.55,26.27a2.1,2.1,0,0,1,2.26,2.1,2.15,2.15,0,0,1-2.32,2.52,2,2,0,0,1-2.24-2.08A2.16,2.16,0,0,1,25.55,26.27Z"/></g></g></svg>