<svg xmlns="http://www.w3.org/2000/svg" viewBox="0 0 48.06 57.07"><defs><style>.cls-1{fill:#51412f;}.cls-2{fill:#d4ecd5;}.cls-3{fill:#d5eed6;}.cls-4{fill:#dbf0d5;}.cls-5{fill:#d8ebd6;}.cls-6{fill:#98b6c2;}.cls-7{fill:#94b5c6;}.cls-8{fill:#7d6a58;}.cls-9{fill:#7b6d55;}.cls-10{fill:#ece1cd;}.cls-11{fill:#f0e7d7;}.cls-12{fill:#e6eed6;}.cls-13{fill:#b5aa93;}.cls-14{fill:#53543d;}.cls-15{fill:#5e5a43;}</style></defs><g id="Layer_2" data-name="Layer 2"><g id="Layer_1-2" data-name="Layer 1"><path class="cls-1" d="M0,41.45A127.64,127.64,0,0,1,3.09,19.16C4.79,11.6,10,7,15.2,2.42s15.64-2,20.63,2.74C50.33,19,48.71,36.21,46.92,53.6c-.21,2-.43,3.5-3.07,3.47-2.27,0-4-.27-4-3,0-2-1.25-1.71-2.67-1.69q-13,.12-25.93,0c-1.68,0-3-.1-3,2C8.25,57.42,6.06,57,4.07,57c-2.45,0-2.43-1.61-2.61-3.34C1,49.06.36,44.46,0,41.45Z"/><path class="cls-2" d="M23.44,32.61c0,3.81-.08,7.62,0,11.42.06,2.09-.58,3.18-2.8,2.93a4.26,4.26,0,0,0-.5,0C9.12,47.6,8.93,47.42,8.69,36a81.23,81.23,0,0,1,.85-14.35c.4-2.59,1.5-3.13,3.91-3.16,10-.12,10-.2,10,9.6v4.48Z"/><path class="cls-3" d="M24.89,32.8v-5c0-9.16,0-9,9-9.27,3.37-.1,4.5.82,5,4.23a79.42,79.42,0,0,1,0,21.34c-.27,2-.87,2.74-3,2.9-11,.85-11,.93-11-10.23C24.88,35.46,24.88,34.13,24.89,32.8Z"/><path class="cls-4" d="M40.71,12.3a69.64,69.64,0,0,1,5.56,35.59c-.21,2.23-.88,3.75-3.63,3.39s-3-2-2.64-4.24a72.65,72.65,0,0,0-.15-27.65A11.58,11.58,0,0,1,40.71,12.3Z"/><path class="cls-5" d="M7.34,12.72c1,2.7,1.63,4.49,1.16,6.58-2,9.19-1.69,18.44-.35,27.67.32,2.18.56,3.92-2.4,4.29-2.7.34-3.47-1.09-3.7-3.33A71,71,0,0,1,7.34,12.72Z"/><path class="cls-6" d="M16,17c-3.24.71-6.44.24-7.07-4.75A3.05,3.05,0,0,1,10.52,9a1.85,1.85,0,0,1,2.92.38c1.41,1.7,3.5,1.84,5.48,1.81,2.84-.05,4.66,1.2,4.5,4-.2,3.32-3.07,1.27-4.67,1.81A11.31,11.31,0,0,1,16,17Z"/><path class="cls-7" d="M24.89,14.56c.17-.4.3-1.61.83-1.82A105.64,105.64,0,0,1,37.15,8.8c.88-.23,2.77,1,2.09,2.67-.77,1.84.31,5-2.48,5.38-3.39.49-6.91.14-10.38.14C25,17,24.85,16,24.89,14.56Z"/><path class="cls-8" d="M16.86,47.58C19,49,22.76,46.26,22.8,49.5c0,3.07-3.68,1.43-5.62,1.44-2.21,0-6.37,1.51-6.29-1.59C11,46.05,15.13,49.45,16.86,47.58Z"/><path class="cls-9" d="M31.16,47.81c2.07,1,6-1.19,6,1.55,0,3.24-3.91,1.53-6,1.57-1.87,0-5.55,1.67-5.5-1.44S29.38,49,31.16,47.81Z"/><path class="cls-10" d="M20.66,3c-4.84,2-.72,4.46-.24,7-2.68.07-6,0-6.24-2.67C13.8,3.36,17.51,2.56,20.69,2c.24.23.32.45.23.67S20.74,3,20.66,3Z"/><path class="cls-11" d="M30.8,2.93c2,.9,4.29,2.15,3.37,4.62s-3.56,2.5-6.05,2.46C28,7.75,31,6.46,29.61,4.12,29.42,3.14,29.72,2.65,30.8,2.93Z"/><path class="cls-12" d="M24.09,7.21c-1.5-.13-3.9.79-3.82-1.68C20.33,3.72,22.57,4,24,4.07s4.12-.46,4.14,1.6S25.72,7.28,24.09,7.21Z"/><path class="cls-13" d="M30.8,2.93c-.4.4-.79.8-1.19,1.19-2.8-1.76-6-.77-8.95-1.15a2.54,2.54,0,0,0,0-1C24.28,0,27.54,1.45,30.8,2.93Z"/><path class="cls-14" d="M13.92,30.09a21.49,21.49,0,0,1-2.38,10.82C11.37,37.09,11.85,33.41,13.92,30.09Z"/><path class="cls-15" d="M36,41.18,33.75,30.49l1.51-.4q1.23,5.39,2.47,10.77Z"/></g></g></svg>