<svg xmlns="http://www.w3.org/2000/svg" viewBox="0 0 40.02 41.53"><defs><style>.cls-1{fill:#1b1b1b;}</style></defs><g id="Layer_2" data-name="Layer 2"><g id="Layer_1-2" data-name="Layer 1"><path class="cls-1" d="M0,19.82c4.83,0,9.67-.2,14.48.07,3.37.19,4.74-.64,4.49-4.3-.33-4.88-.08-9.8-.08-15.59,2.76,2,1.84,3.87,2,5.43.53,4.7-2.16,11,1.11,13.7,2.82,2.3,8.9.58,13.53.74,1.39.05,2.94-.62,4.45.87-2.36,2-5.06,1-7.45,1C21,21.87,21,21.8,21,33.66c0,2.15-.12,4.3-.23,6.44,0,.19-.43.36-1.8,1.43,0-5.27-.31-9.75.09-14.17s-1-6.08-5.62-5.64c-4.43.42-8.92.09-13.39.09Z"/></g></g></svg>