<svg xmlns="http://www.w3.org/2000/svg" viewBox="0 0 40.23 27.38"><defs><style>.cls-1{fill:#0c0c0c;}.cls-2{fill:#fcfcfc;}.cls-3{fill:#fafafa;}.cls-4{fill:#f7f7f7;}.cls-5{fill:#272727;}</style></defs><g id="Layer_2" data-name="Layer 2"><g id="Layer_1-2" data-name="Layer 1"><path class="cls-1" d="M20.26,27.33c-5.16,0-10.32-.11-15.47,0-3.38.1-4.87-1.15-4.78-4.64.15-6,.14-12,0-18C-.08,1.4,1.11,0,4.63,0Q20.35.21,36.07,0c3,0,4.21,1.07,4.16,4.08-.11,6.48-.07,13,0,19.46,0,2.74-1.22,3.85-4,3.79C30.91,27.24,25.58,27.32,20.26,27.33Z"/><path class="cls-2" d="M6.94,5.24,3.8,2.35H36.05l-15.12,14c-2.13,1-3.44-.44-4.73-1.68C13,11.62,8.68,9.7,6.94,5.24Z"/><path class="cls-3" d="M19,18.05c6.91-1.85,10.65,3.74,16.68,7H5.2L16,17.35C17.33,16.1,18.19,17,19,18.05Z"/><path class="cls-4" d="M14.92,16.24,2.35,24.15V4.08C4,4,4.44,6,5.85,6.29c3.39,1.45,5.51,4.54,8.46,6.58C15.39,13.61,16.07,14.87,14.92,16.24Z"/><path class="cls-3" d="M38.09,3.31v21L24.64,15.46Z"/><path class="cls-5" d="M14.92,16.24c-1.59-4.62-6.61-6.12-9.07-9.95l1.09-1C12,8.41,15.21,14,20.93,16.35L19,18.05c-1-.32-1.87-1.09-3-.7Z"/></g></g></svg>