<svg xmlns="http://www.w3.org/2000/svg" viewBox="0 0 40.6 40.37"><defs><style>.cls-1{fill:#1f1f1f;}.cls-2{fill:#fcfcfc;}.cls-3{fill:#fafafa;}</style></defs><g id="Layer_2" data-name="Layer 2"><g id="Layer_1-2" data-name="Layer 1"><path class="cls-1" d="M40.6,40.36a3.23,3.23,0,0,1-3.2-1.5c-3.53-3.92-6.45-7.43-13.09-4.47-4.92,2.19-11-1.9-12.3-7.34-1-4.3-3.69-6.83-6.4-9.66a34.18,34.18,0,0,1-4.27-4.84,7.62,7.62,0,0,1,.52-9.3C4,.51,7-.75,10.23.46a9.92,9.92,0,0,0,6.5,0,7.55,7.55,0,0,1,9.62,7.31c0,2.65.65,3.9,2.94,5.32,5.25,3.23,7.15,9.35,4.26,14.74-1.56,2.91-.34,4,1.3,5.7C36.79,35.55,39.45,37,40.6,40.36Z"/><path class="cls-2" d="M13,22.75a9.93,9.93,0,0,1,9.73-9.89,10,10,0,1,1-.19,19.93A9.84,9.84,0,0,1,13,22.75Z"/><path class="cls-3" d="M11,20.61c-2.79-3-5.22-5.48-7.4-8.13-2-2.39-2.35-5.2-.41-7.78S8,1,11,2.72c1.83,1.06,3,.87,4.82-.07,3.31-1.72,6.28-.56,8,2.64,1.4,2.64,2.19,5.34-2.55,5.88C16.25,11.73,13.08,15,11,20.61Z"/></g></g></svg>