<svg xmlns="http://www.w3.org/2000/svg" viewBox="0 0 39.83 40.09"><defs><style>.cls-1{fill:#181818;}.cls-2{fill:#191919;}.cls-3{fill:#1c1c1c;}.cls-4{fill:#030303;}.cls-5{fill:#010101;}.cls-6{fill:#1a1a1a;}</style></defs><g id="Layer_2" data-name="Layer 2"><g id="Layer_1-2" data-name="Layer 1"><path class="cls-1" d="M38.35,13.81c-1.31-3,0-6.36-1-10.19-5,4.07-9.83,8-14.69,11.82-1.19.94-2.45,3-4.22,1.37C12.56,11.52,6.83,10.69.56,18.58c1.88-6.7,9.1-10.15,12.75-7.17,4.46,3.64,8,3.88,12.07-.56,2.77-3,6.35-5.29,10.26-8.45l-9.58-.56L26,.39A59.74,59.74,0,0,1,39.1.33c.28,0,.69,1.08.69,1.65.07,3.94,0,7.87,0,11.8Z"/><ellipse cx="32.53" cy="29.22" rx="0.57" ry="15.07"/><path d="M6.56,39.9V18.54H7.5V40Z"/><path class="cls-2" d="M38.28,40V22.11l1,0v18Z"/><path class="cls-3" d="M0,40.09v-18L1.59,22c.25,6,.1,12,.1,18Z"/><path class="cls-4" d="M26.58,22.27v17.6l-.9,0V22.34Z"/><path class="cls-5" d="M13.86,22.33V39.86H13V22.27Z"/><path class="cls-6" d="M20.06,40.08c-1.78-4.11-1.25-8.32,0-12.62Z"/></g></g></svg>