<svg xmlns="http://www.w3.org/2000/svg" viewBox="0 0 25.78 41.04"><defs><style>.cls-1{fill:#121212;}.cls-2{fill:#fdfdfd;}</style></defs><g id="Layer_2" data-name="Layer 2"><g id="Layer_1-2" data-name="Layer 1"><path class="cls-1" d="M25.76,40.79c-4.89-3.06-9-7.66-13.21-7.69C8.63,33.07,4.68,37.87,0,41,0,28,0,15.73,0,3.5,0,1.07,1.46,0,3.91,0q9,.09,18,0c3.16,0,3.9,1.78,3.89,4.5C25.74,16.32,25.76,28.14,25.76,40.79Z"/><path class="cls-2" d="M23.78,36.88c-4-2.44-7.44-6.26-10.89-6.23S6,34.58,2,37.16c0-11.28,0-22,0-32.68C2,2.41,2.88,2,4.67,2c5.48.06,11,.11,16.43,0,2.8-.08,2.71,1.56,2.7,3.53C23.76,15.78,23.78,26.07,23.78,36.88Z"/></g></g></svg>