<svg xmlns="http://www.w3.org/2000/svg" viewBox="0 0 41.18 40.42"><defs><style>.cls-1{fill:#151515;}.cls-2{fill:#fdfdfd;}</style></defs><g id="Layer_2" data-name="Layer 2"><g id="Layer_1-2" data-name="Layer 1"><path class="cls-1" d="M39.68,40.42c-3.76-2.32-6.42-5.91-9.51-9-1.9-1.89-3.12-2.41-5.73-.84A15.64,15.64,0,0,1,5.16,28.34,16.13,16.13,0,0,1,1.54,9.61,16.39,16.39,0,0,1,18.11.08,16.69,16.69,0,0,1,32.59,13.21a14.12,14.12,0,0,1-2,11.45c-1.68,2.39-1.12,3.69.75,5.31,3.34,2.89,6.58,5.9,9.86,8.87Z"/><path class="cls-2" d="M2,16.27A14.29,14.29,0,0,1,16.74,2.05,14.43,14.43,0,0,1,30.93,16.36,14.67,14.67,0,0,1,16.4,30.93,14.51,14.51,0,0,1,2,16.27Z"/></g></g></svg>