<svg xmlns="http://www.w3.org/2000/svg" viewBox="0 0 42.01 42"><defs><style>.cls-1{fill:#101010;}.cls-2{fill:#f6f6f6;}.cls-3{fill:#161616;}.cls-4{fill:#fcfcfc;}</style></defs><g id="Layer_2" data-name="Layer 2"><g id="Layer_1-2" data-name="Layer 1"><path class="cls-1" d="M21,42a3.06,3.06,0,0,1-3.53-2.66c-.93-3.63-3.17-5-6.65-2.76-1.73,1.11-3.09.76-4.4-.65s-2-2.49-.8-4.37c2.12-3.37,1-5.74-2.76-6.75A3.45,3.45,0,0,1,0,21.21a3.47,3.47,0,0,1,3-3.93C6.62,16.37,7.8,14,5.6,10.8c-1.23-1.82-.8-3,.46-4.36,1.41-1.52,2.7-2.05,4.75-.79,3.17,1.95,5.7.74,6.58-2.71C18,.63,19.18,0,21.24,0s3,1.07,3.66,3.2c.88,3,3.21,4.46,6.17,2.52,2-1.29,3.32-1,4.83.44a3.3,3.3,0,0,1,.64,4.47c-1.93,3.49-.81,5.8,3,6.75C41.6,17.9,42,19.31,42,21.11s-.64,3.16-2.59,3.65c-3.87,1-4.84,3.19-2.8,6.68,1,1.7.49,3.15-.86,4.47s-2.75,1.45-4.47.51c-3.15-1.71-5.55-.8-6.44,2.68C24.27,41.35,23.06,42.11,21,42Z"/><path class="cls-2" d="M21,40c-.95,0-1.73-.49-1.64-1.43.47-4.91-4.33-3.58-6.43-5.42-1.18-1-2,.68-2.75,1.38a1.6,1.6,0,0,1-2.54-.07c-1-.94-.43-1.57.12-2.5,1.9-3.17-.15-8.26-3.66-9.07-1.31-.3-2.25-.55-2.13-2.09C2,19.47,3,19.41,4,19.15c3.62-1,5.58-5.79,3.6-9-.58-.93-1.12-1.57-.14-2.51S9,7,10.05,7.54c3.6,2,7.75.18,9.18-3.95.38-1.11.85-1.7,2.05-1.63C22.66,2,22.59,3,22.83,4c.87,3.62,5.67,5.53,9.07,3.55,1-.57,1.68-.89,2.6-.07s.47,1.66,0,2.6c-1.81,3.59-.16,7.58,3.87,9,1.17.42,1.64.95,1.61,2.05,0,1.29-.93,1.4-2,1.69-3.72,1-5.45,5.54-3.45,9.07.57,1,.84,1.74-.1,2.54a1.88,1.88,0,0,1-2.23.18c-4.4-1.87-7.35-.53-9.47,4.15C22.3,39.83,22,40.06,21,40Z"/><path class="cls-3" d="M32.9,21.05A11.87,11.87,0,1,1,9.16,21,12.1,12.1,0,0,1,21.34,9.09,12,12,0,0,1,32.9,21.05Z"/><path class="cls-4" d="M30.91,21.13a9.72,9.72,0,0,1-9.82,9.78,10.1,10.1,0,0,1-10-9.75,10.29,10.29,0,0,1,10.25-10.1A9.87,9.87,0,0,1,30.91,21.13Z"/></g></g></svg>