<svg xmlns="http://www.w3.org/2000/svg" viewBox="0 0 39.22 39.68"><defs><style>.cls-1{fill:#141414;}</style></defs><g id="Layer_2" data-name="Layer 2"><g id="Layer_1-2" data-name="Layer 1"><path class="cls-1" d="M.16,39.68C.46,32.86-.77,26,.9,19.23,2.53,12.66,8,9,15,8.83c6.48-.11,13-.05,19.44-.08.09,0,.18-.26.46-.7l-6.38-6.8L29.75,0C32.83,3.08,35.93,6.14,39,9.26c.68.71-.23,1.19-.62,1.61a66.2,66.2,0,0,1-8.89,8.41c.05-4,3.94-5.12,5.46-8.43-7.38,0-14.49-.33-21.56.1-6.62.41-11,5.6-11.12,12.47-.12,5.41,0,10.82,0,16.23Z"/></g></g></svg>