<svg xmlns="http://www.w3.org/2000/svg" viewBox="0 0 40.11 40.17"><defs><style>.cls-1{fill:#131313;}.cls-2{fill:#fcfcfc;}.cls-3{fill:#080808;}</style></defs><g id="Layer_2" data-name="Layer 2"><g id="Layer_1-2" data-name="Layer 1"><path class="cls-1" d="M0,19.53a20.06,20.06,0,1,1,40.1,1.24,20.37,20.37,0,0,1-20.19,19.4A20.28,20.28,0,0,1,0,19.53Z"/><path class="cls-2" d="M38.1,20a18.23,18.23,0,0,1-18,18.18,18.2,18.2,0,0,1,0-36.4A18.23,18.23,0,0,1,38.1,20Z"/><path class="cls-3" d="M24.55,9.84c-2.49,2.52-4.83,5.24-7.53,7.52-2.47,2.1-2.06,3.42.11,5.45,2.55,2.4,5.49,4.56,7.16,7.76l-1,1L12.53,20.83c-.91-.9-.17-1.43.38-2L22.77,8Z"/></g></g></svg>