<svg xmlns="http://www.w3.org/2000/svg" viewBox="0 0 7.3 32.72"><defs><style>.cls-1{fill:#1e1e1e;}.cls-2{fill:#202020;}</style></defs><g id="Layer_2" data-name="Layer 2"><g id="Layer_1-2" data-name="Layer 1"><path class="cls-1" d="M4.27,32.72C1.68,32.61.13,31.51,0,29.18a3.47,3.47,0,0,1,3.63-3.83,3.37,3.37,0,0,1,3.64,3.28A3.57,3.57,0,0,1,4.27,32.72Z"/><path class="cls-2" d="M7.29,16.34C7.17,18.62,5.85,20.06,3.6,20A3.49,3.49,0,0,1,0,16.12,3.37,3.37,0,0,1,3.5,12.68C5.76,12.59,7.16,13.87,7.29,16.34Z"/><path class="cls-1" d="M3.47,7.28C1.2,6.9-.17,5.6,0,3.29S1.76-.18,4.08,0A3.22,3.22,0,0,1,7.24,3.66C7.18,6,5.77,7.15,3.47,7.28Z"/></g></g></svg>