<svg xmlns="http://www.w3.org/2000/svg" viewBox="0 0 40.47 40.03"><defs><style>.cls-1{fill:#1f1f1f;}.cls-2{fill:#232323;}</style></defs><g id="Layer_2" data-name="Layer 2"><g id="Layer_1-2" data-name="Layer 1"><path class="cls-1" d="M1.5,26.26c1,2.54.47,5.32.42,8S2.52,38,5.51,38Q20,37.71,34.42,38c3,.05,4.16-.74,4-3.87-.15-2.58-.57-5.27,1-7.84a19.76,19.76,0,0,1,.23,12.42C39,40.29,37,40,35.56,40,25.26,40,15,39.88,4.65,40c-3.52,0-4.76-1.44-4.64-4.75.11-3,0-6,0-9Z"/><path class="cls-2" d="M20.6,27c3.93-1.77,5.13-5.66,9.37-5.56-2.95,2.93-5.92,5.85-8.84,8.8-1.06,1.07-1.71.29-2.42-.4a74.39,74.39,0,0,1-8.07-8.64c4-.07,5,3.95,8.52,5.58V.05L20.6,0Z"/></g></g></svg>