<svg xmlns="http://www.w3.org/2000/svg" viewBox="0 0 39.92 40.21"><defs><style>.cls-1{fill:#171717;}.cls-2{fill:#181818;}.cls-3{fill:#fbfbfb;}</style></defs><g id="Layer_2" data-name="Layer 2"><g id="Layer_1-2" data-name="Layer 1"><path class="cls-1" d="M31,11.15A10.93,10.93,0,0,1,19.75,21.9,11.07,11.07,0,0,1,9,11a11,11,0,1,1,22,.12Z"/><path class="cls-2" d="M39.37,40.21c-1.77-1-1.24-2.32-1.29-3.39-.39-8-3.7-11.19-11.9-11.24q-6.22,0-12.46,0C5.71,25.65,2.3,29,1.94,37c-.05,1,.53,2.34-.87,3-3.5-7.74,2-16.14,10.8-16.48,5-.19,10-.06,15,0C36.72,23.65,41.66,30.12,39.37,40.21Z"/><path class="cls-3" d="M29,11.19A8.93,8.93,0,0,1,20.09,20a9.13,9.13,0,0,1-9-9.24,9.15,9.15,0,0,1,9-8.79A9,9,0,0,1,29,11.19Z"/></g></g></svg>