<svg xmlns="http://www.w3.org/2000/svg" viewBox="0 0 40 40.13"><defs><style>.cls-1{fill:#111;}.cls-2{fill:#070707;}</style></defs><g id="Layer_2" data-name="Layer 2"><g id="Layer_1-2" data-name="Layer 1"><path class="cls-1" d="M6.42,6.16c.78,2.35-1,3.05-1.7,4.2A18.11,18.11,0,1,0,26.26,3c-4.81-1.8-5.16-1.54-5.35,3.63,0,1.06.52,2.33-1.72,3.93,0-3.6-.1-6.52,0-9.43C19.31-.18,20.59,0,21.57,0c7.91-.09,16.38,7.46,18,16.08A20.1,20.1,0,0,1,27.49,38.75,20.31,20.31,0,0,1,2.73,30.32,19.13,19.13,0,0,1,6.42,6.16Z"/><path class="cls-2" d="M10.77,11.14l8.9,9.1.85-.73q-4.1-4.92-8.21-9.83Z"/></g></g></svg>