<svg xmlns="http://www.w3.org/2000/svg" viewBox="0 0 40.08 40.12"><defs><style>.cls-1{fill:#1a1a1a;}.cls-2{fill:#1d1d1d;}.cls-3{fill:#191919;}.cls-4{fill:#fbfbfb;}.cls-5{fill:#f6f6f6;}</style></defs><g id="Layer_2" data-name="Layer 2"><g id="Layer_1-2" data-name="Layer 1"><path class="cls-1" d="M19.89,21.87a10.88,10.88,0,0,1-11-11A10.87,10.87,0,0,1,19.59,0,11.14,11.14,0,0,1,31,10.79,11.17,11.17,0,0,1,19.89,21.87Z"/><path class="cls-2" d="M32.65,40.12c-7.51-6.26-8.94-9-6.3-12.1,2-2.34,10.38-2.38,12.43-.07C41.48,31,40.2,33.56,32.65,40.12Z"/><path class="cls-3" d="M28,25.55c-4.43,0-8.87,0-13.3,0-9.45,0-12.24,2.67-12.93,12.28-.06.79.12,1.69-1,2C-2,31.47,2.93,23.9,11.52,23.58c5.49-.21,11,0,16.48,0Z"/><path class="cls-4" d="M20,19.92a8.85,8.85,0,0,1-9-9.17,9.06,9.06,0,0,1,8.84-8.88,9.34,9.34,0,0,1,9.12,9.23A9.18,9.18,0,0,1,20,19.92Z"/><path class="cls-5" d="M30.91,28.52c2.1,1.56,6.64-2.4,6.92,2.55.16,2.85-3.06,4.47-5.19,6.16-.76.6-5.52-5.11-5.37-6.41C27.47,29.14,28.63,28.4,30.91,28.52Z"/></g></g></svg>