<svg xmlns="http://www.w3.org/2000/svg" viewBox="0 0 40.23 41.16"><defs><style>.cls-1{fill:#1a1a1a;}.cls-2{fill:#1d1d1d;}.cls-3{fill:#1e1e1e;}.cls-4{fill:#fbfbfb;}</style></defs><g id="Layer_2" data-name="Layer 2"><g id="Layer_1-2" data-name="Layer 1"><path class="cls-1" d="M30.79,10.92a10.86,10.86,0,0,1-11,11,11.24,11.24,0,0,1-11-10.67A11.29,11.29,0,0,1,19.71,0,10.81,10.81,0,0,1,30.79,10.92Z"/><path class="cls-2" d="M1.1,41.16C-1.51,34,.66,27.46,6.22,25c7-3.08,14.34-.86,21.55-.74-4.22,1.84-8.59,1.21-12.88,1.27C5.14,25.68,2.31,28.33,1.74,38.2A29.92,29.92,0,0,1,1.1,41.16Z"/><path class="cls-3" d="M26.28,33.17C30.8,33,33.8,32,33.16,26.92c1,3.85,2.39,6.78,7.07,6.76C35.54,33.75,34,36.3,34.07,41c-2.16-2.26-.83-4.46-1.82-5.74C31,33.69,28.66,35.43,26.28,33.17Z"/><path class="cls-4" d="M28.77,11a8.8,8.8,0,0,1-8.66,9,9.15,9.15,0,0,1-9.31-9,9.3,9.3,0,0,1,9.31-9A9,9,0,0,1,28.77,11Z"/></g></g></svg>