<svg xmlns="http://www.w3.org/2000/svg" viewBox="0 0 40.74 39.84"><defs><style>.cls-1{fill:#101010;}.cls-2{fill:#fcfcfc;}</style></defs><g id="Layer_2" data-name="Layer 2"><g id="Layer_1-2" data-name="Layer 1"><path class="cls-1" d="M40.15,28.14v1.5c0,10.1,0,10-10.2,9.61-3.52-.13-4.7-1.6-4.55-4.89.14-3-.15-6,0-9,.16-2.49-.44-3.5-3.21-3.58-7.53-.21-7.53-.35-7.52,7.31v.5c0,9.81-2,11.39-11.73,9.57-2.25-.42-3-1.61-3-3.78.08-4.82.09-9.65,0-14.47A5,5,0,0,1,1.72,17C6.81,12,11.93,7,16.86,1.82,19.3-.75,21.18-.5,23.46,2c3.17,3.41,6.39,6.8,9.87,9.87C38.31,16.22,42.27,20.86,40.15,28.14Z"/><path class="cls-2" d="M38.16,27.23v3.23c0,7-1.85,8.36-8.83,6.91-2.14-.44-2-1.74-2-3.27,0-3.49,0-7,.05-10.47,0-2.49-1.15-3.68-3.58-3.73h-1c-12-.08-9.71-.25-9.89,9.32a21.14,21.14,0,0,1,0,3c-.28,1.67,1.12,4.18-1.2,4.83A19.41,19.41,0,0,1,2.8,37c-.24,0-.45-.43-.6-.71C.59,33.44,2.64,18.88,5,16.53,9.19,12.29,13.46,8.1,17.6,3.79c1.62-1.69,2.72-2.38,4.7-.27q6.79,7.29,14.09,14.1C39.76,20.76,37.17,24.6,38.16,27.23Z"/></g></g></svg>