<svg xmlns="http://www.w3.org/2000/svg" viewBox="0 0 27.58 40.24"><defs><style>.cls-1{fill:#151515;}.cls-2{fill:#fbfbfb;}.cls-3{fill:#1c1c1c;}.cls-4{fill:#2c2c2c;}.cls-5{fill:#2a2a2a;}.cls-6{fill:#030303;}</style></defs><g id="Layer_2" data-name="Layer 2"><g id="Layer_1-2" data-name="Layer 1"><path class="cls-1" d="M27.54,19.89c0,5.15-.1,10.3,0,15.44.09,3.27-.95,5-4.52,4.91-6.31-.15-12.62-.12-18.93-.05C1.14,40.23,0,38.86,0,36,.05,25.34,0,14.71,0,4.08,0,1.2,1.23-.07,4.26,0c6.3.16,12.62.15,18.92,0,3.27-.07,4.45,1.3,4.37,4.45-.13,5.15,0,10.3,0,15.44Z"/><path class="cls-2" d="M25.55,20.57c0,4.83-.1,9.65,0,14.47.07,2.34-.64,3.25-3.09,3.19-5.81-.14-11.64-.14-17.46,0-2.38.05-3.19-.73-3.16-3.13q.15-15,0-29.94C1.85,2.75,2.63,1.92,5,2c5.82.12,11.65.13,17.47,0,2.4-.05,3.18.76,3.11,3.14C25.45,10.26,25.55,15.42,25.55,20.57Z"/><path class="cls-3" d="M20.06,9.15A22.19,22.19,0,0,1,7.6,9.22,21.5,21.5,0,0,1,20.06,9.15Z"/><path class="cls-4" d="M17.81,30.9c-4.32,1.57-7.26,1.68-11.48-.11A19.06,19.06,0,0,1,17.81,30.9Z"/><path class="cls-5" d="M6.43,16.6a11.09,11.09,0,0,1,10-.15C13.53,17.5,10.61,17.67,6.43,16.6Z"/><path class="cls-6" d="M7.71,24.08c4.09-1.56,8.18-1.22,12.28,0Z"/></g></g></svg>