<svg xmlns="http://www.w3.org/2000/svg" viewBox="0 0 39.01 40.21"><defs><style>.cls-1{fill:#0e0e0e;}.cls-2{fill:#212121;}.cls-3{fill:#1c1c1c;}.cls-4{fill:#f7f7f7;}.cls-5{fill:#fafafa;}.cls-6{fill:#d9d9d9;}.cls-7{fill:#d8d8d8;}.cls-8{fill:#d4d4d4;}.cls-9{fill:#e5e5e5;}.cls-10{fill:#f0f0f0;}.cls-11{fill:#eaeaea;}.cls-12{fill:#e1e1e1;}</style></defs><g id="Layer_2" data-name="Layer 2"><g id="Layer_1-2" data-name="Layer 1"><path class="cls-1" d="M35.52,31.08c-7.51,0-14.24.07-21,0-2.07,0-2.52-1.8-2.78-3.54-1-6.57-2.27-13.11-3-19.71C8.34,3.78,7.48,1,2.62,2,2,2.16,1.23,1.77,0,1.52,5.75-1,7.86-.49,10,4.07c.88,1.91,2.28,1.6,3.72,1.6,6.82,0,13.65.11,20.47-.06,3.93-.1,5.23,1.22,4.78,5.31-1.64,14.84-1.52,14.85-16.18,14.89a41.87,41.87,0,0,0-5.49.09c-1.2.15-3.34-1.18-3.43,1.39-.08,2.34,1.89,1.85,3.29,1.87,4.66.05,9.32,0,14,.05C32.33,29.22,33.74,28.63,35.52,31.08Z"/><path class="cls-2" d="M32.43,32.94c2.25.26,3.51,1.53,3.4,3.89a3.22,3.22,0,0,1-3.46,3.37c-2.31,0-3.77-1.24-3.76-3.6S30,33,32.43,32.94Z"/><path class="cls-3" d="M16,40.21c-2.45,0-3.79-1.4-3.76-3.65A3.29,3.29,0,0,1,15.56,33c2.37-.12,3.88,1.19,4,3.39S18.32,40,16,40.21Z"/><path class="cls-4" d="M24.86,10.17c-.46-2.2.93-2.79,3.42-2.82s2.79,1.11,2.43,3.06.25,4.44-3.23,4.43S25.1,12.51,24.86,10.17Z"/><path class="cls-5" d="M21.36,7.25c2.07-.38,1.78,1.87,1.71,3.9-.06,1.7.59,3.68-2.48,3.69-4.36,0-2.61-3.5-3.24-5.42C16.56,7,18.82,7.57,21.36,7.25Z"/><path class="cls-6" d="M15.79,12c.16,1.66.32,3-1.75,2.92-4-.15-2.48-3.52-3.21-5.51-.51-1.37.33-2,1.82-2C16.38,7.29,15.31,10.26,15.79,12Z"/><path class="cls-7" d="M32.39,12c.74-1.57-.84-5,3.16-4.58,2.31.23,1.76,1.82,1.46,3.31-.39,2,.22,4.55-3.25,4.23C31.6,14.71,32,13.5,32.39,12Z"/><path class="cls-8" d="M15.31,24c-4,0-2.11-3.37-3-5.15s.15-2.33,1.84-2.36c4-.07,2.19,3.35,3.05,5.13S17,24,15.31,24Z"/><path class="cls-9" d="M35.75,19c-.5,2,.55,4.93-3.17,5-1.62,0-2.18-.82-1.73-2.11.67-1.9-.63-5,2.94-5.26C35.61,16.46,36.14,17.33,35.75,19Z"/><path class="cls-10" d="M25,20.53c-.24-2.36-.38-4,2.22-3.93,1.46.06,3,.21,2.26,2.11s.66,4.85-2.48,5.15S25.42,21.35,25,20.53Z"/><path class="cls-11" d="M23.07,20.38c-.41,1.14,1.06,3.58-1.75,3.5C18,23.8,19.23,20.83,18.72,19c-.43-1.53,0-2.47,1.89-2.49C23.44,16.49,23.16,18.37,23.07,20.38Z"/><path class="cls-12" d="M16.18,38.17c-1.44-.07-2.08-.8-2.06-1.59A1.58,1.58,0,0,1,15.73,35c1.15,0,1.93.61,1.8,1.82A1.46,1.46,0,0,1,16.18,38.17Z"/></g></g></svg>