<svg xmlns="http://www.w3.org/2000/svg" viewBox="0 0 32.78 7.36"><defs><style>.cls-1{fill:#202020;}.cls-2{fill:#222;}.cls-3{fill:#212121;}.cls-4{fill:#cfcfcf;}.cls-5{fill:#cdcdcd;}</style></defs><g id="Layer_2" data-name="Layer 2"><g id="Layer_1-2" data-name="Layer 1"><path class="cls-1" d="M7.3,4c-.37,2.1-1.75,3.51-4,3.27A3.46,3.46,0,0,1,0,3.19,3.27,3.27,0,0,1,3.71,0C5.92.14,7.34,1.43,7.3,4Z"/><path class="cls-2" d="M32.78,3.77c-.37,2.35-1.72,3.81-4,3.56a3.55,3.55,0,0,1-3.4-4.11A3.46,3.46,0,0,1,29.12,0C31.48.07,32.68,1.49,32.78,3.77Z"/><path class="cls-3" d="M20.19,3.55c-.49,2.41-1.75,3.93-4,3.79a3.53,3.53,0,0,1-3.46-4A3.35,3.35,0,0,1,16.34,0C18.75,0,19.76,1.6,20.19,3.55Z"/><path class="cls-4" d="M29.13,5.41a1.75,1.75,0,0,1-1.79-1.79,1.68,1.68,0,0,1,1.41-1.7A1.72,1.72,0,0,1,30.8,3.46C31,4.55,30.23,5.19,29.13,5.41Z"/><path class="cls-5" d="M16,1.81c1.21.19,2,.64,2.08,1.79a1.65,1.65,0,0,1-1.38,1.71,1.67,1.67,0,0,1-2.13-1.4C14.37,2.86,15.29,2.27,16,1.81Z"/></g></g></svg>