<svg xmlns="http://www.w3.org/2000/svg" viewBox="0 0 40.18 40.13"><defs><style>.cls-1{fill:#151515;}.cls-2{fill:#fcfcfc;}.cls-3{fill:#272727;}</style></defs><g id="Layer_2" data-name="Layer 2"><g id="Layer_1-2" data-name="Layer 1"><path class="cls-1" d="M0,19.78a20.09,20.09,0,1,1,40.18.7A20.38,20.38,0,0,1,19.7,40.13,20.21,20.21,0,0,1,0,19.78Z"/><path class="cls-2" d="M38.25,20.17a18.49,18.49,0,0,1-18.36,18,18.42,18.42,0,0,1-18-18.33,18.49,18.49,0,0,1,18.32-18C29.94,1.86,38.4,10.47,38.25,20.17Z"/><path class="cls-3" d="M26.5,19.65c-2.34-2.19-4.66-4.11-6.66-6.32C18.72,12.09,15.77,10.6,17,9.48c2-1.88,3.13,1.33,4.3,2.49,2.67,2.63,7.4,5,7.24,8.17C28.34,22.89,24,25.57,21.31,28,20,29.1,18.94,32.37,17,30.58c-1.3-1.22,1.76-2.59,2.82-3.89a69.57,69.57,0,0,1,4.88-5C25.25,21.15,25.73,20.53,26.5,19.65Z"/></g></g></svg>