<svg xmlns="http://www.w3.org/2000/svg" viewBox="0 0 40.27 36.97"><defs><style>.cls-1{fill:#1d1d1d;}.cls-2{fill:#fefefe;}</style></defs><g id="Layer_2" data-name="Layer 2"><g id="Layer_1-2" data-name="Layer 1"><path class="cls-1" d="M40.25,12c-.37,4.16-1.37,6.91-3.58,9.13-4.81,4.82-9.66,9.6-14.4,14.5-1.5,1.55-2.5,2-4.25.15-4.55-4.83-9.4-9.39-14-14.17S-1.27,10.38,2.29,5.26c3.39-4.89,9.47-6.69,15.42-4,2.22,1,3.62.24,5.46-.43C31.78-2.32,40.74,4.2,40.25,12Z"/><path class="cls-2" d="M38.25,12.46c-.31,6-5.07,9.86-10.78,13.32a2.64,2.64,0,0,0-.9.89c-5,8.18-6.21,8.71-8.8,6-4-4.22-8.23-8.21-12.24-12.42C1.3,15.78.84,10.68,4.06,6.26A10,10,0,0,1,17.74,3.52c2.33,1.38,3.47.36,5.23-.46C30.15-.28,38.33,4.8,38.25,12.46Z"/></g></g></svg>