<svg xmlns="http://www.w3.org/2000/svg" viewBox="0 0 41.59 27.41"><defs><style>.cls-1{fill:#1c1c1c;}.cls-2{fill:#1e1e1e;}.cls-3{fill:#1d1d1d;}.cls-4{fill:#cacaca;}.cls-5{fill:#c4c4c4;}</style></defs><g id="Layer_2" data-name="Layer 2"><g id="Layer_1-2" data-name="Layer 1"><path class="cls-1" d="M1.22,2.53c6.22,0,12.44,0,18.67,0,2.55,0,5.29.74,7.33-1.84C27.67.1,29.52-.22,30,.18c3.17,2.9,7.32,2,11.64,2.91-1.69,2-3.36,1.35-4.8,1.43-1.78.12-3.52-.22-5,1.54S28,8,26.63,6.13C25.06,4,23.13,4.6,21.27,4.58c-6.7-.08-13.4,0-20.1,0C1.18,3.87,1.2,3.2,1.22,2.53Z"/><path class="cls-2" d="M0,24.19c2.73-2.25,4.77-1.57,6.58-1.61,5-.11,10,0,15,0,1.95,0,3.94.35,5.4-1.68.43-.61,2.28-1.06,2.66-.71,3.24,3,7.61,2,11.41,3.38-3.62,1.66-8.26-.13-11,3.69a1.49,1.49,0,0,1-1.43,0c-7.83-5.43-16.67-1.54-24.95-2.7C2.84,24.44,2,24.39,0,24.19Z"/><path class="cls-3" d="M1.08,13.45C6.74,15.11,11,7.55,17.64,12.1c3.07,2.1,8.74.42,13.22.43,3.36,0,6.71,0,10.06,0l0,2a72.28,72.28,0,0,0-8.33.06c-6.34.72-13.21-2.31-19,2.61a1.49,1.49,0,0,1-1.42,0C9.23,13.86,4.89,14.79,1.08,13.45Z"/><path class="cls-4" d="M29.26,21.9a1.72,1.72,0,0,1,0,3.44A1.63,1.63,0,0,1,27.47,24,1.83,1.83,0,0,1,29.26,21.9Z"/><path class="cls-5" d="M12.76,11.85c1.2.26,2,1,1.81,2a1.66,1.66,0,0,1-2.09,1.44,1.52,1.52,0,0,1-1.39-1.66A1.73,1.73,0,0,1,12.76,11.85Z"/></g></g></svg>