<svg xmlns="http://www.w3.org/2000/svg" viewBox="0 0 40.55 39.32"><defs><style>.cls-1{fill:#141414;}.cls-2{fill:#191919;}</style></defs><g id="Layer_2" data-name="Layer 2"><g id="Layer_1-2" data-name="Layer 1"><path class="cls-1" d="M3.94,7.79c-1.25-1.18-2.8.83-3.94-1C1.9,4.82,5,4.29,6.65,5.08c3.2,1.47,2,4.94,2.11,8.08C6.34,12.23,7.62,9.78,6,9c-6.22,9-4,20.39,5.1,25.85a18.15,18.15,0,0,0,25.3-7,17.34,17.34,0,0,0-.63-18C32.32,4,26.71,1.6,20.27.55c6.14-2.18,14.22,2.33,18,9.51A20.06,20.06,0,0,1,7.87,34.89C-.18,28.31-1.64,18.52,3.94,7.79Z"/><path class="cls-2" d="M30.11,20.19c-3.49,0-6.21,0-8.93,0a1.57,1.57,0,0,1-1.73-1.88c.2-3.87-.53-7.8.76-12.64,1.89,3,1.33,5.51,1.15,7.71-.3,3.73.58,5.66,4.75,4.92C27.12,18.11,28.43,17.79,30.11,20.19Z"/></g></g></svg>