<svg xmlns="http://www.w3.org/2000/svg" viewBox="0 0 39.83 40.13"><defs><style>.cls-1{fill:#0f0f0f;}.cls-2{fill:#1e1e1e;}.cls-3{fill:#1f1f1f;}.cls-4{fill:#fbfbfb;}.cls-5{fill:#dfdfdf;}.cls-6{fill:#ccc;}</style></defs><g id="Layer_2" data-name="Layer 2"><g id="Layer_1-2" data-name="Layer 1"><path class="cls-1" d="M0,1.43C6.72-1,8.28-.57,10.77,4.22c1,2,2.47,1.34,3.79,1.36,6.66.08,13.31.1,20,0,4.09-.06,5.9,1.6,5.12,5.79-.61,3.26-1.25,6.54-1.58,9.84s-2.31,4.55-5.37,4.56c-5,0-10-.06-15,0-1.23,0-3.42-.95-3.28,1.51.12,2,2,1.81,3.53,1.81,4.83,0,9.66-.05,14.48,0,1.07,0,2.34-.43,3.51,1.42-4.32,1.17-8.5.56-12.57.53C13.26,31,13,33.14,11.47,21c-.55-4.45-1.63-8.85-2-13.3C9.09,3.51,7.74,1.08,3.06,2,2.47,2.1,1.8,1.78,0,1.43Z"/><path class="cls-2" d="M20.19,36.71c-.29,2.36-1.62,3.56-4,3.39a3.33,3.33,0,0,1-3.32-3.56,3.36,3.36,0,0,1,3.74-3.61C19.09,33,20.06,34.47,20.19,36.71Z"/><path class="cls-3" d="M36.73,36.63c-.53,2.26-1.74,3.68-4.12,3.48s-3.49-1.77-3.25-4A3.24,3.24,0,0,1,33,32.91C35.46,33,36.41,34.55,36.73,36.63Z"/><path class="cls-4" d="M24.44,7.36a16.51,16.51,0,0,1,2,0c3.7.47,9-1.88,10.76,1.27,2,3.63-.66,8.62-1.18,13-.24,2-1.75,2.15-3.33,2.15-2.49,0-5,.15-7.47,0-3.74-.26-9.09,1.84-10.84-.86-2.32-3.58-1.9-8.91-2.73-13.48-.38-2.09.88-2.12,2.33-2.11C17.46,7.38,21,7.37,24.44,7.36Z"/><path class="cls-5" d="M18.33,36.51c-.25.83-.59,1.59-1.62,1.59-1.19,0-1.87-.62-1.77-1.83.08-1,.83-1.34,1.75-1.34S18,35.73,18.33,36.51Z"/><path class="cls-6" d="M33.09,38.15a1.65,1.65,0,0,1-1.92-1.71,1.6,1.6,0,0,1,1.6-1.56,1.65,1.65,0,1,1,.32,3.27Z"/></g></g></svg>