<svg xmlns="http://www.w3.org/2000/svg" viewBox="0 0 40.1 40.12"><defs><style>.cls-1{fill:#121212;}.cls-2{fill:#fdfdfd;}.cls-3{fill:#191919;}</style></defs><g id="Layer_2" data-name="Layer 2"><g id="Layer_1-2" data-name="Layer 1"><path class="cls-1" d="M40.1,20.18A19.75,19.75,0,0,1,19.7,40.12,20.08,20.08,0,0,1,0,19.84,20.44,20.44,0,0,1,20.3,0,20.1,20.1,0,0,1,40.1,20.18Z"/><path class="cls-2" d="M38.19,20A17.89,17.89,0,0,1,20.31,38.18,18.12,18.12,0,0,1,2,20.29,18.3,18.3,0,0,1,20,2,18.11,18.11,0,0,1,38.19,20Z"/><path class="cls-3" d="M31.66,14.15,17.56,28.33c-1,1-1.62.47-2.49-.25-2.4-2-4.9-3.87-7.71-6.06,3.6-2.31,4.41-.34,5.07.6,3,4.24,5.4,3.38,8.29-.17s6.2-6.7,9.33-10Z"/></g></g></svg>