<svg xmlns="http://www.w3.org/2000/svg" viewBox="0 0 34.29 40.26"><defs><style>.cls-1{fill:#181818;}.cls-2{fill:#070707;}.cls-3{fill:#010101;}.cls-4{fill:#1a1a1a;}.cls-5{fill:#020202;}</style></defs><g id="Layer_2" data-name="Layer 2"><g id="Layer_1-2" data-name="Layer 1"><path class="cls-1" d="M3.47,6c2.82,1.87,2,3.7,2,5.19.09,7.83.15,15.66,0,23.49C5.37,37.4,6.11,38.4,9,38.29c5.49-.22,11-.19,16.49,0,2.67.09,3.37-.79,3.33-3.39-.16-8.33-.08-16.66,0-25,0-1.08-.49-2.36.81-3.2,1.62,0,1.17,1.3,1.17,2.11,0,9,0,18,.08,27,0,3.17-1.05,4.52-4.35,4.44-6.32-.17-12.65-.07-19,0-2.23,0-4-.38-4-3.16Z"/><path class="cls-2" d="M0,2.93c3.29,0,6.58,0,9.88,0,2,0,4.23.61,5.49-1.94.42-.86,2-1.38,2.62-.6C22,5,27.24,2.16,31.87,2.93A3.22,3.22,0,0,1,34.29,4.1H0C0,3.71,0,3.32,0,2.93Z"/><path class="cls-3" d="M11.29,9.39v25.2h-1V9.43Z"/><path class="cls-4" d="M22.84,34.72V9.28l1.21,0c1,8.45.49,16.93.28,25.41Z"/><path class="cls-5" d="M16.72,34.6V9.41h.83V34.61Z"/></g></g></svg>